<?xml version="1.0" encoding="UTF-8"?><svg id="Warstwa_1" xmlns="http://www.w3.org/2000/svg" viewBox="0 0 800.62 742.03"><defs><style>.cls-1{fill:#4a835b;}.cls-1,.cls-2,.cls-3,.cls-4,.cls-5,.cls-6{stroke-width:0px;}.cls-2{fill:#263671;}.cls-3{fill:#e0001a;}.cls-4{fill:#009d57;}.cls-5{fill:#fff;}.cls-6{fill:#00985f;}</style></defs><path class="cls-5" d="m3.61,36.89h33.03l16.26,126.69,26.58-126.69h25.8l26.32,126.69,16.25-126.69h33.03l-32.51,184.23h-29.93l-26.06-121.27-26.32,121.27h-29.93L3.61,36.89Z"/><path class="cls-5" d="m234.8,157.65l-44.12-120.76h34.83l26.06,80.76,25.8-80.76h35.09l-44.38,120.76v63.47h-33.29v-63.47Z"/><path class="cls-5" d="m374.39,120.24h51.61v33.29c0,25.29-2.58,39.22-9.03,49.54-8.77,13.93-22.71,20.64-43.87,20.64s-35.09-6.45-43.86-18.84c-6.71-9.29-9.55-22.96-9.55-45.41v-60.38c0-25.03,3.35-38.96,11.61-48.77,9.03-10.32,22.45-15.74,40.77-15.74,21.16,0,35.87,8,44.12,23.74,3.87,7.74,5.42,16.51,5.93,31.48h-30.45c-1.55-21.93-5.68-28.38-18.84-28.38-15.22,0-19.87,9.29-19.87,39.74v56.25c0,29.93,4.9,39.48,20.38,39.48s19.87-9.55,19.87-36.12v-14.97h-18.84v-25.54Z"/><path class="cls-5" d="m483.27,221.12h-33.29V36.89h46.7c21.93,0,33.03,3.35,41.54,12.39,8.51,8.77,12.13,21.16,12.13,41.03,0,31.74-5.93,44.12-24.51,52.38l30.19,78.44h-36.64l-25.8-75.86h-10.32v75.86Zm11.09-101.4c9.55,0,13.93-1.55,17.29-6.19,3.61-4.39,5.42-12.13,5.42-21.16,0-21.42-5.68-28.9-21.93-28.9h-12.9v56.25h12.13Z"/><path class="cls-5" d="m610.73,184.48l-8,36.64h-35.87l52.12-184.23h27.61l52.12,184.23h-35.87l-7.74-36.64h-44.38Zm22.19-102.44l-16.51,76.12h32.77l-16.26-76.12Z"/><path class="cls-5" d="m786.7,36.89v121.53c0,27.09-1.03,36.9-5.16,45.15-6.45,13.42-18.84,20.13-37.67,20.13-17.55,0-29.42-4.9-41.8-17.55l19.09-21.16c8,8.51,13.68,11.87,19.87,11.87,9.8,0,12.38-7.74,12.38-38.19V36.89h33.29Z"/><path class="cls-3" d="m36.45,462.48h14.2v29.61l16.62-29.61h15.3l-19.82,32.37,20.37,46.24h-15.52l-13.21-34.68-3.74,6.72v27.96h-14.2v-78.61Z"/><path class="cls-3" d="m86.54,487.25c0-18.72,6.39-25.98,22.68-25.98s22.79,7.27,22.79,25.98v29.06c0,18.72-6.38,25.98-22.79,25.98s-22.68-7.27-22.68-25.98v-29.06Zm31.27,1.21c0-12.11-1.98-15.74-8.48-15.74s-8.59,3.63-8.59,15.74v26.64c0,12.11,1.98,15.74,8.59,15.74s8.48-3.63,8.48-15.74v-26.64Z"/><path class="cls-3" d="m143.24,462.48h14.09l18.94,50.09v-50.09h13.21v78.61h-13.32l-19.71-50.75v50.75h-13.21v-78.61Z"/><path class="cls-3" d="m202.36,462.48h14.2v29.61l16.62-29.61h15.3l-19.82,32.37,20.37,46.24h-15.52l-13.21-34.68-3.74,6.72v27.96h-14.2v-78.61Z"/><path class="cls-3" d="m269.85,462.48v54.06c0,11.01,1.76,14.2,7.71,14.2,6.61,0,8.26-2.86,8.26-14.2v-54.06h14.2v54.06c0,9.91-.88,14.09-3.74,18.06-3.85,5.39-9.25,7.6-18.39,7.6-9.8,0-15.63-2.75-19.38-8.81-2.2-3.74-2.86-7.82-2.86-16.84v-54.06h14.2Z"/><path class="cls-3" d="m326.77,541.09h-14.2v-78.61h19.93c9.36,0,14.09,1.43,17.72,5.28,3.63,3.74,5.17,9.03,5.17,17.5,0,13.54-2.53,18.83-10.46,22.35l12.88,33.47h-15.63l-11.01-32.37h-4.4v32.37Zm4.73-43.27c4.07,0,5.95-.66,7.38-2.64,1.54-1.87,2.31-5.17,2.31-9.03,0-9.14-2.42-12.33-9.36-12.33h-5.5v24h5.17Z"/><path class="cls-3" d="m375.76,517.42c.11,9.69,2.53,13.43,8.37,13.43s8.48-3.41,8.48-11.67c0-3.63-.66-6.17-2.2-7.82-1.65-1.76-2.09-1.98-9.58-4.4-12-3.96-16.73-10.35-16.73-22.57,0-14.97,6.83-22.9,19.82-22.9,8.7,0,14.64,3.41,17.95,10.13,1.65,3.3,2.42,7.05,2.53,13.43h-12.99c-.55-9.14-2.2-12.11-7.05-12.11-4.51,0-6.72,3.63-6.72,10.9,0,6.17,2.53,9.03,10.24,11.78,7.93,2.75,9.69,3.52,12.44,5.95,4.07,3.52,5.83,8.81,5.83,17.17,0,15.63-7.38,23.56-21.8,23.56-9.25,0-15.74-3.52-19.05-10.46-1.76-3.41-2.42-7.27-2.53-14.42h12.99Z"/><path class="cls-3" d="m441.27,474.15h-13.87v-11.67h41.95v11.67h-13.87v66.94h-14.2v-66.94Z"/><path class="cls-3" d="m491.8,514.01l-18.83-51.52h14.86l11.12,34.46,11.01-34.46h14.97l-18.94,51.52v27.08h-14.2v-27.08Z"/><path class="cls-3" d="m528.02,462.48h14.2v66.94h24.11v11.67h-38.31v-78.61Z"/><path class="cls-3" d="m573.82,462.48h14.2v29.61l16.62-29.61h15.3l-19.82,32.37,20.37,46.24h-15.52l-13.21-34.68-3.74,6.72v27.96h-14.2v-78.61Z"/><path class="cls-3" d="m623.91,487.25c0-18.72,6.39-25.98,22.68-25.98s22.79,7.27,22.79,25.98v29.06c0,18.72-6.38,25.98-22.79,25.98s-22.68-7.27-22.68-25.98v-29.06Zm31.27,1.21c0-12.11-1.98-15.74-8.48-15.74s-8.59,3.63-8.59,15.74v26.64c0,12.11,1.98,15.74,8.59,15.74s8.48-3.63,8.48-15.74v-26.64Z"/><path class="cls-4" d="m693.49,462.48h14.09l6.94,54.06,11.34-54.06h11.01l11.23,54.06,6.94-54.06h14.09l-13.87,78.61h-12.77l-11.12-51.74-11.23,51.74h-12.77l-13.87-78.61Z"/><path class="cls-5" d="m19.12,370.27l26.65-64.41h-24.02v-12.67h40.75v8.25l-26.65,64.41h27.84v12.67H19.12v-8.25Z"/><g id="Layer_2"><g id="Layer_1-2"><path class="cls-2" d="m178.38,369.64c0-.67,29.18-91.19,29.18-91.21,3.1-9.75,5.39-19.75,6.84-29.88-9.76,12.16-18.32,25.24-25.55,39.06-4.82,8.89-9.32,17.26-14.01,26.05-5.37,9.63-10.62,18.81-15.96,28.37-9.44,16.86-18.81,32.63-18.81,32.63,12.39-3.88,25.36-5.59,38.33-5.06l-.02.05Zm534.15,26.32c22.13-10.69,36.82-28.9,36.55-47.44-.31-6.07-4.14-9.9-10.69-10.14-14.45.19-29.5,23.31-29.16,44.91-.13,4.45,1.01,8.85,3.3,12.67Zm-91.5-55.79c-3.52,0-7.46.22-11.27.6l-9.39,27.09c-4.29,12.33-6.84,23.09-6.91,27.47.48,9.49,8.09,14.23,24.08,14.45,2.55.02,5.1-.09,7.63-.34v-1.37c0-5.56,1.93-15.29,5.42-25.91,4.82-13.97,9.37-27.45,14.06-41.78-7.83.24-15.7-.48-23.55-.24h0l-.07.02Zm-128.85,52.97c22.23-10.76,36.7-29.26,36.43-47.75.17-5.32-4.01-9.76-9.33-9.93-.46-.01-.91,0-1.36.05-14.45.46-29.4,23.91-29.09,45.22-.13,4.38,1.03,8.7,3.35,12.42v-.02Zm-207.97,19.43c-17.77,7.22-26.49,12.5-36.55,12.81-16.64.53-24.54-6.26-25.28-21.29-.02-8.32,1.3-16.59,3.9-24.49-8.99,1.78-18.15,2.49-27.31,2.12-1.59,4.55-3.23,8.67-4.65,12.98-3.68,12.04-4.29,15.48-4.24,19.94v1.25c0,.49.09.98.24,1.44l.34,1.01-.94.24c-13.1,3.23-16.86,4.24-30.24,8.31l-1.73.53.53-1.73c.36-1.2.82-2.29,1.2-3.49,2.6-6.41,6.16-16.86,9.05-25.76l3.71-11.44,1.08-3.49c-9.63-1.31-19.36-1.68-29.06-1.11-2.06.14-4.1.43-6.12.84l-1.4.26c-23.26,40.24-37.71,47.82-76.55,50.42-4.64.29-9.3.06-13.89-.67l-.79-.14-.26-7.83,1.3.41c8.76,2.41,17.98,2.54,26.8.39,11.24-2.57,21.3-8.8,28.61-17.72,3.57-4.37,6.79-9.02,9.63-13.89,3.08-5.08,6.14-10.72,9.44-16.4,12.42-21.21,25.36-43.2,25.36-43.2,28.39-49.03,45.27-74.16,67.3-93.19,12.04-3.95,15.05-4.82,26.25-9.34l1.3-.53v1.42c.24,15.7-6.36,40.33-17.31,73.78-3.23,9.82-21.48,63.18-22.08,65.01,1.83-.19,5.85-.58,10.72-.79,6.05-.16,12.05-1.03,17.89-2.6,1.69-4.82,3.64-10.02,5.9-15.87,12.04-30.62,25.6-60.62,40.65-89.89l2.94-5.25c19.84-38.72,28.39-7.61,28.9,10.19-.14,63.83-14.88,70.5-57.26,105.95-13.68,47.48,11.8,43.73,33.76,37.61,8.43-24.08,16.86-47.82,25.67-73.03,12.91-3.18,16.49-4.14,29.88-8.45-6,12.76-7.87,16.4-13.6,30.51,20.61-19.79,42.79-32.24,56.61-32.92,5.22-.33,9.72,3.62,10.05,8.84,0,.1.01.21.01.31,0,2.79-.99,6.77-4.07,13.03-1.73,3.71-3.27,7.22-5.03,10.81,23.62-21.91,43.08-32.15,58.1-32.87,7.22,0,11.73,3.23,11.61,8.89-.45,3.6-1.32,7.13-2.58,10.52-4.67,12.04-8.89,23.41-13.48,35.3-3.9,9.63-4.36,11.58-4.29,15.15.24,7.42,5.75,10.64,16.86,10.69,3.42-.06,6.81-.66,10.04-1.78-1.04-3.02-1.63-6.18-1.76-9.37.65-33.08,42.28-68.29,82.95-69.57,10.67.22,17.89,6.04,18.2,15.24,0,20.06-26.49,42.69-66.56,54.78,9.9,9.63,22.83,14.16,43.17,14.21,9.54-.53,19-2.02,28.25-4.45.79-8.03,2.58-15.94,5.32-23.53,4.82-14.09,9.37-27.45,14.06-41.78-7.9.39-8.57.48-16.49.87,3.59-5.73,4.48-7.42,7.8-12.69,6.24.24,8.55.26,12.71.22,4.7-13.51,8.81-26.49,13.56-40.14,12.16-1.88,15.53-2.41,27.69-5.08-5.47,15.77-10.74,30.68-16.11,46.16,8.24-.26,11.53.43,19.48.22,1.42-.17,10.72-.41,14.98-.19,4.82-13.65,9.01-26.75,13.75-40.43,12.16-1.88,15.51-2.41,27.72-4.82-5.66,15.41-10.74,30.44-16.13,45.94,8.48-.26,10.64-.51,19.14-.65l-2.99,6.16c-1.3,2.41-2.58,4.82-3.88,7.39-7.22-1.06-9.08-.94-16.4-1.49l-9.39,27.07c-4.09,12.5-7.01,23.16-6.93,27.55.48,9.63,8.09,14.45,24.08,14.78,1.64,0,3.66,0,5.95-.24-2.11-4.16-3.23-8.75-3.27-13.41.65-33.71,42.28-68.34,83.12-68.19,10.67.22,17.92,6.57,18.2,15.63-.22,20.11-27.07,41.78-66.89,53.82,9.63,10.11,22.88,15.07,43.34,15.48,8.1.26,16.19-.55,24.08-2.41.29.84.67,1.66.96,2.41-27.52,7.8-51.48,11.82-67.42,11.49-14.18-.29-24.08-4.19-29.83-11.39-2.41.65-4.62,1.25-6.91,1.95-24.44,6.48-30.29,7.56-38.17,7.54s-12.95-3.83-14.71-10.52c-2.41.65-4.6,1.3-6.91,1.97-24.32,6.43-30.24,7.75-38.12,7.73-9.44-.19-14.83-5.2-15.36-14.59-27.19,8.16-54.52,13.85-70.38,13.8-16.98,0-27.81-5.1-32.63-14.95l-2.41.94c-24.87,9.97-37.83,14.16-44.72,14.45-6.36.28-11.75-4.65-12.03-11.01,0-.05,0-.11,0-.16-.19-3.68,1.08-7.85,3.64-15.63,3.97-10.84,7.61-21.67,11.63-32.58,0-.31.58-1.76,1.16-4,.46-1.2.85-2.43,1.16-3.68.34-1.09.52-2.23.55-3.37-.26-3.85-3.78-5.8-10.33-5.71-12.26.6-22.68,14.18-38.53,51.07-2.72,6.38-5.49,12.4-8.19,18.66-9.18,1.62-18.22,3.98-27.02,7.06,6.79-18.54,12.98-36.38,19.96-55.38.29-1.59.89-2.87,1.78-6,.26-1.54.7-2.79,1.08-4.45.3-1.31.49-2.64.58-3.97-.24-3.4-3.49-5.1-10.64-5.01-12.26.6-22.85,14.91-35.71,48.16-2.82,7.22-5.56,14.11-8.4,21.43-8.68,1.23-17.22,3.25-25.52,6.04l3.9-11.22-.1.07Zm-29.88-52.42c9.46-4.19,23.04-10.14,28.27-25.19,6.93-21.17,9.9-35.54,9.99-70.99-13.63,29.04-15.63,31.3-26.49,62.87-6.91,18.83-2.91,7.22-6.65,18.69-.96,3.13-1.95,5.8-5.01,14.64l-.12-.02Z"/></g></g><path id="path22" class="cls-1" d="m204.68,604.9h-15.91l-3.87,4.86c-.68.68-.46,1.4.22,1.63l5.22,2.3,14.78-6.9c.49-.24.7-.83.47-1.32-.17-.35-.53-.57-.92-.56Z"/><circle id="circle24" class="cls-5" cx="170.09" cy="610.44" r="4.41"/><path id="path26" class="cls-6" d="m145.61,682.98h-19.58c-4.39,2.48-8.95,4.63-13.67,6.42-.49.21-.68.31-.45.98l17.5,48.56h9.56l-16.04-44.24h.43c10.45,0,35.38-2.6,48.88-24.41-6.27,8.33-16.22,13.07-26.64,12.7Zm2.78-29.04c1.07-1.63,2.1-3.43,3.07-5.11-.45-.24-.85-.52-1.3-.05-13.76,15.78-33.91,24.52-54.83,23.79h-23.02c-.69,0-1.27-.63-.75-1.31,15.16-20.67,32.62-39.54,52.06-56.24l-38.56,32.42c-3.21,2.82-7.35,4.36-11.62,4.31H24.92c-1.37,0-.92.99-.69,1.67,3.85,12.32,15.58,20.45,28.47,19.73l-11.35,11.87c-.45.45-.45,1.86.68,1.86h43.29c25.43,1.19,49.53-11.4,63.07-32.95h0Zm-12.8,48.95l12.97,36.05h9.58l-13.7-38.06c-2.9.87-5.85,1.55-8.84,2.02Zm69.21-97.99h-15.94l-3.87,4.84c-.68.69-.45,1.4.22,1.62l5.22,2.28,14.79-6.86c.49-.23.71-.81.49-1.31-.16-.36-.53-.58-.92-.58Zm-31.59,8.67c-1.73,1.72-4.52,1.71-6.24-.02-1.72-1.73-1.71-4.52.02-6.24,1.72-1.71,4.49-1.71,6.21,0-3.11-3.08-8.14-3.06-11.22.05-3.08,3.11-3.06,8.14.05,11.22,3.11,3.08,8.14,3.06,11.22-.05,3.06-3.09,3.06-8.08,0-11.17,1.69,1.73,1.67,4.51-.05,6.21Z"/><circle id="circle28" class="cls-5" cx="170.38" cy="610.24" r="3.72"/><path id="path30" class="cls-3" d="m172.23,670.28c9.28-17.66,15.45-36.79,18.21-56.54l-5.22-2.31c-.68-.22-.9-.93-.22-1.62l3.87-4.8c-5.28-8-14.3-12.73-23.88-12.51-7.16-.09-14.18,1.96-20.15,5.9-7.38,5.2-14.47,10.8-21.25,16.76-19.44,16.66-36.9,35.49-52.06,56.12-.49.68.09,1.31.75,1.31h23.05c20.95.7,41.1-8.07,54.86-23.88.32-.39.9-.46,1.3-.15.44.33.57.94.3,1.42-5.11,13.31-14.06,24.81-25.72,33.02h19.58c10.4.35,20.32-4.38,26.58-12.7Zm-10.25-51.72c-3.11-3.09-3.13-8.12-.04-11.23,3.09-3.11,8.12-3.13,11.23-.04,3.11,3.09,3.13,8.12.04,11.23-.01.01-.02.02-.04.04-3.1,3.07-8.09,3.07-11.19,0h0Zm18.33,56.54c-6.45,10.31-16,18.31-27.29,22.85l14.7,40.97h42.77c-8.55-24.73-17.71-49.03-26.35-71.07-1.16,2.4-2.45,5.03-3.82,7.25h0Zm-158.39,63.83h43.29l14-42.94h-42.24c-4.78,13.02-9.85,27.33-15.05,42.94Zm56.98-99.15l24.98-20.73c4.13-11.14,8.37-22.16,12.81-31.67,2.24,5.07,4.32,10.19,6.52,15.58,9.64-7.96,15.97-12.26,16.29-12.47l.14-.07c3.94-2.64,8.26-4.66,12.81-5.97-5.69-12.43-9.7-21.21-11.64-25.11h-48.49c-4.04,9.11-19.11,40.35-36.74,81.99h17.84c1.95.2,3.9-.36,5.46-1.54Z"/><path id="path32" class="cls-3" d="m264.35,713.74c-8.1,1.03-15.49-4.7-16.52-12.8-.13-1.03-.15-2.07-.06-3.11v-66.9h-35.14v71.65c0,26.37,11.76,39.33,36.57,39.33"/><path id="path34" class="cls-3" d="m281.59,706.02c-4.56,4.66-10.75,7.36-17.26,7.53-8.1,1.02-15.5-4.72-16.52-12.82-.13-1.05-.15-2.11-.06-3.16v-67.92h-35.13v72.75c0,26.48,11.67,39.49,36.57,39.49,13.9,1.04,27.51-4.39,36.88-14.7l2.18,11.78h28.5v-109.34h-35.16v76.4Zm111.66,5.47c-17.58,0-26.72-10.95-26.72-27.61s9.14-25.79,26.49-25.79c8.35-.14,16.54,2.24,23.51,6.84l5.03-29.91c-11.71-5.17-24.42-7.66-37.21-7.31-35.38,0-54.8,20.32-54.8,57.54s18.26,56.62,53.89,56.62c14.08.21,27.99-3.17,40.41-9.81l-5.02-27.85c-7.78,4.54-16.57,7.05-25.57,7.3Zm108.89-83.79c-11.38-.67-22.64,2.64-31.85,9.36v-47.77h-36.44v149.64h36.44v-75.38c4.29-4.65,10.28-7.36,16.61-7.53,7.84-.96,14.97,4.61,15.94,12.45.14,1.17.14,2.36,0,3.53v66.93h36.44v-71.73c0-26.48-12.23-39.5-37.12-39.5Zm239.72,0c-13.89-1.19-27.57,4.03-37.14,14.18l-2.43-12.28h-29v109.33h36.44v-75.38c4.29-4.65,10.28-7.36,16.61-7.53,7.84-.96,14.97,4.62,15.93,12.45.14,1.17.14,2.35,0,3.52v66.93h36.44v-71.73c0-26.48-12.19-39.5-36.84-39.5Zm-190.26,61.2c0,36.99,13.7,52.99,40.19,52.99,12.96,1.07,25.59-4.45,33.59-14.7l1.83,11.78h29.2v-104.42c-16.13-5.04-32.99-7.35-49.88-6.84-35.43,0-54.93,21.69-54.93,61.19h0Zm68.34,17.12c-4.42,4.84-10.68,7.57-17.23,7.53-9.58,0-14.89-8.9-14.89-26.03,0-21,5.79-31.5,17.17-31.5,5.02-.11,10.04.42,14.93,1.6l.02,48.4Z"/></svg>