<?xml version="1.0" encoding="UTF-8"?><svg id="Warstwa_1" xmlns="http://www.w3.org/2000/svg" viewBox="0 0 1024.32 624.52"><defs><style>.cls-1{fill:#263671;}.cls-1,.cls-2,.cls-3,.cls-4{stroke-width:0px;}.cls-2{fill:#24408f;}.cls-3{fill:#e51d29;}.cls-4{fill:#fff;}</style></defs><path class="cls-2" d="m23.66,175.71h-9.1v17.81H5.32v-47.3h18.34c9.77,0,15.61,6.71,15.61,14.75s-5.85,14.75-15.61,14.75Zm-.46-21.26h-8.64v12.96h8.64c4.19,0,6.84-2.59,6.84-6.44s-2.66-6.51-6.84-6.51Z"/><path class="cls-2" d="m72.15,193.51l-9.23-18.87h-6.64v18.87h-9.23v-47.3h18.54c9.63,0,15.35,6.58,15.35,14.48,0,6.64-4.05,10.76-8.64,12.42l10.56,20.4h-10.7Zm-7.17-39.06h-8.7v12.49h8.7c4.05,0,6.71-2.59,6.71-6.25s-2.66-6.25-6.71-6.25Z"/><path class="cls-2" d="m119.12,188.73c-3.32,3.32-7.37,5.18-12.76,5.18s-9.5-1.86-12.82-5.18c-4.78-4.78-4.65-10.7-4.65-18.87s-.13-14.08,4.65-18.87c3.32-3.32,7.44-5.18,12.82-5.18s9.43,1.86,12.76,5.18c4.78,4.78,4.72,10.7,4.72,18.87s.07,14.08-4.72,18.87Zm-6.84-32.16c-1.33-1.53-3.39-2.52-5.91-2.52s-4.65,1-5.98,2.52c-1.79,1.99-2.26,4.19-2.26,13.29s.46,11.29,2.26,13.29c1.33,1.53,3.46,2.52,5.98,2.52s4.58-1,5.91-2.52c1.79-1.99,2.33-4.19,2.33-13.29s-.53-11.29-2.33-13.29Z"/><path class="cls-2" d="m162.83,188.99c-3.12,3.12-7.57,4.52-12.49,4.52h-17.07v-47.3h17.07c4.92,0,9.37,1.4,12.49,4.52,5.31,5.31,4.78,11.83,4.78,18.93s.53,14.02-4.78,19.33Zm-6.45-31.62c-1.59-1.93-3.72-2.92-6.91-2.92h-6.98v30.83h6.98c3.19,0,5.32-1,6.91-2.92,1.73-2.13,1.99-5.51,1.99-12.69s-.27-10.17-1.99-12.29Z"/><path class="cls-2" d="m193.71,193.91c-9.7,0-17.41-6.58-17.41-16.61v-31.09h9.24v30.76c0,5.45,3.19,8.7,8.17,8.7s8.24-3.26,8.24-8.7v-30.76h9.17v31.09c0,10.03-7.71,16.61-17.41,16.61Z"/><path class="cls-2" d="m248.92,193.51l-12.16-21.53-6.11,7.31v14.22h-9.23v-47.3h9.23v20.6l16.68-20.6h11.23l-15.68,18.8,16.81,28.5h-10.76Z"/><path class="cls-2" d="m283.66,154.45v39.06h-9.23v-39.06h-12.36v-8.24h33.95v8.24h-12.36Z"/><path class="cls-2" d="m321.59,174.11v19.4h-9.17v-19.4l-14.22-27.9h10.03l8.84,19.07,8.7-19.07h10.03l-14.22,27.9Z"/><path class="cls-2" d="m25.87,562.4l-10.28-17.96-7.11,8.53v9.43h-3.6v-33.73h3.6v19.38l15.73-19.38h4.41l-10.61,13.03,12.13,20.7h-4.26Z"/><path class="cls-2" d="m54.34,559.17c-2.27,2.27-5.26,3.51-8.62,3.51s-6.35-1.23-8.62-3.51c-3.17-3.17-3.17-6.49-3.17-13.65s0-10.47,3.17-13.65c2.27-2.27,5.26-3.51,8.62-3.51s6.35,1.23,8.62,3.51c3.17,3.17,3.17,6.49,3.17,13.65s0,10.47-3.17,13.65Zm-2.79-25.16c-1.47-1.52-3.6-2.42-5.83-2.42s-4.36.9-5.83,2.42c-2.13,2.18-2.37,4.45-2.37,11.51s.24,9.33,2.37,11.51c1.47,1.52,3.6,2.42,5.83,2.42s4.36-.9,5.83-2.42c2.13-2.18,2.37-4.45,2.37-11.51s-.24-9.33-2.37-11.51Z"/><path class="cls-2" d="m87.51,562.4l-17.91-27.05v27.05h-3.6v-33.73h3.41l17.91,26.96v-26.96h3.6v33.73h-3.41Z"/><path class="cls-2" d="m121.67,562.4l-10.28-17.96-7.11,8.53v9.43h-3.6v-33.73h3.6v19.38l15.73-19.38h4.41l-10.61,13.03,12.13,20.7h-4.26Z"/><path class="cls-2" d="m142.75,562.68c-6.82,0-11.75-4.69-11.75-11.42v-22.6h3.6v22.31c0,5.12,3.22,8.48,8.15,8.48s8.2-3.36,8.2-8.48v-22.31h3.6v22.6c0,6.73-4.97,11.42-11.8,11.42Z"/><path class="cls-2" d="m183.21,562.4l-7.68-14.97h-8.1v14.97h-3.6v-33.73h12.93c5.88,0,10,3.55,10,9.38,0,4.93-2.99,8.15-7.34,9.05l8.01,15.3h-4.22Zm-6.78-30.51h-9v12.37h9c3.93,0,6.73-2.04,6.73-6.16s-2.79-6.21-6.73-6.21Z"/><path class="cls-2" d="m203.59,562.68c-5.07,0-8.39-1.28-11.56-4.45l2.46-2.46c2.8,2.79,5.4,3.7,9.19,3.7,4.93,0,7.96-2.32,7.96-6.25,0-1.75-.52-3.27-1.61-4.22-1.09-.95-1.94-1.23-4.41-1.61l-3.93-.62c-2.65-.43-4.74-1.28-6.21-2.56-1.71-1.52-2.56-3.6-2.56-6.3,0-5.73,4.12-9.52,10.8-9.52,4.31,0,7.15,1.09,10.04,3.7l-2.32,2.32c-2.08-1.9-4.31-2.89-7.87-2.89-4.5,0-7.11,2.51-7.11,6.25,0,1.66.47,2.98,1.52,3.88,1.04.9,2.79,1.56,4.55,1.85l3.7.57c3.17.47,4.74,1.14,6.16,2.37,1.85,1.56,2.84,3.89,2.84,6.68,0,5.92-4.64,9.57-11.66,9.57Z"/><path class="cls-2" d="m244.48,531.88v30.51h-3.6v-30.51h-9.76v-3.22h23.12v3.22h-9.76Z"/><path class="cls-2" d="m279.92,562.4l-7.68-14.97h-8.1v14.97h-3.6v-33.73h12.93c5.88,0,10,3.55,10,9.38,0,4.93-2.99,8.15-7.34,9.05l8.01,15.3h-4.22Zm-6.78-30.51h-9v12.37h9c3.93,0,6.73-2.04,6.73-6.16s-2.79-6.21-6.73-6.21Z"/><path class="cls-2" d="m317.82,562.4h-3.36l-7.49-27.01-7.49,27.01h-3.36l-8.62-33.73h3.84l6.59,27.2,7.44-27.2h3.22l7.44,27.2,6.58-27.2h3.84l-8.62,33.73Z"/><path class="cls-2" d="m351.22,562.4l-2.7-7.63h-14.74l-2.7,7.63h-3.84l12.41-33.73h3.03l12.37,33.73h-3.84Zm-10-28.57l-6.35,17.81h12.6l-6.25-17.81Z"/><path class="cls-2" d="m391.78,558.98c-2.37,2.37-5.26,3.7-9.1,3.7s-6.78-1.33-9.14-3.7c-3.41-3.41-3.32-7.63-3.32-13.46s-.09-10.04,3.32-13.46c2.37-2.37,5.31-3.7,9.14-3.7s6.73,1.33,9.1,3.7c3.41,3.41,3.36,7.63,3.36,13.46s.05,10.04-3.36,13.46Zm-4.88-22.93c-.95-1.09-2.42-1.8-4.22-1.8s-3.32.71-4.26,1.8c-1.28,1.42-1.61,2.98-1.61,9.48s.33,8.05,1.61,9.48c.95,1.09,2.46,1.8,4.26,1.8s3.27-.71,4.22-1.8c1.28-1.42,1.66-2.98,1.66-9.48s-.38-8.05-1.66-9.48Z"/><path class="cls-2" d="m422.95,559.17c-2.23,2.23-5.4,3.22-8.91,3.22h-12.18v-33.73h12.18c3.51,0,6.68.99,8.91,3.22,3.79,3.79,3.41,8.43,3.41,13.5s.38,10-3.41,13.79Zm-4.6-22.55c-1.14-1.37-2.65-2.08-4.93-2.08h-4.98v21.98h4.98c2.27,0,3.79-.71,4.93-2.08,1.23-1.52,1.42-3.93,1.42-9.05s-.19-7.25-1.42-8.77Z"/><path class="cls-2" d="m451.9,562.4v-27.1l-6.87,5.97v-6.63l6.87-5.97h6.16v33.73h-6.16Z"/><path class="cls-2" d="m468.67,562.4v-5.54l12.6-14.64c1.23-1.47,1.75-2.51,1.75-4.07,0-2.51-1.47-4.22-4.08-4.22-2.04,0-4.12,1.04-4.12,4.31h-6.16c0-6.16,4.5-9.85,10.28-9.85s10.23,3.74,10.23,9.81c0,3.27-1.28,5.02-3.6,7.72l-9.43,10.94h13.03v5.54h-20.52Z"/><path class="cls-2" d="m494.83,562.4v-7.01h7.06v7.01h-7.06Z"/><path class="cls-2" d="m516.86,562.4v-27.1l-6.87,5.97v-6.63l6.87-5.97h6.16v33.73h-6.16Z"/><path class="cls-2" d="m543.72,562.68c-5.5,0-10.28-3.6-10.28-10.04v-14.21c0-6.44,4.79-10.04,10.28-10.04s10.23,3.6,10.23,10.04v14.21c0,6.44-4.74,10.04-10.23,10.04Zm4.08-24.16c0-2.84-1.66-4.6-4.08-4.6s-4.12,1.75-4.12,4.6v14.07c0,2.84,1.71,4.55,4.12,4.55s4.08-1.71,4.08-4.55v-14.07Z"/><path class="cls-2" d="m592.57,559.17c-2.23,2.23-5.4,3.22-8.91,3.22h-12.18v-33.73h12.18c3.51,0,6.68.99,8.91,3.22,3.79,3.79,3.41,8.43,3.41,13.5s.38,10-3.41,13.79Zm-4.6-22.55c-1.14-1.37-2.65-2.08-4.93-2.08h-4.98v21.98h4.98c2.27,0,3.79-.71,4.93-2.08,1.23-1.52,1.42-3.93,1.42-9.05s-.19-7.25-1.42-8.77Z"/><path class="cls-2" d="m623.13,558.98c-2.37,2.37-5.26,3.7-9.1,3.7s-6.78-1.33-9.14-3.7c-3.41-3.41-3.32-7.63-3.32-13.46s-.09-10.04,3.32-13.46c2.37-2.37,5.31-3.7,9.14-3.7s6.73,1.33,9.1,3.7c3.41,3.41,3.36,7.63,3.36,13.46s.05,10.04-3.36,13.46Zm-4.88-22.93c-.95-1.09-2.42-1.8-4.22-1.8s-3.32.71-4.26,1.8c-1.28,1.42-1.61,2.98-1.61,9.48s.33,8.05,1.61,9.48c.95,1.09,2.46,1.8,4.26,1.8s3.27-.71,4.22-1.8c1.28-1.42,1.66-2.98,1.66-9.48s-.38-8.05-1.66-9.48Z"/><path class="cls-2" d="m643.08,562.4v-5.54l12.6-14.64c1.23-1.47,1.75-2.51,1.75-4.07,0-2.51-1.47-4.22-4.08-4.22-2.04,0-4.12,1.04-4.12,4.31h-6.16c0-6.16,4.5-9.85,10.28-9.85s10.23,3.74,10.23,9.81c0,3.27-1.28,5.02-3.6,7.72l-9.43,10.94h13.03v5.54h-20.52Z"/><path class="cls-2" d="m678.8,562.68c-5.97,0-10.52-3.74-10.52-10.42,0-3.08,1.33-5.92,2.84-9l7.11-14.59h6.73l-7.01,13.93c.81-.33,1.71-.43,2.51-.43,4.55,0,8.86,3.74,8.86,10,0,6.63-4.55,10.52-10.52,10.52Zm0-15.4c-2.51,0-4.36,1.8-4.36,4.93s1.85,4.93,4.36,4.93,4.36-1.8,4.36-4.93-1.75-4.93-4.36-4.93Z"/><path class="cls-2" d="m694.96,562.4v-7.01h7.06v7.01h-7.06Z"/><path class="cls-2" d="m716.99,562.4v-27.1l-6.87,5.97v-6.63l6.87-5.97h6.16v33.73h-6.16Z"/><path class="cls-2" d="m743.85,562.68c-5.5,0-10.28-3.6-10.28-10.04v-14.21c0-6.44,4.79-10.04,10.28-10.04s10.23,3.6,10.23,10.04v14.21c0,6.44-4.74,10.04-10.23,10.04Zm4.08-24.16c0-2.84-1.66-4.6-4.08-4.6s-4.12,1.75-4.12,4.6v14.07c0,2.84,1.71,4.55,4.12,4.55s4.08-1.71,4.08-4.55v-14.07Z"/><path class="cls-2" d="m759.91,562.4v-7.01h7.06v7.01h-7.06Z"/><path class="cls-2" d="m772.99,562.4v-5.54l12.6-14.64c1.23-1.47,1.75-2.51,1.75-4.07,0-2.51-1.47-4.22-4.08-4.22-2.04,0-4.12,1.04-4.12,4.31h-6.16c0-6.16,4.5-9.85,10.28-9.85s10.23,3.74,10.23,9.81c0,3.27-1.28,5.02-3.6,7.72l-9.43,10.94h13.03v5.54h-20.52Z"/><path class="cls-2" d="m808.81,562.68c-5.5,0-10.28-3.6-10.28-10.04v-14.21c0-6.44,4.79-10.04,10.28-10.04s10.23,3.6,10.23,10.04v14.21c0,6.44-4.74,10.04-10.23,10.04Zm4.08-24.16c0-2.84-1.66-4.6-4.08-4.6s-4.12,1.75-4.12,4.6v14.07c0,2.84,1.71,4.55,4.12,4.55s4.08-1.71,4.08-4.55v-14.07Z"/><path class="cls-2" d="m824.44,562.4v-5.54l12.6-14.64c1.23-1.47,1.75-2.51,1.75-4.07,0-2.51-1.47-4.22-4.08-4.22-2.04,0-4.12,1.04-4.12,4.31h-6.16c0-6.16,4.5-9.85,10.28-9.85s10.23,3.74,10.23,9.81c0,3.27-1.28,5.02-3.6,7.72l-9.43,10.94h13.03v5.54h-20.52Z"/><path class="cls-2" d="m860.12,562.68c-5.5,0-10.66-2.89-10.75-9.95h6.16c.09,3.03,2.18,4.41,4.6,4.41,2.65,0,4.55-1.66,4.55-4.69,0-2.79-1.71-4.64-4.74-4.64h-.9v-5.35h.9c2.98,0,4.26-1.85,4.26-4.22,0-2.84-1.9-4.31-4.12-4.31s-4.03,1.52-4.17,4.07h-6.16c.14-6.02,4.64-9.62,10.33-9.62,5.97,0,10.28,3.98,10.28,9.67,0,3.65-1.66,5.73-3.88,6.92,2.42,1.28,4.36,3.6,4.36,7.68,0,6.73-4.93,10.04-10.71,10.04Z"/><path class="cls-2" d="m24.02,616.03c-2.27,2.27-5.26,3.51-8.62,3.51s-6.35-1.23-8.62-3.51c-3.17-3.17-3.17-6.49-3.17-13.65s0-10.47,3.17-13.65c2.27-2.27,5.26-3.51,8.62-3.51s6.35,1.23,8.62,3.51c3.17,3.17,3.17,6.49,3.17,13.65s0,10.47-3.17,13.65Zm-2.79-25.16c-1.47-1.52-3.6-2.42-5.83-2.42s-4.36.9-5.83,2.42c-2.13,2.18-2.37,4.45-2.37,11.51s.24,9.33,2.37,11.51c1.47,1.52,3.6,2.42,5.83,2.42s4.36-.9,5.83-2.42c2.13-2.18,2.37-4.45,2.37-11.51s-.24-9.33-2.37-11.51Z"/><path class="cls-2" d="m55.05,619.25l-7.68-14.97h-8.1v14.97h-3.6v-33.73h12.93c5.88,0,10,3.55,10,9.38,0,4.93-2.99,8.15-7.34,9.05l8.01,15.3h-4.22Zm-6.78-30.51h-9v12.37h9c3.93,0,6.73-2.04,6.73-6.16s-2.79-6.21-6.73-6.21Z"/><path class="cls-2" d="m86.28,615.65c-2.37,2.56-5.54,3.88-9,3.88s-6.35-1.23-8.62-3.51c-3.17-3.17-3.17-6.49-3.17-13.65s0-10.47,3.17-13.65c2.27-2.27,5.26-3.51,8.62-3.51,6.44,0,10.8,4.17,11.8,10.09h-3.6c-.95-4.26-3.98-6.87-8.2-6.87-2.23,0-4.36.9-5.83,2.42-2.13,2.18-2.37,4.45-2.37,11.51s.24,9.38,2.37,11.56c1.47,1.52,3.6,2.37,5.83,2.37,2.46,0,4.83-1,6.4-2.89,1.37-1.66,1.9-3.51,1.9-6.11v-2.56h-8.29v-3.17h11.89v5.35c0,3.88-.81,6.49-2.89,8.72Z"/><path class="cls-2" d="m116.74,619.25l-2.7-7.63h-14.74l-2.7,7.63h-3.84l12.41-33.73h3.03l12.37,33.73h-3.84Zm-10-28.57l-6.35,17.81h12.6l-6.25-17.81Z"/><path class="cls-2" d="m147.54,619.25l-17.91-27.05v27.05h-3.6v-33.73h3.41l17.91,26.96v-26.96h3.6v33.73h-3.41Z"/><path class="cls-2" d="m160.71,619.25v-33.73h3.6v33.73h-3.6Z"/><path class="cls-2" d="m171.89,619.25v-3.41l16.87-27.1h-16.2v-3.22h20.28v3.03l-17.01,27.48h17.01v3.22h-20.94Z"/><path class="cls-2" d="m220.08,619.25l-2.7-7.63h-14.74l-2.7,7.63h-3.84l12.41-33.73h3.03l12.37,33.73h-3.84Zm-10-28.57l-6.35,17.81h12.6l-6.25-17.81Z"/><path class="cls-2" d="m236.42,588.74v30.51h-3.6v-30.51h-9.76v-3.22h23.12v3.22h-9.76Z"/><path class="cls-2" d="m270.68,616.03c-2.27,2.27-5.26,3.51-8.62,3.51s-6.35-1.23-8.62-3.51c-3.17-3.17-3.17-6.49-3.17-13.65s0-10.47,3.17-13.65c2.27-2.27,5.26-3.51,8.62-3.51s6.35,1.23,8.62,3.51c3.17,3.17,3.17,6.49,3.17,13.65s0,10.47-3.17,13.65Zm-2.79-25.16c-1.47-1.52-3.6-2.42-5.83-2.42s-4.36.9-5.83,2.42c-2.13,2.18-2.37,4.45-2.37,11.51s.24,9.33,2.37,11.51c1.47,1.52,3.6,2.42,5.83,2.42s4.36-.9,5.83-2.42c2.13-2.18,2.37-4.45,2.37-11.51s-.24-9.33-2.37-11.51Z"/><path class="cls-2" d="m301.71,619.25l-7.68-14.97h-8.1v14.97h-3.6v-33.73h12.93c5.88,0,10,3.55,10,9.38,0,4.93-2.99,8.15-7.34,9.05l8.01,15.3h-4.22Zm-6.78-30.51h-9v12.37h9c3.93,0,6.73-2.04,6.73-6.16s-2.79-6.21-6.73-6.21Z"/><path class="cls-2" d="m313.98,604.99v-4.45h4.45v4.45h-4.45Zm0,14.26v-4.45h4.45v4.45h-4.45Z"/><path class="cls-2" d="m358.8,615.65c-2.37,2.56-5.54,3.88-9,3.88s-6.35-1.23-8.62-3.51c-3.17-3.17-3.17-6.49-3.17-13.65s0-10.47,3.17-13.65c2.27-2.27,5.26-3.51,8.62-3.51,6.44,0,10.8,4.17,11.8,10.09h-3.6c-.95-4.26-3.98-6.87-8.2-6.87-2.23,0-4.36.9-5.83,2.42-2.13,2.18-2.37,4.45-2.37,11.51s.24,9.38,2.37,11.56c1.47,1.52,3.6,2.37,5.83,2.37,2.46,0,4.83-1,6.4-2.89,1.37-1.66,1.9-3.51,1.9-6.11v-2.56h-8.29v-3.17h11.89v5.35c0,3.88-.81,6.49-2.89,8.72Z"/><path class="cls-2" d="m389.46,619.25l-7.68-14.97h-8.1v14.97h-3.6v-33.73h12.93c5.88,0,10,3.55,10,9.38,0,4.93-2.99,8.15-7.34,9.05l8.01,15.3h-4.22Zm-6.78-30.51h-9v12.37h9c3.93,0,6.73-2.04,6.73-6.16s-2.79-6.21-6.73-6.21Z"/><path class="cls-2" d="m420.3,616.03c-2.27,2.27-5.26,3.51-8.62,3.51s-6.35-1.23-8.62-3.51c-3.17-3.17-3.17-6.49-3.17-13.65s0-10.47,3.17-13.65c2.27-2.27,5.26-3.51,8.62-3.51s6.35,1.23,8.62,3.51c3.17,3.17,3.17,6.49,3.17,13.65s0,10.47-3.17,13.65Zm-2.79-25.16c-1.47-1.52-3.6-2.42-5.83-2.42s-4.36.9-5.83,2.42c-2.13,2.18-2.37,4.45-2.37,11.51s.24,9.33,2.37,11.51c1.47,1.52,3.6,2.42,5.83,2.42s4.36-.9,5.83-2.42c2.13-2.18,2.37-4.45,2.37-11.51s-.24-9.33-2.37-11.51Z"/><path class="cls-2" d="m457.68,619.25h-3.36l-7.49-27.01-7.49,27.01h-3.36l-8.62-33.73h3.84l6.59,27.2,7.44-27.2h3.22l7.44,27.2,6.58-27.2h3.84l-8.62,33.73Z"/><path class="cls-2" d="m481.84,588.74v30.51h-3.6v-30.51h-9.76v-3.22h23.12v3.22h-9.76Z"/><path class="cls-2" d="m517.52,619.25v-15.4h-16.01v15.4h-3.6v-33.73h3.6v15.11h16.01v-15.11h3.6v33.73h-3.6Z"/><path class="cls-2" d="m562.77,616.12c-2.04,2.04-5.02,3.13-8.53,3.13h-11.56v-33.73h11.56c3.51,0,6.49,1.09,8.53,3.13,3.51,3.51,3.32,8.67,3.32,13.36s.19,10.61-3.32,14.12Zm-2.51-24.92c-1.75-1.8-4.03-2.46-6.63-2.46h-7.34v27.29h7.34c2.61,0,4.88-.66,6.63-2.46,2.32-2.42,2.23-7.44,2.23-11.56s.09-8.39-2.23-10.8Z"/><path class="cls-2" d="m574.57,619.25v-33.73h20.94v3.22h-17.34v11.89h14.78v3.22h-14.78v12.18h17.34v3.22h-20.94Z"/><path class="cls-2" d="m611.66,619.53c-5.07,0-8.39-1.28-11.56-4.45l2.46-2.46c2.8,2.79,5.4,3.7,9.19,3.7,4.93,0,7.96-2.32,7.96-6.25,0-1.75-.52-3.27-1.61-4.22-1.09-.95-1.94-1.23-4.41-1.61l-3.93-.62c-2.65-.43-4.74-1.28-6.21-2.56-1.71-1.52-2.56-3.6-2.56-6.3,0-5.73,4.12-9.52,10.8-9.52,4.31,0,7.15,1.09,10.04,3.7l-2.32,2.32c-2.08-1.9-4.31-2.89-7.87-2.89-4.5,0-7.11,2.51-7.11,6.25,0,1.66.47,2.98,1.52,3.88,1.04.9,2.79,1.56,4.55,1.85l3.7.57c3.17.47,4.74,1.14,6.16,2.37,1.85,1.56,2.84,3.89,2.84,6.68,0,5.92-4.64,9.57-11.66,9.57Z"/><path class="cls-2" d="m630.85,619.25v-33.73h3.6v33.73h-3.6Z"/><path class="cls-2" d="m663.73,615.65c-2.37,2.56-5.54,3.88-9,3.88s-6.35-1.23-8.62-3.51c-3.17-3.17-3.17-6.49-3.17-13.65s0-10.47,3.17-13.65c2.27-2.27,5.26-3.51,8.62-3.51,6.44,0,10.8,4.17,11.8,10.09h-3.6c-.95-4.26-3.98-6.87-8.2-6.87-2.23,0-4.36.9-5.83,2.42-2.13,2.18-2.37,4.45-2.37,11.51s.24,9.38,2.37,11.56c1.47,1.52,3.6,2.37,5.83,2.37,2.46,0,4.83-1,6.4-2.89,1.37-1.66,1.9-3.51,1.9-6.11v-2.56h-8.29v-3.17h11.89v5.35c0,3.88-.81,6.49-2.89,8.72Z"/><path class="cls-2" d="m696.52,619.25l-17.91-27.05v27.05h-3.6v-33.73h3.41l17.91,26.96v-26.96h3.6v33.73h-3.41Z"/><path class="cls-2" d="m730.16,619.53c-5.07,0-8.39-1.28-11.56-4.45l2.46-2.46c2.8,2.79,5.4,3.7,9.19,3.7,4.93,0,7.96-2.32,7.96-6.25,0-1.75-.52-3.27-1.61-4.22-1.09-.95-1.94-1.23-4.41-1.61l-3.93-.62c-2.65-.43-4.74-1.28-6.21-2.56-1.71-1.52-2.56-3.6-2.56-6.3,0-5.73,4.12-9.52,10.8-9.52,4.31,0,7.15,1.09,10.04,3.7l-2.32,2.32c-2.08-1.9-4.31-2.89-7.87-2.89-4.5,0-7.11,2.51-7.11,6.25,0,1.66.47,2.98,1.52,3.88,1.04.9,2.79,1.56,4.55,1.85l3.7.57c3.17.47,4.74,1.14,6.16,2.37,1.85,1.56,2.84,3.89,2.84,6.68,0,5.92-4.64,9.57-11.66,9.57Z"/><path class="cls-2" d="m759.25,588.74v30.51h-3.6v-30.51h-9.76v-3.22h23.12v3.22h-9.76Z"/><path class="cls-2" d="m786.59,619.53c-6.82,0-11.75-4.69-11.75-11.42v-22.6h3.6v22.31c0,5.12,3.22,8.48,8.15,8.48s8.2-3.36,8.2-8.48v-22.31h3.6v22.6c0,6.73-4.97,11.42-11.8,11.42Z"/><path class="cls-2" d="m827.76,616.12c-2.04,2.04-5.02,3.13-8.53,3.13h-11.56v-33.73h11.56c3.51,0,6.49,1.09,8.53,3.13,3.51,3.51,3.32,8.67,3.32,13.36s.19,10.61-3.32,14.12Zm-2.51-24.92c-1.75-1.8-4.03-2.46-6.63-2.46h-7.34v27.29h7.34c2.61,0,4.88-.66,6.63-2.46,2.32-2.42,2.23-7.44,2.23-11.56s.09-8.39-2.23-10.8Z"/><path class="cls-2" d="m839.56,619.25v-33.73h3.6v33.73h-3.6Z"/><path class="cls-2" d="m872.06,616.03c-2.27,2.27-5.26,3.51-8.62,3.51s-6.35-1.23-8.62-3.51c-3.17-3.17-3.17-6.49-3.17-13.65s0-10.47,3.17-13.65c2.27-2.27,5.26-3.51,8.62-3.51s6.35,1.23,8.62,3.51c3.17,3.17,3.17,6.49,3.17,13.65s0,10.47-3.17,13.65Zm-2.79-25.16c-1.47-1.52-3.6-2.42-5.83-2.42s-4.36.9-5.83,2.42c-2.13,2.18-2.37,4.45-2.37,11.51s.24,9.33,2.37,11.51c1.47,1.52,3.6,2.42,5.83,2.42s4.36-.9,5.83-2.42c2.13-2.18,2.37-4.45,2.37-11.51s-.24-9.33-2.37-11.51Z"/><g id="Layer_2"><g id="Layer_1-2"><path class="cls-1" d="m470.16,144.97c0-.58,25.21-78.78,25.21-78.8,2.68-8.43,4.66-17.06,5.91-25.82-8.43,10.51-15.82,21.81-22.07,33.74-4.16,7.68-8.05,14.92-12.11,22.51-4.64,8.32-9.17,16.25-13.79,24.51-8.15,14.56-16.25,28.19-16.25,28.19,10.7-3.35,21.91-4.83,33.12-4.37l-.02.04Zm461.46,22.74c19.12-9.24,31.81-24.96,31.58-40.98-.27-5.24-3.58-8.55-9.24-8.76-12.48.17-25.48,20.14-25.19,38.8-.11,3.84.88,7.64,2.85,10.94Zm-79.05-48.2c-3.04,0-6.45.19-9.74.52l-8.11,23.4c-3.7,10.65-5.91,19.95-5.97,23.74.42,8.2,6.99,12.29,20.8,12.48,2.2.02,4.4-.08,6.59-.29v-1.19c0-4.81,1.66-13.21,4.68-22.38,4.16-12.07,8.09-23.71,12.15-36.09-6.76.21-13.56-.42-20.34-.21h0l-.06.02Zm-111.31,45.77c19.2-9.3,31.7-25.27,31.47-41.25.14-4.59-3.46-8.43-8.06-8.58-.39-.01-.79,0-1.18.05-12.48.4-25.4,20.66-25.13,39.07-.11,3.78.89,7.52,2.89,10.73v-.02Zm-179.67,16.79c-15.35,6.24-22.88,10.8-31.58,11.07-14.37.46-21.2-5.41-21.84-18.39-.02-7.19,1.12-14.33,3.37-21.16-7.76,1.54-15.68,2.15-23.59,1.83-1.37,3.93-2.79,7.49-4.01,11.21-3.18,10.4-3.7,13.38-3.66,17.22v1.08c0,.42.08.84.21,1.25l.29.87-.81.21c-11.32,2.79-14.56,3.66-26.13,7.18l-1.5.46.46-1.5c.31-1.04.71-1.98,1.04-3.02,2.25-5.53,5.33-14.56,7.82-22.26l3.2-9.88.94-3.02c-8.32-1.13-16.73-1.45-25.11-.96-1.78.13-3.54.37-5.28.73l-1.21.23c-20.1,34.76-32.58,41.31-66.13,43.56-4.01.25-8.04.06-12-.58l-.69-.12-.23-6.76,1.12.35c7.56,2.08,15.53,2.19,23.15.33,9.71-2.22,18.4-7.61,24.71-15.31,3.08-3.78,5.87-7.79,8.32-12,2.66-4.39,5.3-9.26,8.15-14.17,10.73-18.33,21.9-37.32,21.9-37.32,24.53-42.35,39.11-64.07,58.14-80.51,10.4-3.41,13-4.16,22.67-8.07l1.12-.46v1.23c.21,13.56-5.49,34.84-14.96,63.74-2.79,8.49-18.56,54.59-19.08,56.17,1.58-.17,5.05-.5,9.26-.69,5.22-.13,10.41-.89,15.46-2.25,1.46-4.16,3.14-8.65,5.1-13.71,10.4-26.46,22.12-52.37,35.11-77.66l2.54-4.53c17.14-33.45,24.53-6.57,24.96,8.8-.12,55.15-12.86,60.91-49.47,91.53-11.82,41.02,10.19,37.78,29.16,32.49,7.28-20.8,14.56-41.31,22.18-63.09,11.15-2.75,14.25-3.58,25.82-7.3-5.18,11.03-6.8,14.17-11.75,26.36,17.81-17.1,36.97-27.85,48.91-28.44,4.51-.29,8.39,3.13,8.68,7.63,0,.09.01.18.01.27,0,2.41-.85,5.85-3.52,11.25-1.5,3.2-2.83,6.24-4.35,9.34,20.41-18.93,37.22-27.77,50.2-28.4,6.24,0,10.13,2.79,10.03,7.68-.39,3.11-1.14,6.16-2.23,9.09-4.04,10.4-7.68,20.22-11.65,30.5-3.37,8.32-3.77,10.01-3.7,13.08.21,6.41,4.97,9.19,14.56,9.24,2.95-.05,5.88-.57,8.67-1.54-.9-2.61-1.41-5.33-1.52-8.09.56-28.58,36.53-59,71.66-60.1,9.22.19,15.46,5.22,15.73,13.17,0,17.33-22.88,36.88-57.5,47.33,8.55,8.32,19.72,12.23,37.3,12.27,8.24-.45,16.42-1.74,24.4-3.85.68-6.94,2.22-13.77,4.6-20.32,4.16-12.17,8.09-23.71,12.15-36.09-6.82.33-7.41.42-14.25.75,3.1-4.95,3.87-6.41,6.74-10.96,5.39.21,7.38.23,10.98.19,4.06-11.67,7.61-22.88,11.71-34.68,10.51-1.62,13.42-2.08,23.92-4.39-4.72,13.63-9.28,26.5-13.92,39.88,7.11-.23,9.96.37,16.83.19,1.23-.15,9.26-.35,12.94-.17,4.16-11.79,7.78-23.11,11.88-34.93,10.51-1.62,13.4-2.08,23.94-4.16-4.89,13.31-9.28,26.29-13.94,39.69,7.32-.23,9.19-.44,16.54-.56l-2.58,5.33c-1.12,2.08-2.23,4.16-3.35,6.39-6.24-.92-7.84-.81-14.17-1.29l-8.11,23.38c-3.54,10.8-6.05,20.01-5.99,23.8.42,8.32,6.99,12.48,20.8,12.77,1.41,0,3.16,0,5.14-.21-1.82-3.59-2.79-7.56-2.83-11.59.56-29.12,36.53-59.04,71.81-58.91,9.22.19,15.48,5.68,15.73,13.5-.19,17.37-23.38,36.09-57.79,46.49,8.32,8.74,19.76,13.02,37.44,13.38,7,.22,13.99-.48,20.8-2.08.25.73.58,1.44.83,2.08-23.78,6.74-44.48,10.21-58.25,9.92-12.25-.25-20.8-3.62-25.77-9.84-2.08.56-3.99,1.08-5.97,1.68-21.11,5.6-26.17,6.53-32.97,6.51s-11.19-3.31-12.71-9.09c-2.08.56-3.97,1.12-5.97,1.71-21.01,5.55-26.13,6.7-32.93,6.68-8.15-.17-12.81-4.49-13.27-12.61-23.49,7.05-47.1,11.96-60.81,11.92-14.67,0-24.03-4.41-28.19-12.92l-2.08.81c-21.49,8.61-32.68,12.23-38.63,12.48-5.5.24-10.15-4.02-10.4-9.51,0-.05,0-.09,0-.14-.17-3.18.94-6.78,3.14-13.5,3.43-9.36,6.57-18.72,10.05-28.15,0-.27.5-1.52,1-3.45.4-1.04.73-2.1,1-3.18.29-.94.45-1.92.48-2.91-.23-3.33-3.27-5.01-8.92-4.93-10.59.52-19.6,12.25-33.28,44.12-2.35,5.51-4.74,10.71-7.07,16.12-7.93,1.4-15.74,3.44-23.34,6.1,5.87-16.02,11.21-31.43,17.25-47.85.25-1.37.77-2.48,1.54-5.18.23-1.33.6-2.41.94-3.85.26-1.13.42-2.28.5-3.43-.21-2.93-3.02-4.41-9.19-4.33-10.59.52-19.74,12.88-30.85,41.6-2.43,6.24-4.81,12.19-7.26,18.51-7.49,1.06-14.88,2.81-22.05,5.22l3.37-9.69-.08.06Zm-25.82-45.29c8.18-3.62,19.91-8.76,24.42-21.76,5.99-18.29,8.55-30.7,8.63-61.33-11.77,25.09-13.5,27.04-22.88,54.31-5.97,16.27-2.52,6.24-5.74,16.14-.83,2.7-1.68,5.01-4.33,12.65l-.1-.02Z"/></g></g><path class="cls-2" d="m40.62,73.22l-20.78,25.17v23.59h-6.6V34.97h6.6v54.38l44.12-54.38h7.94l-26.89,33.24,31.41,53.77h-7.82l-27.99-48.76Z"/><path class="cls-2" d="m120.67,122.71c-17.48,0-29.82-11.98-29.82-28.96v-58.78h6.6v57.93c0,14.42,9.17,23.95,23.22,23.95s23.22-9.53,23.22-23.95v-57.93h6.6v58.78c0,16.99-12.34,28.96-29.82,28.96Z"/><path class="cls-2" d="m208.04,85.07h-25.3v36.91h-6.6V34.97h31.9c15.03,0,26.27,9.04,26.27,25.05s-11.24,25.05-26.27,25.05Zm-.73-44.24h-24.56v38.37h24.56c12.1,0,20.41-6.11,20.41-19.19s-8.31-19.19-20.41-19.19Z"/><path class="cls-2" d="m278.9,121.98v-14.57l33.12-38.47c3.24-3.86,4.61-6.6,4.61-10.71,0-6.6-3.86-11.08-10.71-11.08-5.35,0-10.83,2.74-10.83,11.33h-16.18c0-16.18,11.83-25.9,27.02-25.9s26.89,9.84,26.89,25.77c0,8.59-3.36,13.2-9.46,20.29l-24.77,28.76h34.24v14.57h-53.91Z"/><path class="cls-2" d="m7.12,377.67v-61.04h11.92v61.04H7.12Z"/><path class="cls-2" d="m90.09,371.5c-4.29,4.29-9.52,6.69-16.46,6.69s-12.26-2.4-16.54-6.69c-6.17-6.17-6-13.8-6-24.35s-.17-18.17,6-24.35c4.29-4.29,9.6-6.69,16.54-6.69s12.17,2.4,16.46,6.69c6.17,6.17,6.09,13.8,6.09,24.35s.09,18.17-6.09,24.35Zm-8.83-41.49c-1.71-1.97-4.37-3.26-7.63-3.26s-6,1.29-7.72,3.26c-2.31,2.57-2.91,5.4-2.91,17.15s.6,14.57,2.91,17.14c1.71,1.97,4.46,3.26,7.72,3.26s5.91-1.29,7.63-3.26c2.31-2.57,3-5.4,3-17.14s-.69-14.57-3-17.15Z"/><path class="cls-2" d="m132,354.7h-11.74v22.97h-11.92v-61.04h23.66c12.6,0,20.15,8.66,20.15,19.03s-7.54,19.03-20.15,19.03Zm-.6-27.43h-11.14v16.72h11.14c5.4,0,8.83-3.34,8.83-8.32s-3.43-8.4-8.83-8.4Z"/><path class="cls-2" d="m162.17,377.67v-61.04h11.92v61.04h-11.92Z"/><path class="cls-2" d="m205.12,378.19c-9.26,0-16.29-1.97-22.29-8.06l7.71-7.72c3.86,3.86,9.09,5.14,14.75,5.14,7.03,0,10.8-2.66,10.8-7.54,0-2.14-.6-3.94-1.89-5.14-1.2-1.11-2.57-1.71-5.4-2.14l-7.37-1.03c-5.23-.77-9.09-2.4-11.83-5.06-2.92-2.91-4.37-6.86-4.37-12,0-10.89,8.06-18.52,21.26-18.52,8.4,0,14.49,2.06,19.72,7.12l-7.54,7.46c-3.86-3.69-8.49-4.2-12.52-4.2-6.34,0-9.43,3.51-9.43,7.72,0,1.54.51,3.17,1.8,4.37,1.2,1.11,3.17,2.06,5.66,2.4l7.2,1.03c5.57.77,9.09,2.31,11.66,4.71,3.26,3.09,4.71,7.54,4.71,12.94,0,11.83-9.86,18.52-22.63,18.52Z"/><path class="cls-2" d="m235.29,377.67v-9.6l26.06-40.8h-24.95v-10.63h39v9.43l-26.15,40.98h26.15v10.63h-40.12Z"/><path class="cls-2" d="m341.32,377.67l-15.69-27.77-7.89,9.43v18.34h-11.92v-61.04h11.92v26.57l21.52-26.57h14.49l-20.23,24.26,21.69,36.78h-13.89Z"/><path class="cls-2" d="m384.35,378.19c-12.52,0-22.46-8.49-22.46-21.43v-40.12h11.92v39.69c0,7.03,4.11,11.23,10.54,11.23s10.63-4.2,10.63-11.23v-39.69h11.83v40.12c0,12.94-9.94,21.43-22.46,21.43Z"/><path class="cls-2" d="m440.49,378.19c-6.52,0-12-2.23-16.46-6.69-2.66-2.66-4.29-5.74-4.97-9.17-.69-3.43-1.03-8.49-1.03-15.17s.34-11.74,1.03-15.17c.69-3.51,2.32-6.52,4.97-9.17,4.46-4.46,9.94-6.69,16.46-6.69,11.74,0,20.4,6.86,22.46,19.29h-12.09c-1.29-5.23-4.54-8.66-10.29-8.66-3.26,0-5.83,1.03-7.63,3.17-2.49,2.66-3,5.4-3,17.23s.51,14.57,3,17.23c1.8,2.14,4.37,3.17,7.63,3.17,5.74,0,9-3.43,10.29-8.66h12.09c-2.06,12.43-10.8,19.29-22.46,19.29Z"/><path class="cls-2" d="m505.81,377.67v-25.55h-20.66v25.55h-11.92v-61.04h11.92v24.95h20.66v-24.95h11.92v61.04h-11.92Z"/><path class="cls-2" d="m568.04,377.67l-24.17-37.46v37.46h-11.92v-61.04h10.63l24.17,37.38v-37.38h11.92v61.04h-10.63Z"/><path class="cls-2" d="m592.89,377.67v-61.04h11.92v61.04h-11.92Z"/><path class="cls-2" d="m619.04,377.67v-61.04h40.2v10.63h-28.29v14.32h24.09v10.63h-24.09v14.83h28.29v10.63h-7.29c-2.74,1.29-4.12,3.09-4.12,5.23,0,1.37.86,2.06,2.57,2.06,1.11,0,2.23-.43,3.34-1.29l3.86,7.54c-3,1.89-5.91,2.83-8.66,2.83-3.17-.09-5.91-1.11-8.06-3.09-2.14-1.97-3.17-4.29-3.09-6.94,0-2.06.69-4.2,2.06-6.34h-20.83Z"/><path class="cls-2" d="m707.58,378.19c-9.26,0-16.29-1.97-22.29-8.06l7.71-7.72c3.86,3.86,9.09,5.14,14.75,5.14,7.03,0,10.8-2.66,10.8-7.54,0-2.14-.6-3.94-1.89-5.14-1.2-1.11-2.57-1.71-5.4-2.14l-7.37-1.03c-5.23-.77-9.09-2.4-11.83-5.06-2.92-2.91-4.37-6.86-4.37-12,0-10.89,8.06-18.52,21.26-18.52,8.4,0,14.49,2.06,19.72,7.12l-7.54,7.46c-3.86-3.69-8.49-4.2-12.52-4.2-6.34,0-9.43,3.51-9.43,7.72,0,1.54.51,3.17,1.8,4.37,1.2,1.11,3.17,2.06,5.66,2.4l7.2,1.03c5.57.77,9.09,2.31,11.66,4.71,3.26,3.09,4.71,7.54,4.71,12.94,0,11.83-9.86,18.52-22.63,18.52Z"/><path class="cls-2" d="m793.47,377.67h-9.94l-11.23-37.03-11.23,37.03h-9.94l-16.29-61.04h12.43l9.43,38.49,11.14-38.49h8.92l11.14,38.49,9.52-38.49h12.43l-16.37,61.04Z"/><path class="cls-2" d="m853.56,371.5c-4.29,4.29-9.52,6.69-16.46,6.69s-12.26-2.4-16.54-6.69c-6.17-6.17-6-13.8-6-24.35s-.17-18.17,6-24.35c4.29-4.29,9.6-6.69,16.54-6.69s12.17,2.4,16.46,6.69c6.17,6.17,6.09,13.8,6.09,24.35s.09,18.17-6.09,24.35Zm-8.83-41.49c-1.71-1.97-4.37-3.26-7.63-3.26s-6,1.29-7.72,3.26c-2.31,2.57-2.91,5.4-2.91,17.15s.6,14.57,2.91,17.14c1.71,1.97,4.46,3.26,7.72,3.26s5.91-1.29,7.63-3.26c2.31-2.57,3-5.4,3-17.14s-.69-14.57-3-17.15Z"/><path class="cls-2" d="m871.81,377.67v-61.04h11.92v61.04h-11.92Z"/><path class="cls-2" d="m918.36,378.19c-6.52,0-12-2.23-16.46-6.69-2.66-2.66-4.29-5.74-4.97-9.17-.69-3.43-1.03-8.49-1.03-15.17s.34-11.74,1.03-15.17c.69-3.51,2.32-6.52,4.97-9.17,4.46-4.46,9.94-6.69,16.46-6.69,11.74,0,20.4,6.86,22.46,19.29h-12.09c-1.29-5.23-4.54-8.66-10.29-8.66-3.26,0-5.83,1.03-7.63,3.17-2.49,2.66-3,5.4-3,17.23s.51,14.57,3,17.23c1.8,2.14,4.37,3.17,7.63,3.17,5.74,0,9-3.43,10.29-8.66h12.09c-2.06,12.43-10.8,19.29-22.46,19.29Z"/><path class="cls-2" d="m983.67,377.67v-25.55h-20.66v25.55h-11.92v-61.04h11.92v24.95h20.66v-24.95h11.92v61.04h-11.92Z"/><path class="cls-2" d="m50.49,470.07v-35.58l-11.66,23.15h-8.06l-11.74-23.15v35.58H7.12v-61.04h11.74l15.94,33,15.86-33h11.74v61.04h-11.92Z"/><path class="cls-2" d="m111.35,470.07l-3.6-10.8h-21.69l-3.69,10.8h-12.43l22.2-61.04h9.34l22.29,61.04h-12.43Zm-14.23-43.03l-7.72,22.2h15.17l-7.46-22.2Z"/><path class="cls-2" d="m163.72,470.07l-11.92-24.35h-8.57v24.35h-11.92v-61.04h23.92c12.43,0,19.8,8.49,19.8,18.69,0,8.57-5.23,13.89-11.14,16.03l13.63,26.32h-13.8Zm-9.26-50.41h-11.23v16.12h11.23c5.23,0,8.66-3.34,8.66-8.06s-3.43-8.06-8.66-8.06Z"/><path class="cls-2" d="m183.69,470.07v-9.6l26.06-40.8h-24.95v-10.63h39v9.43l-26.15,40.98h26.15v10.63h-40.12Z"/><path class="cls-2" d="m234.34,470.07v-61.04h40.2v10.63h-28.29v14.32h24.09v10.63h-24.09v14.83h28.29v10.63h-40.2Z"/><path class="cls-2" d="m332.92,470.07h-10.63l-24.17-37.46v37.46h-11.92v-61.04h10.63l24.17,37.38v-37.38h11.92v61.04Zm-12.86-81.52l-9.77,14.57h-7.46l5.49-14.57h11.74Z"/><path class="cls-2" d="m360.61,450.96h-8.23l-2.74-41.92h13.8l-2.83,41.92Zm-10.46,19.12v-12.69h12.77v12.69h-12.77Z"/><rect class="cls-3" x="6.37" y="210.9" width="995.87" height="82.88" rx="31.66" ry="31.66"/><path class="cls-4" d="m62.01,272.29h-6.06l-6.84-22.56-6.84,22.56h-6.06l-9.92-37.19h7.57l5.75,23.45,6.79-23.45h5.43l6.79,23.45,5.8-23.45h7.57l-9.98,37.19Z"/><path class="cls-4" d="m90.85,257.04v15.25h-7.21v-15.25l-11.18-21.94h7.89l6.95,14.99,6.84-14.99h7.89l-11.18,21.94Z"/><path class="cls-4" d="m120.93,258.29h-7.16v14h-7.26v-37.19h14.42c7.68,0,12.27,5.28,12.27,11.6s-4.6,11.6-12.27,11.6Zm-.37-16.71h-6.79v10.19h6.79c3.29,0,5.38-2.04,5.38-5.07s-2.09-5.12-5.38-5.12Z"/><path class="cls-4" d="m139.32,272.29v-37.19h24.5v6.48h-17.24v8.72h14.68v6.48h-14.68v9.04h17.24v6.48h-24.5Z"/><path class="cls-4" d="m195.99,272.29h-24.13v-12.74l-3.24,1.88v-6.06l3.24-1.88v-18.39h7.26v13.84l6.69-4.23v6.01l-6.69,4.23v10.86h16.87v6.48Z"/><path class="cls-4" d="m223.88,272.29l-14.73-22.82v22.82h-7.26v-37.19h6.48l14.73,22.77v-22.77h7.26v37.19h-6.48Z"/><path class="cls-4" d="m239.03,272.29v-37.19h7.26v37.19h-7.26Z"/><path class="cls-4" d="m260.34,272.6c-4.02,0-6.79-1.04-9.56-3.81l4.81-4.75c1.2,1.2,2.35,2.09,4.75,2.09,3.55,0,5.85-2.09,5.85-6.37v-24.65h7.26v24.97c0,8.2-6.22,12.54-13.11,12.54Z"/><path class="cls-4" d="m301.03,241.58v9.14h14.68v6.48h-14.68v15.09h-7.26v-37.19h24.5v6.48h-17.24Z"/><path class="cls-4" d="m346.05,268.53c-2.61,2.61-5.8,4.07-10.03,4.07s-7.47-1.46-10.08-4.07c-3.76-3.76-3.66-8.41-3.66-14.83s-.1-11.07,3.66-14.83c2.61-2.61,5.85-4.07,10.08-4.07s7.42,1.46,10.03,4.07c3.76,3.76,3.71,8.41,3.71,14.83s.05,11.07-3.71,14.83Zm-5.38-25.28c-1.04-1.2-2.66-1.98-4.65-1.98s-3.66.78-4.7,1.98c-1.41,1.57-1.78,3.29-1.78,10.45s.37,8.88,1.78,10.45c1.04,1.2,2.72,1.98,4.7,1.98s3.6-.78,4.65-1.98c1.41-1.57,1.83-3.29,1.83-10.45s-.42-8.88-1.83-10.45Z"/><path class="cls-4" d="m376.92,272.29l-7.26-14.83h-5.22v14.83h-7.26v-37.19h14.57c7.57,0,12.07,5.17,12.07,11.39,0,5.22-3.19,8.46-6.79,9.77l8.3,16.03h-8.41Zm-5.64-30.71h-6.84v9.82h6.84c3.19,0,5.28-2.04,5.28-4.91s-2.09-4.91-5.28-4.91Z"/><path class="cls-4" d="m417.77,272.29v-21.68l-7.1,14.1h-4.91l-7.16-14.1v21.68h-7.26v-37.19h7.16l9.71,20.11,9.66-20.11h7.16v37.19h-7.26Z"/><path class="cls-4" d="m446.81,272.6c-7.63,0-13.68-5.17-13.68-13.06v-24.44h7.26v24.18c0,4.28,2.51,6.84,6.42,6.84s6.48-2.56,6.48-6.84v-24.18h7.21v24.44c0,7.89-6.06,13.06-13.68,13.06Z"/><path class="cls-4" d="m468.59,272.29v-37.19h7.26v30.71h16.87v6.48h-24.13Z"/><path class="cls-4" d="m519.78,272.29l-2.19-6.58h-13.21l-2.25,6.58h-7.57l13.53-37.19h5.69l13.58,37.19h-7.57Zm-8.67-26.22l-4.7,13.53h9.25l-4.54-13.53Z"/><path class="cls-4" d="m551.69,272.29l-7.26-14.83h-5.22v14.83h-7.26v-37.19h14.57c7.57,0,12.07,5.17,12.07,11.39,0,5.22-3.19,8.46-6.79,9.77l8.3,16.03h-8.41Zm-5.64-30.71h-6.84v9.82h6.84c3.19,0,5.28-2.04,5.28-4.91s-2.09-4.91-5.28-4.91Z"/><path class="cls-4" d="m563.86,272.29v-5.85l15.88-24.86h-15.2v-6.48h23.76v5.75l-15.93,24.97h15.93v6.48h-24.44Z"/><path class="cls-4" d="m604.61,272.29v-5.85l15.88-24.86h-15.2v-6.48h23.76v5.75l-15.93,24.97h15.93v6.48h-24.44Z"/><path class="cls-4" d="m658.4,268.37c-2.87,2.93-6.32,4.23-10.5,4.23s-7.31-1.36-10.03-4.07c-1.62-1.62-2.61-3.5-3.03-5.59-.42-2.09-.63-5.17-.63-9.25s.21-7.16.63-9.24c.42-2.14,1.41-3.97,3.03-5.59,2.72-2.72,6.06-4.07,10.03-4.07,8.46,0,13.01,5.43,14,11.91h-7.31c-.89-3.6-3.08-5.43-6.69-5.43-1.93,0-3.5.68-4.65,1.98-1.36,1.72-1.78,3.08-1.78,10.45s.31,8.77,1.78,10.5c1.1,1.31,2.66,1.93,4.65,1.93,2.14,0,3.87-.68,5.17-2.09,1.1-1.25,1.67-2.92,1.67-4.96v-1.41h-6.84v-6.06h14.05v5.43c0,5.43-.99,8.62-3.55,11.33Z"/><path class="cls-4" d="m693.82,272.29h-24.13v-12.74l-3.24,1.88v-6.06l3.24-1.88v-18.39h7.26v13.84l6.69-4.23v6.01l-6.69,4.23v10.86h16.87v6.48Z"/><path class="cls-4" d="m722.23,268.53c-2.61,2.61-5.8,4.07-10.03,4.07s-7.47-1.46-10.08-4.07c-3.76-3.76-3.66-8.41-3.66-14.83s-.1-11.07,3.66-14.83c2.61-2.61,5.85-4.07,10.08-4.07s7.42,1.46,10.03,4.07c3.76,3.76,3.71,8.41,3.71,14.83s.05,11.07-3.71,14.83Zm-5.38-25.28c-1.04-1.2-2.66-1.98-4.65-1.98s-3.66.78-4.7,1.98c-1.41,1.57-1.78,3.29-1.78,10.45s.37,8.88,1.78,10.45c1.04,1.2,2.72,1.98,4.7,1.98s3.6-.78,4.65-1.98c1.41-1.57,1.83-3.29,1.83-10.45s-.42-8.88-1.83-10.45Z"/><path class="cls-4" d="m743.59,272.6c-5.64,0-9.92-1.2-13.58-4.91l4.7-4.7c2.35,2.35,5.54,3.13,8.98,3.13,4.28,0,6.58-1.62,6.58-4.6,0-1.31-.37-2.4-1.15-3.13-.73-.68-1.57-1.04-3.29-1.31l-4.49-.63c-3.19-.47-5.54-1.46-7.21-3.08-1.78-1.78-2.66-4.18-2.66-7.31,0-6.63,4.91-11.28,12.95-11.28,5.12,0,8.83,1.25,12.01,4.34l-4.6,4.54c-2.35-2.25-5.17-2.56-7.63-2.56-3.87,0-5.75,2.14-5.75,4.7,0,.94.31,1.93,1.1,2.66.73.68,1.93,1.25,3.45,1.46l4.39.63c3.39.47,5.54,1.41,7.1,2.87,1.99,1.88,2.87,4.6,2.87,7.89,0,7.21-6.01,11.28-13.79,11.28Z"/><path class="cls-4" d="m761.98,272.29v-5.85l15.88-24.86h-15.2v-6.48h23.76v5.75l-15.93,24.97h15.93v6.48h-24.44Z"/><path class="cls-4" d="m792.85,272.29v-37.19h24.5v6.48h-17.24v8.72h14.68v6.48h-14.68v9.04h17.24v6.48h-24.5Z"/><path class="cls-4" d="m846.44,272.29l-14.73-22.82v22.82h-7.26v-37.19h6.48l14.73,22.77v-22.77h7.26v37.19h-6.48Z"/><path class="cls-4" d="m861.59,272.29v-37.19h7.26v37.19h-7.26Z"/><path class="cls-4" d="m900.03,268.53c-2.61,2.61-5.8,4.07-10.03,4.07s-7.47-1.46-10.08-4.07c-3.76-3.76-3.66-8.41-3.66-14.83s-.1-11.07,3.66-14.83c2.61-2.61,5.85-4.07,10.08-4.07s7.42,1.46,10.03,4.07c3.76,3.76,3.71,8.41,3.71,14.83s.05,11.07-3.71,14.83Zm-5.38-25.28c-1.04-1.2-2.66-1.98-4.65-1.98s-3.66.78-4.7,1.98c-1.41,1.57-1.78,3.29-1.78,10.45s.37,8.88,1.78,10.45c1.04,1.2,2.72,1.98,4.7,1.98s3.6-.78,4.65-1.98c1.41-1.57,1.83-3.29,1.83-10.45s-.42-8.88-1.83-10.45Z"/><path class="cls-4" d="m942.34,272.29h-6.06l-6.84-22.56-6.84,22.56h-6.06l-9.92-37.19h7.57l5.75,23.45,6.79-23.45h5.43l6.79,23.45,5.8-23.45h7.57l-9.98,37.19Z"/><path class="cls-4" d="m971.17,257.04v15.25h-7.21v-15.25l-11.18-21.94h7.89l6.95,14.99,6.84-14.99h7.89l-11.18,21.94Z"/></svg>