<?xml version="1.0" encoding="UTF-8"?><svg id="Warstwa_1" xmlns="http://www.w3.org/2000/svg" xmlns:xlink="http://www.w3.org/1999/xlink" viewBox="0 0 2100 600"><defs><style>.cls-1{filter:url(#drop-shadow-1);}.cls-2{fill:#4a835b;}.cls-2,.cls-3,.cls-4,.cls-5,.cls-6,.cls-7{stroke-width:0px;}.cls-3{fill:#263671;}.cls-4{fill:#e0001a;}.cls-5{fill:#009d57;}.cls-6{fill:#fff;}.cls-7{fill:#00985f;}</style><filter id="drop-shadow-1" filterUnits="userSpaceOnUse"><feOffset dx="0" dy="22"/><feGaussianBlur result="blur" stdDeviation="15"/><feFlood flood-color="#000" flood-opacity=".5"/><feComposite in2="blur" operator="in"/><feComposite in="SourceGraphic"/></filter></defs><g class="cls-1"><path class="cls-6" d="m302.84,142.66h25.95l12.77,99.52,20.88-99.52h20.27l20.68,99.52,12.77-99.52h25.95l-25.54,144.73h-23.51l-20.47-95.27-20.68,95.27h-23.51l-25.54-144.73Z"/><path class="cls-6" d="m484.46,237.52l-34.66-94.86h27.36l20.47,63.44,20.27-63.44h27.57l-34.86,94.86v49.86h-26.15v-49.86Z"/><path class="cls-6" d="m594.12,208.13h40.54v26.15c0,19.86-2.03,30.81-7.09,38.92-6.89,10.95-17.84,16.22-34.46,16.22s-27.57-5.07-34.46-14.8c-5.27-7.3-7.5-18.04-7.5-35.67v-47.43c0-19.66,2.63-30.61,9.12-38.31,7.09-8.11,17.63-12.36,32.03-12.36,16.62,0,28.17,6.28,34.66,18.65,3.04,6.08,4.26,12.97,4.66,24.73h-23.92c-1.22-17.23-4.46-22.3-14.8-22.3-11.96,0-15.61,7.3-15.61,31.22v44.19c0,23.51,3.85,31.01,16.01,31.01s15.61-7.5,15.61-28.38v-11.76h-14.8v-20.07Z"/><path class="cls-6" d="m679.66,287.39h-26.15v-144.73h36.69c17.23,0,25.95,2.63,32.63,9.73,6.69,6.89,9.53,16.62,9.53,32.23,0,24.93-4.66,34.66-19.26,41.15l23.72,61.62h-28.78l-20.27-59.59h-8.11v59.59Zm8.72-79.66c7.5,0,10.95-1.22,13.58-4.86,2.84-3.45,4.26-9.53,4.26-16.62,0-16.82-4.46-22.7-17.23-22.7h-10.13v44.19h9.53Z"/><path class="cls-6" d="m779.79,258.6l-6.28,28.78h-28.17l40.95-144.73h21.69l40.95,144.73h-28.18l-6.08-28.78h-34.86Zm17.43-80.47l-12.97,59.8h25.74l-12.77-59.8Z"/><path class="cls-6" d="m918.03,142.66v95.47c0,21.28-.81,28.99-4.05,35.47-5.07,10.54-14.8,15.81-29.59,15.81-13.78,0-23.11-3.85-32.84-13.78l15-16.62c6.28,6.69,10.74,9.32,15.61,9.32,7.7,0,9.73-6.08,9.73-30v-95.67h26.15Z"/><path class="cls-6" d="m963.63,273.4l45.2-109.25h-40.74v-21.49h69.12v13.99l-45.2,109.25h47.23v21.49h-75.61v-13.99Z"/><path class="cls-4" d="m306.5,311.95h14.2v29.61l16.62-29.61h15.3l-19.82,32.37,20.37,46.24h-15.52l-13.21-34.68-3.74,6.72v27.96h-14.2v-78.61Z"/><path class="cls-4" d="m356.59,336.72c0-18.72,6.39-25.98,22.68-25.98s22.79,7.27,22.79,25.98v29.06c0,18.72-6.39,25.98-22.79,25.98s-22.68-7.27-22.68-25.98v-29.06Zm31.27,1.21c0-12.11-1.98-15.74-8.48-15.74s-8.59,3.63-8.59,15.74v26.64c0,12.11,1.98,15.74,8.59,15.74s8.48-3.63,8.48-15.74v-26.64Z"/><path class="cls-4" d="m413.29,311.95h14.09l18.94,50.09v-50.09h13.21v78.61h-13.32l-19.71-50.75v50.75h-13.21v-78.61Z"/><path class="cls-4" d="m472.41,311.95h14.2v29.61l16.62-29.61h15.3l-19.82,32.37,20.37,46.24h-15.52l-13.21-34.68-3.74,6.72v27.96h-14.2v-78.61Z"/><path class="cls-4" d="m539.89,311.95v54.06c0,11.01,1.76,14.2,7.71,14.2,6.61,0,8.26-2.86,8.26-14.2v-54.06h14.2v54.06c0,9.91-.88,14.09-3.74,18.06-3.85,5.39-9.25,7.6-18.39,7.6-9.8,0-15.63-2.75-19.38-8.81-2.2-3.74-2.86-7.82-2.86-16.84v-54.06h14.2Z"/><path class="cls-4" d="m596.81,390.56h-14.2v-78.61h19.93c9.36,0,14.09,1.43,17.73,5.28,3.63,3.74,5.17,9.03,5.17,17.5,0,13.54-2.53,18.83-10.46,22.35l12.88,33.47h-15.63l-11.01-32.37h-4.4v32.37Zm4.73-43.27c4.07,0,5.94-.66,7.38-2.64,1.54-1.87,2.31-5.17,2.31-9.03,0-9.14-2.42-12.33-9.36-12.33h-5.5v24h5.17Z"/><path class="cls-4" d="m645.8,366.89c.11,9.69,2.53,13.43,8.37,13.43s8.48-3.41,8.48-11.67c0-3.63-.66-6.17-2.2-7.82-1.65-1.76-2.09-1.98-9.58-4.4-12-3.96-16.73-10.35-16.73-22.57,0-14.97,6.83-22.9,19.82-22.9,8.7,0,14.64,3.41,17.94,10.13,1.65,3.3,2.42,7.05,2.53,13.43h-12.99c-.55-9.14-2.2-12.11-7.05-12.11-4.51,0-6.72,3.63-6.72,10.9,0,6.17,2.53,9.03,10.24,11.78,7.93,2.75,9.69,3.52,12.44,5.95,4.07,3.52,5.83,8.81,5.83,17.17,0,15.63-7.38,23.56-21.8,23.56-9.25,0-15.74-3.52-19.05-10.46-1.76-3.41-2.42-7.27-2.53-14.42h12.99Z"/><path class="cls-4" d="m711.31,323.62h-13.87v-11.67h41.95v11.67h-13.87v66.94h-14.2v-66.94Z"/><path class="cls-4" d="m761.84,363.48l-18.83-51.52h14.86l11.12,34.46,11.01-34.46h14.97l-18.94,51.52v27.08h-14.2v-27.08Z"/><path class="cls-4" d="m798.06,311.95h14.2v66.94h24.11v11.67h-38.31v-78.61Z"/><path class="cls-4" d="m843.86,311.95h14.2v29.61l16.62-29.61h15.3l-19.82,32.37,20.37,46.24h-15.52l-13.21-34.68-3.74,6.72v27.96h-14.2v-78.61Z"/><path class="cls-4" d="m893.96,336.72c0-18.72,6.38-25.98,22.68-25.98s22.79,7.27,22.79,25.98v29.06c0,18.72-6.39,25.98-22.79,25.98s-22.68-7.27-22.68-25.98v-29.06Zm31.27,1.21c0-12.11-1.98-15.74-8.48-15.74s-8.59,3.63-8.59,15.74v26.64c0,12.11,1.98,15.74,8.59,15.74s8.48-3.63,8.48-15.74v-26.64Z"/><path class="cls-5" d="m963.53,311.95h14.09l6.94,54.06,11.34-54.06h11.01l11.23,54.06,6.94-54.06h14.09l-13.87,78.61h-12.77l-11.12-51.74-11.23,51.74h-12.77l-13.87-78.61Z"/><g id="Layer_2"><g id="Layer_1-2"><path class="cls-3" d="m1191.72,236.25c0-.67,29.15-91.08,29.15-91.1,3.1-9.74,5.39-19.73,6.83-29.85-9.75,12.15-18.29,25.21-25.52,39.01-4.81,8.87-9.31,17.24-14,26.02-5.36,9.62-10.61,18.78-15.95,28.33-9.43,16.84-18.78,32.59-18.78,32.59,12.38-3.88,25.33-5.59,38.29-5.05l-.02.05Zm533.5,26.29c22.1-10.68,36.77-28.86,36.51-47.38-.31-6.06-4.14-9.88-10.68-10.13-14.43.19-29.46,23.28-29.12,44.85-.13,4.44,1.01,8.83,3.29,12.65Zm-91.39-55.72c-3.51,0-7.46.22-11.26.6l-9.38,27.06c-4.28,12.31-6.83,23.06-6.9,27.44.48,9.48,8.08,14.21,24.05,14.43,2.55.02,5.09-.09,7.62-.34v-1.37c0-5.56,1.92-15.27,5.41-25.88,4.81-13.95,9.36-27.42,14.05-41.73-7.82.24-15.68-.48-23.52-.24h0l-.07.02Zm-128.69,52.91c22.2-10.75,36.65-29.22,36.39-47.69.17-5.31-4.01-9.75-9.32-9.91-.45-.01-.91,0-1.36.05-14.43.46-29.37,23.88-29.05,45.17-.13,4.38,1.03,8.69,3.34,12.41v-.02Zm-207.72,19.41c-17.75,7.22-26.46,12.48-36.51,12.79-16.62.53-24.51-6.25-25.25-21.26-.02-8.31,1.3-16.57,3.9-24.46-8.98,1.78-18.13,2.49-27.27,2.12-1.59,4.55-3.22,8.66-4.64,12.96-3.68,12.03-4.28,15.46-4.23,19.91v1.25c0,.49.09.98.24,1.44l.34,1.01-.94.24c-13.08,3.22-16.84,4.23-30.21,8.3l-1.73.53.53-1.73c.36-1.2.82-2.28,1.2-3.49,2.6-6.4,6.16-16.84,9.04-25.73l3.7-11.42,1.08-3.49c-9.62-1.31-19.34-1.68-29.03-1.11-2.05.14-4.09.43-6.11.84l-1.39.26c-23.23,40.19-37.66,47.76-76.46,50.36-4.64.29-9.29.06-13.88-.67l-.79-.14-.26-7.82,1.3.41c8.74,2.4,17.96,2.54,26.77.38,11.22-2.57,21.28-8.79,28.57-17.7,3.56-4.37,6.78-9.01,9.62-13.88,3.08-5.07,6.13-10.7,9.43-16.38,12.41-21.19,25.32-43.15,25.32-43.15,28.36-48.97,45.21-74.07,67.22-93.07,12.03-3.94,15.03-4.81,26.21-9.33l1.3-.53v1.42c.24,15.68-6.35,40.28-17.29,73.69-3.22,9.81-21.45,63.11-22.05,64.94,1.83-.19,5.84-.58,10.7-.79,6.04-.16,12.04-1.03,17.87-2.6,1.68-4.81,3.63-10,5.89-15.85,12.02-30.59,25.57-60.55,40.6-89.78l2.93-5.24c19.82-38.67,28.36-7.6,28.86,10.17-.14,63.76-14.86,70.42-57.19,105.82-13.66,47.43,11.78,43.67,33.72,37.57,8.42-24.05,16.84-47.76,25.64-72.94,12.89-3.17,16.47-4.14,29.85-8.44-5.99,12.75-7.86,16.38-13.59,30.47,20.59-19.77,42.74-32.2,56.54-32.88,5.21-.33,9.7,3.62,10.04,8.83,0,.1.01.21.01.31,0,2.79-.99,6.76-4.06,13.01-1.73,3.7-3.27,7.22-5.03,10.8,23.59-21.89,43.03-32.11,58.03-32.83,7.22,0,11.71,3.22,11.59,8.87-.45,3.59-1.31,7.12-2.57,10.51-4.67,12.03-8.87,23.38-13.47,35.26-3.9,9.62-4.35,11.57-4.28,15.13.24,7.41,5.75,10.63,16.84,10.68,3.42-.06,6.8-.66,10.03-1.78-1.04-3.02-1.63-6.17-1.76-9.36.65-33.04,42.23-68.21,82.85-69.48,10.65.22,17.87,6.04,18.18,15.22,0,20.03-26.46,42.64-66.47,54.71,9.88,9.62,22.8,14.14,43.12,14.19,9.53-.53,18.98-2.02,28.21-4.45.79-8.02,2.57-15.92,5.32-23.5,4.81-14.07,9.36-27.42,14.05-41.73-7.89.38-8.56.48-16.47.87,3.58-5.72,4.47-7.41,7.79-12.67,6.23.24,8.54.26,12.7.22,4.69-13.49,8.8-26.46,13.54-40.09,12.15-1.88,15.51-2.41,27.66-5.07-5.46,15.75-10.73,30.64-16.09,46.1,8.23-.26,11.52.43,19.46.22,1.42-.17,10.7-.41,14.96-.19,4.81-13.64,8.99-26.72,13.73-40.38,12.15-1.88,15.49-2.41,27.68-4.81-5.65,15.39-10.73,30.4-16.11,45.89,8.47-.26,10.63-.51,19.12-.65l-2.98,6.16c-1.3,2.41-2.57,4.81-3.87,7.38-7.22-1.06-9.07-.94-16.38-1.49l-9.38,27.03c-4.09,12.48-7,23.14-6.93,27.51.48,9.62,8.08,14.43,24.05,14.77,1.64,0,3.66,0,5.94-.24-2.1-4.16-3.22-8.74-3.27-13.4.65-33.67,42.23-68.25,83.02-68.11,10.65.22,17.89,6.57,18.18,15.61-.22,20.08-27.03,41.73-66.81,53.75,9.62,10.1,22.85,15.06,43.29,15.46,8.09.26,16.17-.55,24.05-2.41.29.84.67,1.66.96,2.41-27.49,7.79-51.42,11.81-67.34,11.47-14.17-.29-24.05-4.18-29.8-11.38-2.41.65-4.62,1.25-6.9,1.95-24.41,6.47-30.25,7.55-38.12,7.53-7.86-.02-12.94-3.82-14.69-10.51-2.41.65-4.59,1.3-6.9,1.97-24.29,6.42-30.21,7.74-38.07,7.72-9.43-.19-14.81-5.19-15.34-14.57-27.15,8.15-54.45,13.83-70.3,13.78-16.96,0-27.78-5.1-32.59-14.94l-2.41.94c-24.84,9.96-37.78,14.14-44.66,14.43-6.36.28-11.74-4.64-12.02-11,0-.05,0-.11,0-.16-.19-3.68,1.08-7.84,3.63-15.61,3.97-10.82,7.6-21.65,11.62-32.54,0-.31.58-1.76,1.15-3.99.46-1.2.85-2.43,1.15-3.68.33-1.09.52-2.22.55-3.37-.26-3.85-3.78-5.8-10.32-5.7-12.24.6-22.66,14.17-38.48,51.01-2.72,6.37-5.48,12.39-8.18,18.64-9.17,1.62-18.19,3.98-26.98,7.05,6.78-18.52,12.96-36.34,19.94-55.32.29-1.59.89-2.86,1.78-5.99.26-1.54.7-2.79,1.08-4.45.3-1.31.49-2.63.58-3.97-.24-3.39-3.49-5.1-10.63-5-12.24.6-22.82,14.89-35.67,48.1-2.81,7.22-5.56,14.09-8.39,21.4-8.67,1.22-17.2,3.25-25.49,6.04l3.9-11.21-.1.07Zm-29.85-52.36c9.45-4.18,23.02-10.13,28.23-25.16,6.93-21.14,9.88-35.5,9.98-70.9-13.61,29-15.61,31.27-26.46,62.79-6.9,18.81-2.91,7.22-6.64,18.66-.96,3.13-1.95,5.8-5,14.62l-.12-.02Z"/></g></g><path id="path22" class="cls-2" d="m1225.97,366.27h-15.91l-3.87,4.86c-.68.68-.46,1.4.22,1.63l5.22,2.3,14.78-6.9c.49-.24.7-.83.47-1.32-.17-.35-.53-.57-.92-.56Z"/><circle id="circle24" class="cls-6" cx="1191.38" cy="371.82" r="4.41"/><path id="path26" class="cls-7" d="m1166.9,444.35h-19.58c-4.39,2.48-8.95,4.63-13.67,6.42-.49.21-.68.31-.45.98l17.5,48.56h9.56l-16.04-44.24h.43c10.45,0,35.38-2.6,48.88-24.41-6.27,8.33-16.22,13.07-26.64,12.7Zm2.78-29.04c1.07-1.63,2.1-3.43,3.07-5.11-.45-.24-.85-.52-1.3-.05-13.76,15.78-33.91,24.52-54.83,23.79h-23.02c-.69,0-1.27-.63-.75-1.31,15.16-20.67,32.62-39.54,52.06-56.24l-38.56,32.42c-3.21,2.82-7.35,4.36-11.62,4.31h-48.51c-1.37,0-.92.99-.69,1.67,3.85,12.32,15.58,20.45,28.47,19.73l-11.35,11.87c-.45.45-.45,1.86.68,1.86h43.29c25.43,1.19,49.53-11.4,63.07-32.95h0Zm-12.8,48.95l12.97,36.05h9.58l-13.7-38.06c-2.9.87-5.85,1.55-8.84,2.02Zm69.21-97.99h-15.94l-3.87,4.84c-.68.69-.45,1.4.22,1.62l5.22,2.28,14.79-6.86c.49-.23.71-.81.49-1.31-.16-.36-.53-.58-.92-.58Zm-31.59,8.67c-1.73,1.72-4.52,1.71-6.24-.02-1.72-1.73-1.71-4.52.02-6.24,1.72-1.71,4.49-1.71,6.21,0-3.11-3.08-8.14-3.06-11.22.05-3.08,3.11-3.06,8.14.05,11.22,3.11,3.08,8.14,3.06,11.22-.05,3.06-3.09,3.06-8.08,0-11.17,1.69,1.73,1.67,4.51-.05,6.21Z"/><circle id="circle28" class="cls-6" cx="1191.67" cy="371.62" r="3.72"/><path id="path30" class="cls-4" d="m1193.52,431.66c9.28-17.66,15.45-36.79,18.21-56.54l-5.22-2.31c-.68-.22-.9-.93-.22-1.62l3.87-4.8c-5.28-8-14.3-12.73-23.88-12.51-7.16-.09-14.18,1.96-20.15,5.9-7.38,5.2-14.47,10.8-21.25,16.76-19.44,16.66-36.9,35.49-52.06,56.12-.49.68.09,1.31.75,1.31h23.05c20.95.7,41.1-8.07,54.86-23.88.32-.39.9-.46,1.3-.15.44.33.57.94.3,1.42-5.11,13.31-14.06,24.81-25.72,33.02h19.58c10.4.35,20.32-4.38,26.58-12.7Zm-10.25-51.72c-3.11-3.09-3.13-8.12-.04-11.23,3.09-3.11,8.12-3.13,11.23-.04,3.11,3.09,3.13,8.12.04,11.23-.01.01-.02.02-.04.04-3.1,3.07-8.09,3.07-11.19,0h0Zm18.33,56.54c-6.45,10.31-16,18.31-27.29,22.85l14.7,40.97h42.77c-8.55-24.73-17.71-49.03-26.35-71.07-1.16,2.4-2.45,5.03-3.82,7.25h0Zm-158.39,63.83h43.29l14-42.94h-42.24c-4.78,13.02-9.85,27.33-15.05,42.94Zm56.98-99.15l24.98-20.73c4.13-11.14,8.37-22.16,12.81-31.67,2.24,5.07,4.32,10.19,6.52,15.58,9.64-7.96,15.97-12.26,16.29-12.47l.14-.07c3.94-2.64,8.26-4.66,12.81-5.97-5.69-12.43-9.7-21.21-11.64-25.11h-48.49c-4.04,9.11-19.11,40.35-36.74,81.99h17.84c1.95.2,3.9-.36,5.46-1.54Z"/><path id="path32" class="cls-4" d="m1285.64,475.11c-8.1,1.03-15.49-4.7-16.52-12.8-.13-1.03-.15-2.07-.06-3.11v-66.9h-35.14v71.65c0,26.37,11.76,39.33,36.57,39.33"/><path id="path34" class="cls-4" d="m1302.89,467.39c-4.56,4.66-10.75,7.36-17.26,7.53-8.1,1.02-15.5-4.72-16.52-12.82-.13-1.05-.15-2.11-.06-3.16v-67.92h-35.13v72.75c0,26.48,11.67,39.49,36.57,39.49,13.9,1.04,27.51-4.39,36.88-14.7l2.18,11.78h28.5v-109.34h-35.16v76.4Zm111.66,5.47c-17.58,0-26.72-10.95-26.72-27.61s9.14-25.79,26.49-25.79c8.35-.14,16.54,2.24,23.51,6.84l5.03-29.91c-11.71-5.17-24.42-7.66-37.21-7.31-35.38,0-54.8,20.32-54.8,57.54s18.26,56.62,53.89,56.62c14.08.21,27.99-3.17,40.41-9.81l-5.02-27.85c-7.78,4.54-16.57,7.05-25.57,7.3Zm108.89-83.79c-11.38-.67-22.64,2.64-31.85,9.36v-47.77h-36.44v149.64h36.44v-75.38c4.29-4.65,10.28-7.36,16.61-7.53,7.84-.96,14.97,4.61,15.94,12.45.14,1.17.14,2.36,0,3.53v66.93h36.44v-71.73c0-26.48-12.23-39.5-37.12-39.5Zm239.72,0c-13.89-1.19-27.57,4.03-37.14,14.18l-2.43-12.28h-29v109.33h36.44v-75.38c4.29-4.65,10.28-7.36,16.61-7.53,7.84-.96,14.97,4.62,15.93,12.45.14,1.17.14,2.35,0,3.52v66.93h36.44v-71.73c0-26.48-12.19-39.5-36.84-39.5Zm-190.26,61.2c0,36.99,13.7,52.99,40.19,52.99,12.96,1.07,25.59-4.45,33.59-14.7l1.83,11.78h29.2v-104.42c-16.13-5.04-32.99-7.35-49.88-6.84-35.43,0-54.93,21.69-54.93,61.19h0Zm68.34,17.12c-4.42,4.84-10.68,7.57-17.23,7.53-9.58,0-14.89-8.9-14.89-26.03,0-21,5.79-31.5,17.17-31.5,5.02-.11,10.04.42,14.93,1.6l.02,48.4Z"/></g></svg>