<?xml version="1.0" encoding="UTF-8"?><svg id="Warstwa_1" xmlns="http://www.w3.org/2000/svg" viewBox="0 0 1070.45 784.51"><defs><style>.cls-1{fill:#263671;}.cls-1,.cls-2,.cls-3,.cls-4{stroke-width:0px;}.cls-2{fill:#24408f;}.cls-3{fill:#e51d29;}.cls-4{fill:#fff;}</style></defs><path class="cls-2" d="m26.21,161.22h-9.67v18.92H6.73v-50.26h19.48c10.38,0,16.59,7.13,16.59,15.67s-6.21,15.67-16.59,15.67Zm-.49-22.59h-9.18v13.76h9.18c4.45,0,7.27-2.75,7.27-6.85s-2.82-6.92-7.27-6.92Z"/><path class="cls-2" d="m77.74,180.13l-9.81-20.05h-7.06v20.05h-9.81v-50.26h19.69c10.24,0,16.31,6.99,16.31,15.39,0,7.06-4.31,11.44-9.18,13.2l11.22,21.67h-11.36Zm-7.62-41.51h-9.25v13.27h9.25c4.31,0,7.13-2.75,7.13-6.64s-2.82-6.64-7.13-6.64Z"/><path class="cls-2" d="m127.64,175.05c-3.53,3.53-7.84,5.51-13.55,5.51s-10.09-1.98-13.62-5.51c-5.08-5.08-4.94-11.36-4.94-20.05s-.14-14.96,4.94-20.05c3.53-3.53,7.91-5.51,13.62-5.51s10.02,1.98,13.55,5.51c5.08,5.08,5.01,11.36,5.01,20.05s.07,14.96-5.01,20.05Zm-7.27-34.16c-1.41-1.62-3.6-2.68-6.28-2.68s-4.94,1.06-6.35,2.68c-1.91,2.12-2.4,4.45-2.4,14.12s.49,12,2.4,14.12c1.41,1.62,3.67,2.68,6.35,2.68s4.87-1.06,6.28-2.68c1.91-2.12,2.47-4.45,2.47-14.12s-.56-12-2.47-14.12Z"/><path class="cls-2" d="m174.08,175.33c-3.32,3.32-8.05,4.8-13.27,4.8h-18.14v-50.26h18.14c5.22,0,9.95,1.48,13.27,4.8,5.65,5.65,5.08,12.56,5.08,20.12s.56,14.89-5.08,20.54Zm-6.85-33.6c-1.69-2.05-3.95-3.11-7.34-3.11h-7.41v32.75h7.41c3.39,0,5.65-1.06,7.34-3.11,1.84-2.26,2.12-5.86,2.12-13.48s-.28-10.8-2.12-13.06Z"/><path class="cls-2" d="m206.9,180.56c-10.31,0-18.49-6.99-18.49-17.65v-33.04h9.81v32.68c0,5.79,3.39,9.25,8.68,9.25s8.75-3.46,8.75-9.25v-32.68h9.74v33.04c0,10.66-8.19,17.65-18.49,17.65Z"/><path class="cls-2" d="m265.55,180.13l-12.92-22.87-6.49,7.76v15.11h-9.81v-50.26h9.81v21.88l17.72-21.88h11.93l-16.66,19.98,17.86,30.28h-11.43Z"/><path class="cls-2" d="m302.47,138.63v41.51h-9.81v-41.51h-13.13v-8.75h36.07v8.75h-13.13Z"/><path class="cls-2" d="m342.77,159.52v20.61h-9.74v-20.61l-15.11-29.65h10.66l9.39,20.26,9.25-20.26h10.66l-15.11,29.65Z"/><path class="cls-2" d="m28.56,702.53l-10.92-19.08-7.55,9.06v10.02h-3.83v-35.84h3.83v20.59l16.71-20.59h4.68l-11.28,13.84,12.89,22h-4.53Z"/><path class="cls-2" d="m58.81,699.11c-2.42,2.42-5.59,3.72-9.16,3.72s-6.75-1.31-9.16-3.72c-3.37-3.37-3.37-6.9-3.37-14.5s0-11.12,3.37-14.5c2.42-2.42,5.59-3.73,9.16-3.73s6.75,1.31,9.16,3.73c3.37,3.37,3.37,6.9,3.37,14.5s0,11.12-3.37,14.5Zm-2.97-26.73c-1.56-1.61-3.83-2.57-6.19-2.57s-4.63.96-6.19,2.57c-2.26,2.32-2.52,4.73-2.52,12.23s.25,9.92,2.52,12.23c1.56,1.61,3.83,2.57,6.19,2.57s4.63-.96,6.19-2.57c2.27-2.32,2.52-4.73,2.52-12.23s-.25-9.92-2.52-12.23Z"/><path class="cls-2" d="m94.05,702.53l-19.03-28.74v28.74h-3.83v-35.84h3.62l19.03,28.64v-28.64h3.83v35.84h-3.62Z"/><path class="cls-2" d="m130.35,702.53l-10.92-19.08-7.55,9.06v10.02h-3.83v-35.84h3.83v20.59l16.71-20.59h4.68l-11.28,13.84,12.89,22h-4.53Z"/><path class="cls-2" d="m152.75,702.83c-7.25,0-12.48-4.98-12.48-12.13v-24.01h3.83v23.71c0,5.44,3.42,9.01,8.66,9.01s8.71-3.57,8.71-9.01v-23.71h3.83v24.01c0,7.15-5.29,12.13-12.54,12.13Z"/><path class="cls-2" d="m195.74,702.53l-8.16-15.91h-8.61v15.91h-3.83v-35.84h13.74c6.24,0,10.62,3.78,10.62,9.97,0,5.24-3.17,8.66-7.8,9.61l8.51,16.26h-4.48Zm-7.2-32.42h-9.56v13.14h9.56c4.18,0,7.15-2.16,7.15-6.54s-2.97-6.59-7.15-6.59Z"/><path class="cls-2" d="m217.39,702.83c-5.39,0-8.91-1.36-12.28-4.73l2.62-2.62c2.97,2.97,5.74,3.93,9.77,3.93,5.23,0,8.46-2.47,8.46-6.64,0-1.86-.55-3.47-1.71-4.48-1.16-1.01-2.06-1.31-4.68-1.71l-4.18-.65c-2.82-.45-5.03-1.36-6.59-2.72-1.81-1.61-2.72-3.83-2.72-6.7,0-6.09,4.38-10.12,11.48-10.12,4.58,0,7.6,1.16,10.67,3.93l-2.47,2.47c-2.21-2.01-4.58-3.07-8.36-3.07-4.78,0-7.55,2.67-7.55,6.64,0,1.76.5,3.17,1.61,4.13,1.11.96,2.97,1.66,4.83,1.96l3.93.6c3.37.5,5.03,1.21,6.54,2.52,1.96,1.66,3.02,4.13,3.02,7.1,0,6.29-4.93,10.17-12.38,10.17Z"/><path class="cls-2" d="m260.83,670.11v32.42h-3.83v-32.42h-10.37v-3.42h24.57v3.42h-10.37Z"/><path class="cls-2" d="m298.49,702.53l-8.16-15.91h-8.61v15.91h-3.83v-35.84h13.74c6.24,0,10.62,3.78,10.62,9.97,0,5.24-3.17,8.66-7.8,9.61l8.51,16.26h-4.48Zm-7.2-32.42h-9.56v13.14h9.56c4.18,0,7.15-2.16,7.15-6.54s-2.97-6.59-7.15-6.59Z"/><path class="cls-2" d="m338.76,702.53h-3.57l-7.95-28.69-7.95,28.69h-3.57l-9.16-35.84h4.08l7,28.89,7.9-28.89h3.42l7.9,28.89,7-28.89h4.08l-9.16,35.84Z"/><path class="cls-2" d="m374.25,702.53l-2.87-8.1h-15.66l-2.87,8.1h-4.08l13.19-35.84h3.22l13.14,35.84h-4.08Zm-10.62-30.35l-6.75,18.93h13.39l-6.64-18.93Z"/><path class="cls-2" d="m417.35,698.91c-2.52,2.52-5.59,3.93-9.67,3.93s-7.2-1.41-9.71-3.93c-3.62-3.62-3.52-8.1-3.52-14.3s-.1-10.67,3.52-14.3c2.52-2.52,5.64-3.93,9.71-3.93s7.15,1.41,9.67,3.93c3.62,3.62,3.57,8.1,3.57,14.3s.05,10.67-3.57,14.3Zm-5.18-24.36c-1.01-1.16-2.57-1.91-4.48-1.91s-3.52.75-4.53,1.91c-1.36,1.51-1.71,3.17-1.71,10.07s.35,8.56,1.71,10.07c1.01,1.16,2.62,1.91,4.53,1.91s3.47-.75,4.48-1.91c1.36-1.51,1.76-3.17,1.76-10.07s-.4-8.56-1.76-10.07Z"/><path class="cls-2" d="m450.47,699.11c-2.37,2.37-5.74,3.42-9.46,3.42h-12.94v-35.84h12.94c3.72,0,7.1,1.06,9.46,3.42,4.03,4.03,3.62,8.96,3.62,14.35s.4,10.62-3.62,14.65Zm-4.88-23.96c-1.21-1.46-2.82-2.21-5.24-2.21h-5.29v23.36h5.29c2.42,0,4.03-.75,5.24-2.21,1.31-1.61,1.51-4.18,1.51-9.62s-.2-7.7-1.51-9.31Z"/><path class="cls-2" d="m481.23,702.53v-28.79l-7.3,6.34v-7.05l7.3-6.34h6.54v35.84h-6.54Z"/><path class="cls-2" d="m499.05,702.53v-5.89l13.39-15.55c1.31-1.56,1.86-2.67,1.86-4.33,0-2.67-1.56-4.48-4.33-4.48-2.17,0-4.38,1.11-4.38,4.58h-6.54c0-6.54,4.78-10.47,10.92-10.47s10.87,3.98,10.87,10.42c0,3.47-1.36,5.34-3.83,8.21l-10.02,11.63h13.84v5.89h-21.8Z"/><path class="cls-2" d="m526.84,702.53v-7.45h7.5v7.45h-7.5Z"/><path class="cls-2" d="m550.25,702.53v-28.79l-7.3,6.34v-7.05l7.3-6.34h6.54v35.84h-6.54Z"/><path class="cls-2" d="m578.79,702.83c-5.84,0-10.92-3.83-10.92-10.67v-15.1c0-6.85,5.08-10.67,10.92-10.67s10.87,3.83,10.87,10.67v15.1c0,6.85-5.03,10.67-10.87,10.67Zm4.33-25.67c0-3.02-1.76-4.88-4.33-4.88s-4.38,1.86-4.38,4.88v14.95c0,3.02,1.81,4.83,4.38,4.83s4.33-1.81,4.33-4.83v-14.95Z"/><path class="cls-2" d="m630.69,699.11c-2.37,2.37-5.74,3.42-9.46,3.42h-12.94v-35.84h12.94c3.72,0,7.1,1.06,9.46,3.42,4.03,4.03,3.62,8.96,3.62,14.35s.4,10.62-3.62,14.65Zm-4.88-23.96c-1.21-1.46-2.82-2.21-5.24-2.21h-5.29v23.36h5.29c2.42,0,4.03-.75,5.24-2.21,1.31-1.61,1.51-4.18,1.51-9.62s-.2-7.7-1.51-9.31Z"/><path class="cls-2" d="m663.16,698.91c-2.52,2.52-5.59,3.93-9.67,3.93s-7.2-1.41-9.71-3.93c-3.62-3.62-3.52-8.1-3.52-14.3s-.1-10.67,3.52-14.3c2.52-2.52,5.64-3.93,9.71-3.93s7.15,1.41,9.67,3.93c3.62,3.62,3.57,8.1,3.57,14.3s.05,10.67-3.57,14.3Zm-5.18-24.36c-1.01-1.16-2.57-1.91-4.48-1.91s-3.52.75-4.53,1.91c-1.36,1.51-1.71,3.17-1.71,10.07s.35,8.56,1.71,10.07c1.01,1.16,2.62,1.91,4.53,1.91s3.47-.75,4.48-1.91c1.36-1.51,1.76-3.17,1.76-10.07s-.4-8.56-1.76-10.07Z"/><path class="cls-2" d="m684.36,702.53v-5.89l13.39-15.55c1.31-1.56,1.86-2.67,1.86-4.33,0-2.67-1.56-4.48-4.33-4.48-2.17,0-4.38,1.11-4.38,4.58h-6.54c0-6.54,4.78-10.47,10.92-10.47s10.87,3.98,10.87,10.42c0,3.47-1.36,5.34-3.83,8.21l-10.02,11.63h13.84v5.89h-21.8Z"/><path class="cls-2" d="m722.32,702.83c-6.34,0-11.18-3.98-11.18-11.07,0-3.27,1.41-6.29,3.02-9.56l7.55-15.5h7.15l-7.45,14.8c.86-.35,1.81-.45,2.67-.45,4.83,0,9.41,3.98,9.41,10.62,0,7.05-4.83,11.17-11.17,11.17Zm0-16.36c-2.67,0-4.63,1.91-4.63,5.24s1.96,5.24,4.63,5.24,4.63-1.91,4.63-5.24-1.86-5.24-4.63-5.24Z"/><path class="cls-2" d="m739.48,702.53v-7.45h7.5v7.45h-7.5Z"/><path class="cls-2" d="m762.89,702.53v-28.79l-7.3,6.34v-7.05l7.3-6.34h6.54v35.84h-6.54Z"/><path class="cls-2" d="m791.44,702.83c-5.84,0-10.92-3.83-10.92-10.67v-15.1c0-6.85,5.08-10.67,10.92-10.67s10.87,3.83,10.87,10.67v15.1c0,6.85-5.03,10.67-10.87,10.67Zm4.33-25.67c0-3.02-1.76-4.88-4.33-4.88s-4.38,1.86-4.38,4.88v14.95c0,3.02,1.81,4.83,4.38,4.83s4.33-1.81,4.33-4.83v-14.95Z"/><path class="cls-2" d="m808.5,702.53v-7.45h7.5v7.45h-7.5Z"/><path class="cls-2" d="m822.4,702.53v-5.89l13.39-15.55c1.31-1.56,1.86-2.67,1.86-4.33,0-2.67-1.56-4.48-4.33-4.48-2.17,0-4.38,1.11-4.38,4.58h-6.54c0-6.54,4.78-10.47,10.92-10.47s10.87,3.98,10.87,10.42c0,3.47-1.36,5.34-3.83,8.21l-10.02,11.63h13.84v5.89h-21.8Z"/><path class="cls-2" d="m860.45,702.83c-5.84,0-10.92-3.83-10.92-10.67v-15.1c0-6.85,5.08-10.67,10.92-10.67s10.87,3.83,10.87,10.67v15.1c0,6.85-5.03,10.67-10.87,10.67Zm4.33-25.67c0-3.02-1.76-4.88-4.33-4.88s-4.38,1.86-4.38,4.88v14.95c0,3.02,1.81,4.83,4.38,4.83s4.33-1.81,4.33-4.83v-14.95Z"/><path class="cls-2" d="m877.07,702.53v-5.89l13.39-15.55c1.31-1.56,1.86-2.67,1.86-4.33,0-2.67-1.56-4.48-4.33-4.48-2.17,0-4.38,1.11-4.38,4.58h-6.54c0-6.54,4.78-10.47,10.92-10.47s10.87,3.98,10.87,10.42c0,3.47-1.36,5.34-3.83,8.21l-10.02,11.63h13.84v5.89h-21.8Z"/><path class="cls-2" d="m914.97,702.83c-5.84,0-11.33-3.07-11.43-10.57h6.54c.1,3.22,2.32,4.68,4.88,4.68,2.82,0,4.83-1.76,4.83-4.98,0-2.97-1.81-4.93-5.03-4.93h-.96v-5.69h.96c3.17,0,4.53-1.96,4.53-4.48,0-3.02-2.01-4.58-4.38-4.58s-4.28,1.61-4.43,4.33h-6.54c.15-6.39,4.93-10.22,10.97-10.22,6.34,0,10.92,4.23,10.92,10.27,0,3.88-1.76,6.09-4.13,7.35,2.57,1.36,4.63,3.83,4.63,8.15,0,7.15-5.24,10.67-11.38,10.67Z"/><path class="cls-2" d="m26.59,759.52c-2.42,2.42-5.59,3.72-9.16,3.72s-6.75-1.31-9.16-3.72c-3.37-3.37-3.37-6.9-3.37-14.5s0-11.12,3.37-14.5c2.42-2.42,5.59-3.73,9.16-3.73s6.75,1.31,9.16,3.73c3.37,3.37,3.37,6.9,3.37,14.5s0,11.12-3.37,14.5Zm-2.97-26.73c-1.56-1.61-3.83-2.57-6.19-2.57s-4.63.96-6.19,2.57c-2.26,2.32-2.52,4.73-2.52,12.23s.25,9.92,2.52,12.23c1.56,1.61,3.83,2.57,6.19,2.57s4.63-.96,6.19-2.57c2.27-2.32,2.52-4.73,2.52-12.23s-.25-9.92-2.52-12.23Z"/><path class="cls-2" d="m59.57,762.94l-8.16-15.91h-8.61v15.91h-3.83v-35.84h13.74c6.24,0,10.62,3.78,10.62,9.97,0,5.24-3.17,8.66-7.8,9.61l8.51,16.26h-4.48Zm-7.2-32.42h-9.56v13.14h9.56c4.18,0,7.15-2.16,7.15-6.54s-2.97-6.59-7.15-6.59Z"/><path class="cls-2" d="m92.74,759.11c-2.52,2.72-5.89,4.13-9.56,4.13s-6.75-1.31-9.16-3.72c-3.37-3.37-3.37-6.9-3.37-14.5s0-11.12,3.37-14.5c2.42-2.42,5.59-3.73,9.16-3.73,6.85,0,11.48,4.43,12.53,10.72h-3.83c-1.01-4.53-4.23-7.3-8.71-7.3-2.37,0-4.63.96-6.19,2.57-2.26,2.32-2.52,4.73-2.52,12.23s.25,9.97,2.52,12.28c1.56,1.61,3.83,2.52,6.19,2.52,2.62,0,5.13-1.06,6.8-3.07,1.46-1.76,2.01-3.72,2.01-6.49v-2.72h-8.81v-3.37h12.63v5.69c0,4.13-.86,6.9-3.07,9.26Z"/><path class="cls-2" d="m125.11,762.94l-2.87-8.1h-15.66l-2.87,8.1h-4.08l13.19-35.84h3.22l13.14,35.84h-4.08Zm-10.62-30.35l-6.75,18.93h13.39l-6.64-18.93Z"/><path class="cls-2" d="m157.84,762.94l-19.03-28.74v28.74h-3.83v-35.84h3.62l19.03,28.64v-28.64h3.83v35.84h-3.62Z"/><path class="cls-2" d="m171.83,762.94v-35.84h3.83v35.84h-3.83Z"/><path class="cls-2" d="m183.71,762.94v-3.62l17.92-28.79h-17.22v-3.42h21.54v3.22l-18.07,29.2h18.07v3.42h-22.25Z"/><path class="cls-2" d="m234.91,762.94l-2.87-8.1h-15.66l-2.87,8.1h-4.08l13.19-35.84h3.22l13.14,35.84h-4.08Zm-10.62-30.35l-6.75,18.93h13.39l-6.64-18.93Z"/><path class="cls-2" d="m252.28,730.52v32.42h-3.83v-32.42h-10.37v-3.42h24.57v3.42h-10.37Z"/><path class="cls-2" d="m288.67,759.52c-2.42,2.42-5.59,3.72-9.16,3.72s-6.75-1.31-9.16-3.72c-3.37-3.37-3.37-6.9-3.37-14.5s0-11.12,3.37-14.5c2.42-2.42,5.59-3.73,9.16-3.73s6.75,1.31,9.16,3.73c3.37,3.37,3.37,6.9,3.37,14.5s0,11.12-3.37,14.5Zm-2.97-26.73c-1.56-1.61-3.83-2.57-6.19-2.57s-4.63.96-6.19,2.57c-2.26,2.32-2.52,4.73-2.52,12.23s.25,9.92,2.52,12.23c1.56,1.61,3.83,2.57,6.19,2.57s4.63-.96,6.19-2.57c2.27-2.32,2.52-4.73,2.52-12.23s-.25-9.92-2.52-12.23Z"/><path class="cls-2" d="m321.65,762.94l-8.16-15.91h-8.61v15.91h-3.83v-35.84h13.74c6.24,0,10.62,3.78,10.62,9.97,0,5.24-3.17,8.66-7.8,9.61l8.51,16.26h-4.48Zm-7.2-32.42h-9.56v13.14h9.56c4.18,0,7.15-2.16,7.15-6.54s-2.97-6.59-7.15-6.59Z"/><path class="cls-2" d="m334.69,747.79v-4.73h4.73v4.73h-4.73Zm0,15.15v-4.73h4.73v4.73h-4.73Z"/><path class="cls-2" d="m382.31,759.11c-2.52,2.72-5.89,4.13-9.56,4.13s-6.75-1.31-9.16-3.72c-3.37-3.37-3.37-6.9-3.37-14.5s0-11.12,3.37-14.5c2.42-2.42,5.59-3.73,9.16-3.73,6.85,0,11.48,4.43,12.53,10.72h-3.83c-1.01-4.53-4.23-7.3-8.71-7.3-2.37,0-4.63.96-6.19,2.57-2.26,2.32-2.52,4.73-2.52,12.23s.25,9.97,2.52,12.28c1.56,1.61,3.83,2.52,6.19,2.52,2.62,0,5.13-1.06,6.8-3.07,1.46-1.76,2.01-3.72,2.01-6.49v-2.72h-8.81v-3.37h12.63v5.69c0,4.13-.86,6.9-3.07,9.26Z"/><path class="cls-2" d="m414.88,762.94l-8.16-15.91h-8.61v15.91h-3.83v-35.84h13.74c6.24,0,10.62,3.78,10.62,9.97,0,5.24-3.17,8.66-7.8,9.61l8.51,16.26h-4.48Zm-7.2-32.42h-9.56v13.14h9.56c4.18,0,7.15-2.16,7.15-6.54s-2.97-6.59-7.15-6.59Z"/><path class="cls-2" d="m447.65,759.52c-2.42,2.42-5.59,3.72-9.16,3.72s-6.75-1.31-9.16-3.72c-3.37-3.37-3.37-6.9-3.37-14.5s0-11.12,3.37-14.5c2.42-2.42,5.59-3.73,9.16-3.73s6.75,1.31,9.16,3.73c3.37,3.37,3.37,6.9,3.37,14.5s0,11.12-3.37,14.5Zm-2.97-26.73c-1.56-1.61-3.83-2.57-6.19-2.57s-4.63.96-6.19,2.57c-2.26,2.32-2.52,4.73-2.52,12.23s.25,9.92,2.52,12.23c1.56,1.61,3.83,2.57,6.19,2.57s4.63-.96,6.19-2.57c2.27-2.32,2.52-4.73,2.52-12.23s-.25-9.92-2.52-12.23Z"/><path class="cls-2" d="m487.37,762.94h-3.57l-7.95-28.69-7.95,28.69h-3.57l-9.16-35.84h4.08l7,28.89,7.9-28.89h3.42l7.9,28.89,7-28.89h4.08l-9.16,35.84Z"/><path class="cls-2" d="m513.05,730.52v32.42h-3.83v-32.42h-10.37v-3.42h24.57v3.42h-10.37Z"/><path class="cls-2" d="m550.95,762.94v-16.36h-17.01v16.36h-3.83v-35.84h3.83v16.06h17.01v-16.06h3.83v35.84h-3.83Z"/><path class="cls-2" d="m599.03,759.62c-2.16,2.16-5.34,3.32-9.06,3.32h-12.28v-35.84h12.28c3.72,0,6.9,1.16,9.06,3.32,3.73,3.73,3.52,9.21,3.52,14.2s.2,11.28-3.52,15Zm-2.67-26.48c-1.86-1.91-4.28-2.62-7.05-2.62h-7.8v29h7.8c2.77,0,5.18-.71,7.05-2.62,2.47-2.57,2.37-7.9,2.37-12.28s.1-8.91-2.37-11.48Z"/><path class="cls-2" d="m611.56,762.94v-35.84h22.25v3.42h-18.42v12.63h15.71v3.42h-15.71v12.94h18.42v3.42h-22.25Z"/><path class="cls-2" d="m650.98,763.24c-5.39,0-8.91-1.36-12.28-4.73l2.62-2.62c2.97,2.97,5.74,3.93,9.77,3.93,5.24,0,8.46-2.47,8.46-6.64,0-1.86-.55-3.47-1.71-4.48-1.16-1.01-2.06-1.31-4.68-1.71l-4.18-.65c-2.82-.45-5.03-1.36-6.59-2.72-1.81-1.61-2.72-3.83-2.72-6.7,0-6.09,4.38-10.12,11.48-10.12,4.58,0,7.6,1.16,10.67,3.93l-2.47,2.47c-2.21-2.01-4.58-3.07-8.36-3.07-4.78,0-7.55,2.67-7.55,6.64,0,1.76.5,3.17,1.61,4.13,1.11.96,2.97,1.66,4.83,1.96l3.93.6c3.37.5,5.03,1.21,6.54,2.52,1.96,1.66,3.02,4.13,3.02,7.1,0,6.29-4.93,10.17-12.38,10.17Z"/><path class="cls-2" d="m671.37,762.94v-35.84h3.83v35.84h-3.83Z"/><path class="cls-2" d="m706.31,759.11c-2.52,2.72-5.89,4.13-9.56,4.13s-6.75-1.31-9.16-3.72c-3.37-3.37-3.37-6.9-3.37-14.5s0-11.12,3.37-14.5c2.42-2.42,5.59-3.73,9.16-3.73,6.85,0,11.48,4.43,12.53,10.72h-3.83c-1.01-4.53-4.23-7.3-8.71-7.3-2.37,0-4.63.96-6.19,2.57-2.26,2.32-2.52,4.73-2.52,12.23s.25,9.97,2.52,12.28c1.56,1.61,3.83,2.52,6.19,2.52,2.62,0,5.13-1.06,6.8-3.07,1.46-1.76,2.01-3.72,2.01-6.49v-2.72h-8.81v-3.37h12.63v5.69c0,4.13-.86,6.9-3.07,9.26Z"/><path class="cls-2" d="m741.14,762.94l-19.03-28.74v28.74h-3.83v-35.84h3.62l19.03,28.64v-28.64h3.83v35.84h-3.62Z"/><path class="cls-2" d="m776.88,763.24c-5.39,0-8.91-1.36-12.28-4.73l2.62-2.62c2.97,2.97,5.74,3.93,9.77,3.93,5.24,0,8.46-2.47,8.46-6.64,0-1.86-.55-3.47-1.71-4.48-1.16-1.01-2.06-1.31-4.68-1.71l-4.18-.65c-2.82-.45-5.03-1.36-6.59-2.72-1.81-1.61-2.72-3.83-2.72-6.7,0-6.09,4.38-10.12,11.48-10.12,4.58,0,7.6,1.16,10.67,3.93l-2.47,2.47c-2.21-2.01-4.58-3.07-8.36-3.07-4.78,0-7.55,2.67-7.55,6.64,0,1.76.5,3.17,1.61,4.13,1.11.96,2.97,1.66,4.83,1.96l3.93.6c3.37.5,5.03,1.21,6.54,2.52,1.96,1.66,3.02,4.13,3.02,7.1,0,6.29-4.93,10.17-12.38,10.17Z"/><path class="cls-2" d="m807.79,730.52v32.42h-3.83v-32.42h-10.37v-3.42h24.57v3.42h-10.37Z"/><path class="cls-2" d="m836.84,763.24c-7.25,0-12.48-4.98-12.48-12.13v-24.01h3.83v23.71c0,5.44,3.42,9.01,8.66,9.01s8.71-3.57,8.71-9.01v-23.71h3.83v24.01c0,7.15-5.29,12.13-12.54,12.13Z"/><path class="cls-2" d="m880.59,759.62c-2.16,2.16-5.34,3.32-9.06,3.32h-12.28v-35.84h12.28c3.72,0,6.9,1.16,9.06,3.32,3.73,3.73,3.52,9.21,3.52,14.2s.2,11.28-3.52,15Zm-2.67-26.48c-1.86-1.91-4.28-2.62-7.05-2.62h-7.8v29h7.8c2.77,0,5.18-.71,7.05-2.62,2.47-2.57,2.37-7.9,2.37-12.28s.1-8.91-2.37-11.48Z"/><path class="cls-2" d="m893.12,762.94v-35.84h3.83v35.84h-3.83Z"/><path class="cls-2" d="m927.66,759.52c-2.42,2.42-5.59,3.72-9.16,3.72s-6.75-1.31-9.16-3.72c-3.37-3.37-3.37-6.9-3.37-14.5s0-11.12,3.37-14.5c2.42-2.42,5.59-3.73,9.16-3.73s6.75,1.31,9.16,3.73c3.37,3.37,3.37,6.9,3.37,14.5s0,11.12-3.37,14.5Zm-2.97-26.73c-1.56-1.61-3.83-2.57-6.19-2.57s-4.63.96-6.19,2.57c-2.26,2.32-2.52,4.73-2.52,12.23s.25,9.92,2.52,12.23c1.56,1.61,3.83,2.57,6.19,2.57s4.63-.96,6.19-2.57c2.27-2.32,2.52-4.73,2.52-12.23s-.25-9.92-2.52-12.23Z"/><g id="Layer_2"><g id="Layer_1-2"><path class="cls-1" d="m500.63,128.56c0-.62,26.79-83.7,26.79-83.73,2.85-8.95,4.95-18.13,6.28-27.43-8.96,11.16-16.81,23.17-23.45,35.85-4.42,8.16-8.55,15.85-12.86,23.92-4.93,8.84-9.75,17.26-14.65,26.04-8.66,15.47-17.26,29.95-17.26,29.95,11.37-3.56,23.28-5.13,35.19-4.64l-.02.04Zm490.31,24.16c20.31-9.81,33.8-26.52,33.55-43.54-.29-5.57-3.8-9.08-9.81-9.31-13.26.18-27.08,21.4-26.77,41.22-.12,4.08.93,8.12,3.03,11.63Zm-83.99-51.21c-3.23,0-6.85.2-10.34.55l-8.62,24.87c-3.93,11.32-6.28,21.2-6.34,25.22.44,8.71,7.43,13.06,22.1,13.26,2.34.02,4.68-.09,7.01-.31v-1.26c0-5.11,1.77-14.04,4.97-23.78,4.42-12.82,8.6-25.2,12.91-38.35-7.18.22-14.41-.44-21.62-.22h0l-.07.02Zm-118.27,48.63c20.4-9.88,33.69-26.86,33.44-43.83.15-4.88-3.68-8.96-8.56-9.11-.42-.01-.84,0-1.25.05-13.26.42-26.99,21.95-26.7,41.51-.12,4.02.95,7.99,3.07,11.41v-.02Zm-190.9,17.84c-16.31,6.63-24.31,11.47-33.55,11.76-15.27.49-22.52-5.75-23.21-19.54-.02-7.64,1.19-15.23,3.58-22.48-8.25,1.63-16.66,2.29-25.06,1.95-1.46,4.18-2.96,7.96-4.27,11.91-3.38,11.05-3.93,14.21-3.89,18.3v1.15c0,.45.08.9.22,1.33l.31.93-.86.22c-12.02,2.96-15.47,3.89-27.76,7.63l-1.59.49.49-1.59c.33-1.11.75-2.1,1.11-3.2,2.39-5.88,5.66-15.47,8.31-23.65l3.4-10.5.99-3.2c-8.84-1.2-17.77-1.54-26.68-1.02-1.89.13-3.76.39-5.61.77l-1.28.24c-21.35,36.93-34.61,43.9-70.27,46.28-4.26.27-8.54.06-12.75-.62l-.73-.13-.24-7.18,1.19.38c8.04,2.21,16.5,2.33,24.6.35,10.32-2.36,19.55-8.08,26.26-16.27,3.28-4.01,6.23-8.28,8.84-12.75,2.83-4.66,5.64-9.84,8.66-15.05,11.41-19.47,23.27-39.65,23.27-39.65,26.06-45,41.55-68.08,61.78-85.54,11.05-3.62,13.81-4.42,24.09-8.58l1.19-.49v1.3c.22,14.41-5.84,37.02-15.89,67.72-2.96,9.02-19.72,58-20.27,59.68,1.68-.18,5.37-.53,9.84-.73,5.55-.14,11.06-.94,16.42-2.39,1.55-4.42,3.34-9.19,5.42-14.57,11.05-28.11,23.5-55.65,37.31-82.51l2.7-4.82c18.21-35.54,26.06-6.98,26.52,9.35-.13,58.6-13.66,64.72-52.56,97.25-12.55,43.59,10.83,40.14,30.99,34.52,7.74-22.1,15.47-43.9,23.56-67.04,11.85-2.92,15.14-3.8,27.43-7.76-5.5,11.71-7.23,15.05-12.49,28,18.92-18.17,39.28-29.6,51.96-30.21,4.79-.31,8.92,3.32,9.23,8.11,0,.1.01.19.01.29,0,2.56-.91,6.21-3.74,11.96-1.59,3.4-3.01,6.63-4.62,9.92,21.68-20.11,39.54-29.51,53.33-30.17,6.63,0,10.76,2.96,10.65,8.16-.41,3.3-1.21,6.54-2.37,9.66-4.29,11.05-8.16,21.48-12.38,32.4-3.58,8.84-4,10.63-3.93,13.9.22,6.81,5.28,9.77,15.47,9.81,3.14-.06,6.25-.61,9.22-1.64-.96-2.77-1.5-5.67-1.61-8.6.6-30.37,38.81-62.68,76.14-63.86,9.79.2,16.42,5.55,16.71,13.99,0,18.41-24.31,39.19-61.09,50.28,9.08,8.84,20.95,13,39.63,13.04,8.76-.48,17.45-1.85,25.93-4.09.72-7.37,2.36-14.63,4.88-21.59,4.42-12.93,8.6-25.2,12.91-38.35-7.25.35-7.87.44-15.14.8,3.29-5.26,4.11-6.81,7.16-11.65,5.72.22,7.85.24,11.67.2,4.31-12.4,8.09-24.31,12.44-36.85,11.16-1.72,14.26-2.21,25.42-4.66-5.02,14.48-9.86,28.16-14.79,42.37,7.56-.24,10.59.4,17.88.2,1.3-.15,9.84-.38,13.75-.18,4.42-12.53,8.27-24.56,12.62-37.11,11.16-1.72,14.23-2.21,25.44-4.42-5.19,14.15-9.86,27.94-14.81,42.17,7.78-.24,9.77-.46,17.57-.6l-2.74,5.66c-1.19,2.21-2.37,4.42-3.56,6.79-6.63-.97-8.33-.86-15.05-1.37l-8.62,24.84c-3.76,11.47-6.43,21.26-6.37,25.29.44,8.84,7.43,13.26,22.1,13.57,1.5,0,3.36,0,5.46-.22-1.93-3.82-2.96-8.03-3.01-12.31.6-30.94,38.81-62.73,76.3-62.6,9.79.2,16.44,6.03,16.71,14.34-.2,18.46-24.84,38.35-61.4,49.4,8.84,9.28,21,13.84,39.79,14.21,7.43.23,14.86-.51,22.1-2.21.27.77.62,1.53.88,2.21-25.26,7.16-47.26,10.85-61.89,10.54-13.02-.27-22.1-3.85-27.39-10.45-2.21.6-4.24,1.15-6.34,1.79-22.43,5.95-27.81,6.94-35.03,6.92s-11.89-3.51-13.5-9.66c-2.21.6-4.22,1.19-6.34,1.81-22.32,5.9-27.76,7.12-34.99,7.1-8.66-.18-13.62-4.77-14.1-13.39-24.95,7.49-50.04,12.71-64.61,12.67-15.58,0-25.53-4.69-29.95-13.73l-2.21.86c-22.83,9.15-34.72,13-41.05,13.26-5.84.26-10.79-4.27-11.05-10.11,0-.05,0-.1,0-.15-.18-3.38.99-7.21,3.34-14.34,3.65-9.95,6.98-19.89,10.68-29.91,0-.29.53-1.61,1.06-3.67.42-1.1.78-2.23,1.06-3.38.31-1,.48-2.04.51-3.09-.24-3.54-3.47-5.33-9.48-5.24-11.25.55-20.82,13.02-35.36,46.88-2.5,5.86-5.04,11.38-7.52,17.13-8.43,1.49-16.72,3.65-24.8,6.48,6.23-17.02,11.91-33.4,18.32-50.84.27-1.46.82-2.63,1.64-5.5.24-1.41.64-2.56.99-4.09.27-1.2.45-2.42.53-3.65-.22-3.12-3.2-4.69-9.77-4.6-11.25.55-20.98,13.68-32.78,44.21-2.59,6.63-5.11,12.95-7.71,19.67-7.96,1.13-15.81,2.98-23.43,5.55l3.58-10.3-.09.07Zm-27.43-48.12c8.69-3.85,21.15-9.31,25.95-23.12,6.37-19.43,9.08-32.62,9.17-65.16-12.51,26.66-14.34,28.73-24.31,57.71-6.34,17.28-2.67,6.63-6.1,17.15-.88,2.87-1.79,5.33-4.6,13.44l-.11-.02Z"/></g></g><path class="cls-2" d="m44.23,52.33l-22.07,26.75v25.06h-7.01V11.69h7.01v57.78L69.03,11.69h8.44l-28.56,35.32,33.37,57.13h-8.31l-29.73-51.81Z"/><path class="cls-2" d="m129.28,104.91c-18.57,0-31.68-12.72-31.68-30.77V11.69h7.01v61.54c0,15.32,9.74,25.45,24.67,25.45s24.67-10.13,24.67-25.45V11.69h7.01v62.45c0,18.05-13.11,30.77-31.68,30.77Z"/><path class="cls-2" d="m222.12,64.92h-26.88v39.21h-7.01V11.69h33.89c15.97,0,27.92,9.61,27.92,26.62s-11.95,26.62-27.92,26.62Zm-.78-47h-26.1v40.77h26.1c12.85,0,21.68-6.49,21.68-20.38s-8.83-20.38-21.68-20.38Z"/><path class="cls-2" d="m297.41,104.13v-15.48l35.19-40.87c3.44-4.1,4.89-7.01,4.89-11.38,0-7.01-4.1-11.77-11.38-11.77-5.69,0-11.51,2.91-11.51,12.04h-17.2c0-17.2,12.57-27.51,28.7-27.51s28.57,10.45,28.57,27.38c0,9.13-3.57,14.02-10.05,21.56l-26.32,30.56h36.38v15.48h-57.28Z"/><path class="cls-2" d="m8.63,375.81v-64.85h12.66v64.85h-12.66Z"/><path class="cls-2" d="m96.79,369.25c-4.55,4.55-10.11,7.1-17.49,7.1s-13.02-2.55-17.58-7.1c-6.56-6.56-6.38-14.66-6.38-25.87s-.18-19.31,6.38-25.87c4.55-4.55,10.2-7.1,17.58-7.1s12.93,2.55,17.49,7.1c6.56,6.56,6.47,14.66,6.47,25.87s.09,19.31-6.47,25.87Zm-9.38-44.08c-1.82-2.1-4.64-3.46-8.11-3.46s-6.38,1.37-8.2,3.46c-2.46,2.73-3.1,5.74-3.1,18.22s.64,15.48,3.1,18.22c1.82,2.09,4.74,3.46,8.2,3.46s6.28-1.37,8.11-3.46c2.46-2.73,3.19-5.74,3.19-18.22s-.73-15.48-3.19-18.22Z"/><path class="cls-2" d="m141.33,351.4h-12.48v24.41h-12.66v-64.85h25.14c13.39,0,21.4,9.2,21.4,20.22s-8.02,20.22-21.4,20.22Zm-.64-29.15h-11.84v17.76h11.84c5.74,0,9.38-3.55,9.38-8.83s-3.64-8.93-9.38-8.93Z"/><path class="cls-2" d="m173.39,375.81v-64.85h12.66v64.85h-12.66Z"/><path class="cls-2" d="m219.02,376.36c-9.84,0-17.3-2.09-23.68-8.56l8.2-8.2c4.1,4.1,9.65,5.46,15.67,5.46,7.47,0,11.48-2.82,11.48-8.01,0-2.28-.64-4.19-2-5.46-1.27-1.18-2.73-1.82-5.74-2.28l-7.83-1.09c-5.56-.82-9.65-2.55-12.57-5.37-3.1-3.1-4.65-7.29-4.65-12.75,0-11.57,8.56-19.67,22.59-19.67,8.93,0,15.39,2.19,20.95,7.56l-8.01,7.92c-4.1-3.92-9.02-4.46-13.3-4.46-6.74,0-10.02,3.73-10.02,8.2,0,1.64.55,3.37,1.91,4.65,1.27,1.18,3.37,2.19,6.01,2.55l7.65,1.09c5.92.82,9.65,2.46,12.39,5.01,3.46,3.28,5.01,8.02,5.01,13.75,0,12.57-10.47,19.67-24.04,19.67Z"/><path class="cls-2" d="m251.07,375.81v-10.2l27.69-43.35h-26.5v-11.29h41.44v10.02l-27.78,43.54h27.78v11.29h-42.62Z"/><path class="cls-2" d="m363.73,375.81l-16.67-29.51-8.38,10.02v19.49h-12.66v-64.85h12.66v28.23l22.86-28.23h15.39l-21.5,25.78,23.04,39.07h-14.75Z"/><path class="cls-2" d="m409.45,376.36c-13.3,0-23.86-9.02-23.86-22.77v-42.62h12.66v42.17c0,7.47,4.37,11.93,11.2,11.93s11.29-4.46,11.29-11.93v-42.17h12.57v42.62c0,13.75-10.56,22.77-23.86,22.77Z"/><path class="cls-2" d="m469.11,376.36c-6.92,0-12.75-2.37-17.49-7.1-2.82-2.82-4.55-6.1-5.28-9.75s-1.09-9.02-1.09-16.12.36-12.48,1.09-16.12c.73-3.73,2.46-6.92,5.28-9.75,4.74-4.74,10.57-7.1,17.49-7.1,12.48,0,21.68,7.29,23.86,20.49h-12.84c-1.37-5.56-4.83-9.2-10.93-9.2-3.46,0-6.19,1.09-8.11,3.37-2.64,2.82-3.19,5.74-3.19,18.31s.55,15.48,3.19,18.31c1.91,2.28,4.64,3.37,8.11,3.37,6.1,0,9.56-3.64,10.93-9.2h12.84c-2.19,13.21-11.48,20.49-23.86,20.49Z"/><path class="cls-2" d="m538.51,375.81v-27.14h-21.95v27.14h-12.66v-64.85h12.66v26.5h21.95v-26.5h12.66v64.85h-12.66Z"/><path class="cls-2" d="m604.63,375.81l-25.68-39.8v39.8h-12.66v-64.85h11.29l25.68,39.71v-39.71h12.66v64.85h-11.29Z"/><path class="cls-2" d="m631.04,375.81v-64.85h12.66v64.85h-12.66Z"/><path class="cls-2" d="m658.82,375.81v-64.85h42.72v11.29h-30.06v15.21h25.59v11.29h-25.59v15.76h30.06v11.29h-7.74c-2.91,1.37-4.37,3.28-4.37,5.56,0,1.46.91,2.19,2.73,2.19,1.18,0,2.37-.46,3.55-1.37l4.1,8.02c-3.19,2-6.29,3.01-9.2,3.01-3.37-.09-6.29-1.18-8.56-3.28-2.28-2.09-3.37-4.55-3.28-7.38,0-2.19.73-4.46,2.19-6.74h-22.13Z"/><path class="cls-2" d="m752.9,376.36c-9.84,0-17.3-2.09-23.68-8.56l8.2-8.2c4.1,4.1,9.65,5.46,15.67,5.46,7.47,0,11.48-2.82,11.48-8.01,0-2.28-.64-4.19-2-5.46-1.27-1.18-2.73-1.82-5.74-2.28l-7.83-1.09c-5.56-.82-9.65-2.55-12.57-5.37-3.1-3.1-4.65-7.29-4.65-12.75,0-11.57,8.56-19.67,22.59-19.67,8.93,0,15.39,2.19,20.95,7.56l-8.01,7.92c-4.1-3.92-9.02-4.46-13.3-4.46-6.74,0-10.02,3.73-10.02,8.2,0,1.64.55,3.37,1.91,4.65,1.27,1.18,3.37,2.19,6.01,2.55l7.65,1.09c5.92.82,9.65,2.46,12.39,5.01,3.46,3.28,5.01,8.02,5.01,13.75,0,12.57-10.47,19.67-24.04,19.67Z"/><path class="cls-2" d="m844.15,375.81h-10.57l-11.93-39.35-11.93,39.35h-10.57l-17.3-64.85h13.21l10.02,40.89,11.84-40.89h9.47l11.84,40.89,10.11-40.89h13.21l-17.4,64.85Z"/><path class="cls-2" d="m908,369.25c-4.55,4.55-10.11,7.1-17.49,7.1s-13.02-2.55-17.58-7.1c-6.56-6.56-6.38-14.66-6.38-25.87s-.18-19.31,6.38-25.87c4.55-4.55,10.2-7.1,17.58-7.1s12.93,2.55,17.49,7.1c6.56,6.56,6.47,14.66,6.47,25.87s.09,19.31-6.47,25.87Zm-9.38-44.08c-1.82-2.1-4.64-3.46-8.11-3.46s-6.38,1.37-8.2,3.46c-2.46,2.73-3.1,5.74-3.1,18.22s.64,15.48,3.1,18.22c1.82,2.09,4.74,3.46,8.2,3.46s6.28-1.37,8.11-3.46c2.46-2.73,3.19-5.74,3.19-18.22s-.73-15.48-3.19-18.22Z"/><path class="cls-2" d="m927.4,375.81v-64.85h12.66v64.85h-12.66Z"/><path class="cls-2" d="m976.85,376.36c-6.92,0-12.75-2.37-17.49-7.1-2.82-2.82-4.55-6.1-5.28-9.75s-1.09-9.02-1.09-16.12.36-12.48,1.09-16.12c.73-3.73,2.46-6.92,5.28-9.75,4.74-4.74,10.57-7.1,17.49-7.1,12.48,0,21.68,7.29,23.86,20.49h-12.84c-1.37-5.56-4.83-9.2-10.93-9.2-3.46,0-6.19,1.09-8.11,3.37-2.64,2.82-3.19,5.74-3.19,18.31s.55,15.48,3.19,18.31c1.91,2.28,4.64,3.37,8.11,3.37,6.1,0,9.56-3.64,10.93-9.2h12.84c-2.19,13.21-11.48,20.49-23.86,20.49Z"/><path class="cls-2" d="m1046.25,375.81v-27.14h-21.95v27.14h-12.66v-64.85h12.66v26.5h21.95v-26.5h12.66v64.85h-12.66Z"/><path class="cls-2" d="m54.72,473.99v-37.8l-12.39,24.59h-8.56l-12.48-24.59v37.8h-12.66v-64.85h12.48l16.94,35.07,16.85-35.07h12.48v64.85h-12.66Z"/><path class="cls-2" d="m119.38,473.99l-3.83-11.48h-23.04l-3.92,11.48h-13.21l23.59-64.85h9.93l23.68,64.85h-13.21Zm-15.12-45.72l-8.2,23.59h16.12l-7.92-23.59Z"/><path class="cls-2" d="m175.03,473.99l-12.66-25.87h-9.11v25.87h-12.66v-64.85h25.41c13.21,0,21.04,9.02,21.04,19.86,0,9.11-5.56,14.75-11.84,17.03l14.48,27.96h-14.66Zm-9.84-53.55h-11.93v17.12h11.93c5.56,0,9.2-3.55,9.2-8.56s-3.64-8.56-9.2-8.56Z"/><path class="cls-2" d="m196.25,473.99v-10.2l27.69-43.35h-26.5v-11.29h41.44v10.02l-27.78,43.54h27.78v11.29h-42.62Z"/><path class="cls-2" d="m250.07,473.99v-64.85h42.72v11.29h-30.06v15.21h25.59v11.29h-25.59v15.76h30.06v11.29h-42.72Z"/><path class="cls-2" d="m354.81,473.99h-11.29l-25.68-39.8v39.8h-12.66v-64.85h11.29l25.68,39.71v-39.71h12.66v64.85Zm-13.66-86.62l-10.38,15.48h-7.92l5.83-15.48h12.48Z"/><path class="cls-2" d="m384.23,453.68h-8.74l-2.91-44.54h14.66l-3.01,44.54Zm-11.11,20.31v-13.48h13.57v13.48h-13.57Z"/><rect class="cls-3" x="7.84" y="198.61" width="1058.14" height="88.06" rx="31.66" ry="31.66"/><path class="cls-4" d="m66.97,263.84h-6.44l-7.27-23.97-7.27,23.97h-6.44l-10.54-39.51h8.05l6.1,24.92,7.21-24.92h5.77l7.21,24.92,6.16-24.92h8.05l-10.6,39.51Z"/><path class="cls-4" d="m97.6,247.63v16.21h-7.66v-16.21l-11.88-23.31h8.38l7.38,15.93,7.27-15.93h8.38l-11.88,23.31Z"/><path class="cls-4" d="m129.57,248.96h-7.6v14.87h-7.71v-39.51h15.32c8.16,0,13.04,5.6,13.04,12.32s-4.88,12.32-13.04,12.32Zm-.39-17.76h-7.21v10.82h7.21c3.5,0,5.72-2.16,5.72-5.38s-2.22-5.44-5.72-5.44Z"/><path class="cls-4" d="m149.11,263.84v-39.51h26.03v6.88h-18.31v9.27h15.59v6.88h-15.59v9.6h18.31v6.88h-26.03Z"/><path class="cls-4" d="m209.32,263.84h-25.64v-13.54l-3.44,2v-6.44l3.44-2v-19.53h7.71v14.71l7.1-4.5v6.38l-7.1,4.5v11.54h17.92v6.88Z"/><path class="cls-4" d="m238.95,263.84l-15.65-24.25v24.25h-7.71v-39.51h6.88l15.65,24.2v-24.2h7.71v39.51h-6.88Z"/><path class="cls-4" d="m255.05,263.84v-39.51h7.71v39.51h-7.71Z"/><path class="cls-4" d="m277.69,264.17c-4.27,0-7.21-1.11-10.16-4.05l5.11-5.05c1.28,1.28,2.5,2.22,5.05,2.22,3.77,0,6.22-2.22,6.22-6.77v-26.19h7.71v26.53c0,8.71-6.6,13.32-13.93,13.32Z"/><path class="cls-4" d="m320.93,231.2v9.71h15.59v6.88h-15.59v16.04h-7.71v-39.51h26.03v6.88h-18.31Z"/><path class="cls-4" d="m368.77,259.84c-2.78,2.77-6.16,4.33-10.66,4.33s-7.94-1.55-10.71-4.33c-4-4-3.88-8.94-3.88-15.76s-.11-11.77,3.88-15.76c2.77-2.77,6.22-4.33,10.71-4.33s7.88,1.55,10.66,4.33c4,4,3.94,8.94,3.94,15.76s.06,11.77-3.94,15.76Zm-5.72-26.86c-1.11-1.28-2.83-2.11-4.94-2.11s-3.88.83-5,2.11c-1.5,1.67-1.89,3.5-1.89,11.1s.39,9.43,1.89,11.1c1.11,1.28,2.89,2.11,5,2.11s3.83-.83,4.94-2.11c1.5-1.67,1.94-3.5,1.94-11.1s-.44-9.43-1.94-11.1Z"/><path class="cls-4" d="m401.57,263.84l-7.71-15.76h-5.55v15.76h-7.71v-39.51h15.48c8.05,0,12.82,5.49,12.82,12.1,0,5.55-3.38,8.99-7.21,10.38l8.82,17.04h-8.93Zm-5.99-32.63h-7.27v10.43h7.27c3.39,0,5.61-2.16,5.61-5.22s-2.22-5.22-5.61-5.22Z"/><path class="cls-4" d="m444.97,263.84v-23.03l-7.55,14.98h-5.22l-7.6-14.98v23.03h-7.71v-39.51h7.6l10.32,21.37,10.27-21.37h7.6v39.51h-7.71Z"/><path class="cls-4" d="m475.82,264.17c-8.1,0-14.54-5.49-14.54-13.87v-25.97h7.71v25.69c0,4.55,2.66,7.27,6.83,7.27s6.88-2.72,6.88-7.27v-25.69h7.66v25.97c0,8.38-6.44,13.87-14.54,13.87Z"/><path class="cls-4" d="m498.97,263.84v-39.51h7.71v32.63h17.92v6.88h-25.64Z"/><path class="cls-4" d="m553.35,263.84l-2.33-6.99h-14.04l-2.39,6.99h-8.05l14.37-39.51h6.05l14.43,39.51h-8.05Zm-9.21-27.86l-5,14.37h9.82l-4.83-14.37Z"/><path class="cls-4" d="m587.26,263.84l-7.71-15.76h-5.55v15.76h-7.71v-39.51h15.48c8.05,0,12.82,5.49,12.82,12.1,0,5.55-3.38,8.99-7.21,10.38l8.82,17.04h-8.93Zm-5.99-32.63h-7.27v10.43h7.27c3.39,0,5.61-2.16,5.61-5.22s-2.22-5.22-5.61-5.22Z"/><path class="cls-4" d="m600.2,263.84v-6.22l16.87-26.42h-16.15v-6.88h25.25v6.1l-16.93,26.53h16.93v6.88h-25.97Z"/><path class="cls-4" d="m643.48,263.84v-6.22l16.87-26.42h-16.15v-6.88h25.25v6.1l-16.93,26.53h16.93v6.88h-25.97Z"/><path class="cls-4" d="m700.65,259.67c-3.05,3.11-6.71,4.5-11.15,4.5s-7.77-1.44-10.66-4.33c-1.72-1.72-2.78-3.72-3.22-5.94-.44-2.22-.67-5.49-.67-9.82s.22-7.6.67-9.82c.44-2.28,1.5-4.22,3.22-5.94,2.89-2.89,6.44-4.33,10.66-4.33,8.99,0,13.82,5.77,14.87,12.65h-7.77c-.94-3.83-3.27-5.77-7.1-5.77-2.05,0-3.72.72-4.94,2.11-1.44,1.83-1.89,3.27-1.89,11.1s.33,9.32,1.89,11.15c1.17,1.39,2.83,2.05,4.94,2.05,2.28,0,4.11-.72,5.49-2.22,1.17-1.33,1.78-3.11,1.78-5.27v-1.5h-7.27v-6.44h14.93v5.77c0,5.77-1.05,9.16-3.77,12.04Z"/><path class="cls-4" d="m738.27,263.84h-25.64v-13.54l-3.44,2v-6.44l3.44-2v-19.53h7.71v14.71l7.1-4.5v6.38l-7.1,4.5v11.54h17.92v6.88Z"/><path class="cls-4" d="m768.46,259.84c-2.78,2.77-6.16,4.33-10.66,4.33s-7.94-1.55-10.71-4.33c-4-4-3.88-8.94-3.88-15.76s-.11-11.77,3.88-15.76c2.77-2.77,6.22-4.33,10.71-4.33s7.88,1.55,10.66,4.33c4,4,3.94,8.94,3.94,15.76s.06,11.77-3.94,15.76Zm-5.72-26.86c-1.11-1.28-2.83-2.11-4.94-2.11s-3.88.83-5,2.11c-1.5,1.67-1.89,3.5-1.89,11.1s.39,9.43,1.89,11.1c1.11,1.28,2.89,2.11,5,2.11s3.83-.83,4.94-2.11c1.5-1.67,1.94-3.5,1.94-11.1s-.44-9.43-1.94-11.1Z"/><path class="cls-4" d="m791.16,264.17c-5.99,0-10.54-1.28-14.43-5.22l4.99-4.99c2.5,2.5,5.88,3.33,9.55,3.33,4.55,0,6.99-1.72,6.99-4.88,0-1.39-.39-2.55-1.22-3.33-.78-.72-1.67-1.11-3.5-1.39l-4.77-.67c-3.38-.5-5.88-1.55-7.66-3.27-1.89-1.89-2.83-4.44-2.83-7.77,0-7.05,5.22-11.99,13.76-11.99,5.44,0,9.38,1.33,12.76,4.61l-4.88,4.83c-2.5-2.39-5.49-2.72-8.1-2.72-4.11,0-6.1,2.28-6.1,4.99,0,1,.33,2.05,1.17,2.83.78.72,2.05,1.33,3.66,1.55l4.66.67c3.61.5,5.88,1.5,7.55,3.05,2.11,2,3.05,4.88,3.05,8.38,0,7.66-6.38,11.99-14.65,11.99Z"/><path class="cls-4" d="m810.7,263.84v-6.22l16.87-26.42h-16.15v-6.88h25.25v6.1l-16.93,26.53h16.93v6.88h-25.97Z"/><path class="cls-4" d="m843.5,263.84v-39.51h26.03v6.88h-18.31v9.27h15.59v6.88h-15.59v9.6h18.31v6.88h-26.03Z"/><path class="cls-4" d="m900.44,263.84l-15.65-24.25v24.25h-7.71v-39.51h6.88l15.65,24.2v-24.2h7.71v39.51h-6.88Z"/><path class="cls-4" d="m916.54,263.84v-39.51h7.71v39.51h-7.71Z"/><path class="cls-4" d="m957.38,259.84c-2.78,2.77-6.16,4.33-10.66,4.33s-7.94-1.55-10.71-4.33c-4-4-3.88-8.94-3.88-15.76s-.11-11.77,3.88-15.76c2.77-2.77,6.22-4.33,10.71-4.33s7.88,1.55,10.66,4.33c4,4,3.94,8.94,3.94,15.76s.06,11.77-3.94,15.76Zm-5.72-26.86c-1.11-1.28-2.83-2.11-4.94-2.11s-3.88.83-5,2.11c-1.5,1.67-1.89,3.5-1.89,11.1s.39,9.43,1.89,11.1c1.11,1.28,2.89,2.11,5,2.11s3.83-.83,4.94-2.11c1.5-1.67,1.94-3.5,1.94-11.1s-.44-9.43-1.94-11.1Z"/><path class="cls-4" d="m1002.33,263.84h-6.44l-7.27-23.97-7.27,23.97h-6.44l-10.54-39.51h8.05l6.1,24.92,7.21-24.92h5.77l7.21,24.92,6.16-24.92h8.05l-10.6,39.51Z"/><path class="cls-4" d="m1032.97,247.63v16.21h-7.66v-16.21l-11.88-23.31h8.38l7.38,15.93,7.27-15.93h8.38l-11.88,23.31Z"/></svg>