<?xml version="1.0" encoding="UTF-8"?><svg id="Warstwa_1" xmlns="http://www.w3.org/2000/svg" viewBox="0 0 1070.45 784.51"><defs><style>.cls-1{fill:#24408f;stroke-width:0px;}</style></defs><path class="cls-1" d="m64.22,78.83l-14.51,17.58v16.47h-4.61v-60.76h4.61v37.98l30.81-37.98h5.55l-18.78,23.21,21.93,37.55h-5.46l-19.54-34.05Z"/><path class="cls-1" d="m120.12,113.4c-12.2,0-20.82-8.36-20.82-20.23v-41.05h4.61v40.45c0,10.07,6.4,16.73,16.21,16.73s16.21-6.66,16.21-16.73v-40.45h4.61v41.05c0,11.86-8.62,20.23-20.82,20.23Z"/><path class="cls-1" d="m181.14,87.11h-17.67v25.77h-4.61v-60.76h22.27c10.5,0,18.35,6.32,18.35,17.5s-7.85,17.5-18.35,17.5Zm-.51-30.89h-17.15v26.8h17.15c8.45,0,14.25-4.27,14.25-13.4s-5.8-13.4-14.25-13.4Z"/><path class="cls-1" d="m230.12,112.88v-9.98l22.7-26.37c2.22-2.65,3.16-4.52,3.16-7.34,0-4.52-2.65-7.6-7.34-7.6-3.67,0-7.42,1.88-7.42,7.77h-11.09c0-11.09,8.11-17.75,18.52-17.75s18.43,6.74,18.43,17.67c0,5.89-2.3,9.05-6.49,13.91l-16.98,19.71h23.47v9.98h-36.95Z"/><path class="cls-1" d="m306.59,107.51l-12.03-12.03-11.95,12.03-7-7,12.03-12.03-12.03-12.03,7-7,11.95,12.03,12.03-12.03,7,7-12.03,12.03,12.03,12.03-7,7Z"/><path class="cls-1" d="m379.22,112.88l-3.58-10.75h-21.59l-3.67,10.75h-12.38l22.1-60.76h9.3l22.19,60.76h-12.38Zm-14.17-42.84l-7.68,22.1h15.11l-7.42-22.1Z"/><path class="cls-1" d="m399.1,112.88v-60.76h11.86v50.18h27.57v10.58h-39.43Z"/><path class="cls-1" d="m491.36,112.88v-35.42l-11.61,23.04h-8.02l-11.69-23.04v35.42h-11.86v-60.76h11.69l15.87,32.86,15.79-32.86h11.69v60.76h-11.86Z"/><path class="cls-1" d="m517.39,112.88v-60.76h40.03v10.58h-28.16v14.25h23.98v10.58h-23.98v14.76h28.16v10.58h-40.03Z"/><path class="cls-1" d="m592.24,62.7v50.18h-11.86v-50.18h-15.87v-10.58h43.61v10.58h-15.87Z"/><path class="cls-1" d="m640.97,62.7v50.18h-11.86v-50.18h-15.87v-10.58h43.61v10.58h-15.87Z"/><path class="cls-1" d="m666.49,112.88v-60.76h40.03v10.58h-28.16v14.25h23.98v10.58h-23.98v14.76h28.16v10.58h-40.03Z"/><path class="cls-1" d="m42.8,215.3v-60.76h11.86v60.76h-11.86Z"/><path class="cls-1" d="m125.41,209.15c-4.27,4.27-9.47,6.66-16.39,6.66s-12.2-2.39-16.47-6.66c-6.14-6.15-5.97-13.74-5.97-24.24s-.17-18.09,5.97-24.24c4.27-4.27,9.56-6.66,16.47-6.66s12.12,2.39,16.39,6.66c6.14,6.14,6.06,13.74,6.06,24.24s.08,18.09-6.06,24.24Zm-8.79-41.31c-1.71-1.96-4.35-3.24-7.6-3.24s-5.97,1.28-7.68,3.24c-2.3,2.56-2.9,5.38-2.9,17.07s.6,14.51,2.9,17.07c1.71,1.96,4.44,3.24,7.68,3.24s5.89-1.28,7.6-3.24c2.3-2.56,2.99-5.38,2.99-17.07s-.68-14.51-2.99-17.07Z"/><path class="cls-1" d="m167.14,192.43h-11.69v22.87h-11.86v-60.76h23.55c12.54,0,20.06,8.62,20.06,18.95s-7.51,18.95-20.06,18.95Zm-.6-27.31h-11.09v16.64h11.09c5.38,0,8.79-3.33,8.79-8.28s-3.41-8.36-8.79-8.36Z"/><path class="cls-1" d="m197.18,215.3v-60.76h11.86v60.76h-11.86Z"/><path class="cls-1" d="m239.94,215.81c-9.22,0-16.21-1.96-22.19-8.02l7.68-7.68c3.84,3.84,9.05,5.12,14.68,5.12,7,0,10.75-2.65,10.75-7.51,0-2.13-.6-3.93-1.88-5.12-1.2-1.11-2.56-1.71-5.38-2.13l-7.34-1.02c-5.21-.77-9.05-2.39-11.78-5.04-2.9-2.9-4.35-6.83-4.35-11.95,0-10.84,8.02-18.43,21.16-18.43,8.36,0,14.42,2.05,19.63,7.08l-7.51,7.42c-3.84-3.67-8.45-4.18-12.46-4.18-6.32,0-9.39,3.5-9.39,7.68,0,1.54.51,3.16,1.79,4.35,1.2,1.11,3.16,2.05,5.63,2.39l7.17,1.02c5.55.77,9.05,2.3,11.61,4.69,3.24,3.07,4.69,7.51,4.69,12.89,0,11.78-9.81,18.43-22.53,18.43Z"/><path class="cls-1" d="m269.98,215.3v-9.56l25.94-40.62h-24.83v-10.58h38.83v9.39l-26.03,40.79h26.03v10.58h-39.94Z"/><path class="cls-1" d="m375.55,215.3l-15.62-27.65-7.85,9.39v18.26h-11.86v-60.76h11.86v26.46l21.42-26.46h14.42l-20.14,24.15,21.59,36.61h-13.83Z"/><path class="cls-1" d="m418.39,215.81c-12.46,0-22.36-8.45-22.36-21.34v-39.94h11.86v39.51c0,7,4.1,11.18,10.5,11.18s10.58-4.18,10.58-11.18v-39.51h11.78v39.94c0,12.89-9.9,21.34-22.36,21.34Z"/><path class="cls-1" d="m474.29,215.81c-6.49,0-11.95-2.22-16.39-6.66-2.65-2.65-4.27-5.72-4.95-9.13s-1.02-8.45-1.02-15.11.34-11.69,1.02-15.11c.68-3.5,2.3-6.49,4.95-9.13,4.44-4.44,9.9-6.66,16.39-6.66,11.69,0,20.31,6.83,22.36,19.2h-12.03c-1.28-5.21-4.52-8.62-10.24-8.62-3.24,0-5.8,1.02-7.6,3.16-2.47,2.65-2.99,5.38-2.99,17.15s.51,14.51,2.99,17.15c1.79,2.13,4.35,3.16,7.6,3.16,5.72,0,8.96-3.41,10.24-8.62h12.03c-2.05,12.37-10.75,19.2-22.36,19.2Z"/><path class="cls-1" d="m539.32,215.3v-25.43h-20.57v25.43h-11.86v-60.76h11.86v24.83h20.57v-24.83h11.86v60.76h-11.86Z"/><path class="cls-1" d="m601.28,215.3l-24.07-37.29v37.29h-11.86v-60.76h10.58l24.07,37.21v-37.21h11.86v60.76h-10.58Z"/><path class="cls-1" d="m626.03,215.3v-60.76h11.86v60.76h-11.86Z"/><path class="cls-1" d="m652.06,215.3v-60.76h40.03v10.58h-28.16v14.25h23.98v10.58h-23.98v14.76h28.16v10.58h-7.25c-2.73,1.28-4.1,3.07-4.1,5.21,0,1.37.85,2.05,2.56,2.05,1.11,0,2.22-.43,3.33-1.28l3.84,7.51c-2.99,1.88-5.89,2.82-8.62,2.82-3.16-.09-5.89-1.11-8.02-3.07-2.13-1.96-3.16-4.27-3.07-6.91,0-2.05.68-4.18,2.05-6.32h-20.74Z"/><path class="cls-1" d="m740.22,215.81c-9.22,0-16.21-1.96-22.19-8.02l7.68-7.68c3.84,3.84,9.05,5.12,14.68,5.12,7,0,10.75-2.65,10.75-7.51,0-2.13-.6-3.93-1.88-5.12-1.2-1.11-2.56-1.71-5.38-2.13l-7.34-1.02c-5.21-.77-9.05-2.39-11.78-5.04-2.9-2.9-4.35-6.83-4.35-11.95,0-10.84,8.02-18.43,21.16-18.43,8.36,0,14.42,2.05,19.63,7.08l-7.51,7.42c-3.84-3.67-8.45-4.18-12.46-4.18-6.32,0-9.39,3.5-9.39,7.68,0,1.54.51,3.16,1.79,4.35,1.2,1.11,3.16,2.05,5.63,2.39l7.17,1.02c5.55.77,9.05,2.3,11.61,4.69,3.24,3.07,4.69,7.51,4.69,12.89,0,11.78-9.81,18.43-22.53,18.43Z"/><path class="cls-1" d="m825.74,215.3h-9.9l-11.18-36.87-11.18,36.87h-9.9l-16.21-60.76h12.37l9.39,38.32,11.09-38.32h8.88l11.09,38.32,9.47-38.32h12.37l-16.3,60.76Z"/><path class="cls-1" d="m885.56,209.15c-4.27,4.27-9.47,6.66-16.39,6.66s-12.2-2.39-16.47-6.66c-6.14-6.15-5.97-13.74-5.97-24.24s-.17-18.09,5.97-24.24c4.27-4.27,9.56-6.66,16.47-6.66s12.12,2.39,16.39,6.66c6.14,6.14,6.06,13.74,6.06,24.24s.09,18.09-6.06,24.24Zm-8.79-41.31c-1.71-1.96-4.35-3.24-7.59-3.24s-5.97,1.28-7.68,3.24c-2.3,2.56-2.9,5.38-2.9,17.07s.6,14.51,2.9,17.07c1.71,1.96,4.44,3.24,7.68,3.24s5.89-1.28,7.59-3.24c2.3-2.56,2.99-5.38,2.99-17.07s-.68-14.51-2.99-17.07Z"/><path class="cls-1" d="m903.74,215.3v-60.76h11.86v60.76h-11.86Z"/><path class="cls-1" d="m950.08,215.81c-6.49,0-11.95-2.22-16.39-6.66-2.65-2.65-4.27-5.72-4.95-9.13-.68-3.41-1.02-8.45-1.02-15.11s.34-11.69,1.02-15.11c.68-3.5,2.3-6.49,4.95-9.13,4.44-4.44,9.9-6.66,16.39-6.66,11.69,0,20.31,6.83,22.36,19.2h-12.03c-1.28-5.21-4.52-8.62-10.24-8.62-3.24,0-5.8,1.02-7.6,3.16-2.48,2.65-2.99,5.38-2.99,17.15s.51,14.51,2.99,17.15c1.79,2.13,4.35,3.16,7.6,3.16,5.72,0,8.96-3.41,10.24-8.62h12.03c-2.05,12.37-10.75,19.2-22.36,19.2Z"/><path class="cls-1" d="m1015.12,215.3v-25.43h-20.57v25.43h-11.86v-60.76h11.86v24.83h20.57v-24.83h11.86v60.76h-11.86Z"/><path class="cls-1" d="m85.98,317.71v-35.42l-11.61,23.04h-8.02l-11.69-23.04v35.42h-11.86v-60.76h11.69l15.87,32.86,15.79-32.86h11.69v60.76h-11.86Z"/><path class="cls-1" d="m146.57,317.71l-3.58-10.75h-21.59l-3.67,10.75h-12.38l22.1-60.76h9.3l22.19,60.76h-12.38Zm-14.17-42.84l-7.68,22.1h15.11l-7.42-22.1Z"/><path class="cls-1" d="m198.72,317.71l-11.86-24.24h-8.53v24.24h-11.86v-60.76h23.81c12.37,0,19.71,8.45,19.71,18.6,0,8.53-5.21,13.83-11.09,15.96l13.57,26.2h-13.74Zm-9.22-50.18h-11.18v16.04h11.18c5.21,0,8.62-3.33,8.62-8.02s-3.41-8.02-8.62-8.02Z"/><path class="cls-1" d="m218.6,317.71v-9.56l25.94-40.62h-24.83v-10.58h38.83v9.39l-26.03,40.79h26.03v10.58h-39.94Z"/><path class="cls-1" d="m269.04,317.71v-60.76h40.03v10.58h-28.16v14.25h23.98v10.58h-23.98v14.76h28.16v10.58h-40.03Z"/><path class="cls-1" d="m367.19,317.71h-10.58l-24.07-37.29v37.29h-11.86v-60.76h10.58l24.07,37.21v-37.21h11.86v60.76Zm-12.8-81.16l-9.73,14.51h-7.42l5.46-14.51h11.69Z"/><path class="cls-1" d="m394.75,298.68h-8.19l-2.73-41.73h13.74l-2.82,41.73Zm-10.41,19.03v-12.63h12.72v12.63h-12.72Z"/><path class="cls-1" d="m72.62,685.08l-11.5-20.08-7.95,9.54v10.55h-4.03v-37.73h4.03v21.67l17.59-21.67h4.93l-11.87,14.57,13.57,23.16h-4.77Z"/><path class="cls-1" d="m104.47,681.48c-2.54,2.54-5.88,3.92-9.65,3.92s-7.1-1.38-9.64-3.92c-3.55-3.55-3.55-7.26-3.55-15.26s0-11.71,3.55-15.26c2.54-2.54,5.88-3.92,9.64-3.92s7.1,1.38,9.65,3.92c3.55,3.55,3.55,7.26,3.55,15.26s0,11.71-3.55,15.26Zm-3.13-28.14c-1.64-1.7-4.03-2.7-6.52-2.7s-4.88,1.01-6.52,2.7c-2.38,2.44-2.65,4.98-2.65,12.88s.27,10.44,2.65,12.88c1.64,1.7,4.03,2.7,6.52,2.7s4.88-1.01,6.52-2.7c2.38-2.44,2.65-4.98,2.65-12.88s-.26-10.44-2.65-12.88Z"/><path class="cls-1" d="m141.57,685.08l-20.03-30.26v30.26h-4.03v-37.73h3.82l20.03,30.15v-30.15h4.03v37.73h-3.82Z"/><path class="cls-1" d="m179.78,685.08l-11.5-20.08-7.95,9.54v10.55h-4.03v-37.73h4.03v21.67l17.59-21.67h4.93l-11.87,14.57,13.57,23.16h-4.77Z"/><path class="cls-1" d="m203.37,685.4c-7.63,0-13.14-5.25-13.14-12.77v-25.28h4.03v24.96c0,5.72,3.6,9.49,9.12,9.49s9.17-3.76,9.17-9.49v-24.96h4.03v25.28c0,7.53-5.56,12.77-13.2,12.77Z"/><path class="cls-1" d="m248.63,685.08l-8.58-16.75h-9.06v16.75h-4.03v-37.73h14.47c6.57,0,11.18,3.97,11.18,10.49,0,5.51-3.34,9.12-8.21,10.12l8.96,17.12h-4.72Zm-7.58-34.13h-10.07v13.83h10.07c4.4,0,7.53-2.28,7.53-6.89s-3.13-6.94-7.53-6.94Z"/><path class="cls-1" d="m271.42,685.4c-5.67,0-9.38-1.43-12.93-4.98l2.76-2.75c3.13,3.13,6.04,4.13,10.28,4.13,5.51,0,8.9-2.6,8.9-7,0-1.96-.58-3.66-1.8-4.72-1.22-1.06-2.17-1.38-4.93-1.8l-4.4-.69c-2.97-.48-5.3-1.43-6.94-2.86-1.91-1.7-2.86-4.03-2.86-7.05,0-6.41,4.61-10.65,12.08-10.65,4.82,0,8,1.22,11.23,4.13l-2.6,2.6c-2.33-2.12-4.82-3.23-8.8-3.23-5.03,0-7.95,2.81-7.95,7,0,1.85.53,3.34,1.7,4.34,1.17,1.01,3.13,1.75,5.09,2.07l4.13.64c3.55.53,5.3,1.27,6.89,2.65,2.07,1.75,3.18,4.35,3.18,7.47,0,6.62-5.19,10.7-13.04,10.7Z"/><path class="cls-1" d="m317.16,650.95v34.13h-4.03v-34.13h-10.92v-3.6h25.86v3.6h-10.92Z"/><path class="cls-1" d="m356.8,685.08l-8.58-16.75h-9.06v16.75h-4.03v-37.73h14.47c6.57,0,11.18,3.97,11.18,10.49,0,5.51-3.34,9.12-8.21,10.12l8.96,17.12h-4.72Zm-7.58-34.13h-10.07v13.83h10.07c4.4,0,7.53-2.28,7.53-6.89s-3.13-6.94-7.53-6.94Z"/><path class="cls-1" d="m399.2,685.08h-3.76l-8.37-30.21-8.37,30.21h-3.76l-9.65-37.73h4.29l7.37,30.42,8.32-30.42h3.6l8.32,30.42,7.37-30.42h4.29l-9.65,37.73Z"/><path class="cls-1" d="m436.57,685.08l-3.02-8.53h-16.48l-3.02,8.53h-4.29l13.88-37.73h3.39l13.83,37.73h-4.29Zm-11.18-31.96l-7.1,19.92h14.1l-7-19.92Z"/><path class="cls-1" d="m481.93,681.26c-2.65,2.65-5.88,4.13-10.17,4.13s-7.58-1.48-10.23-4.13c-3.82-3.82-3.71-8.53-3.71-15.05s-.11-11.23,3.71-15.05c2.65-2.65,5.94-4.13,10.23-4.13s7.52,1.48,10.17,4.13c3.82,3.82,3.76,8.53,3.76,15.05s.05,11.23-3.76,15.05Zm-5.46-25.65c-1.06-1.22-2.7-2.01-4.72-2.01s-3.71.79-4.77,2.01c-1.43,1.59-1.8,3.34-1.8,10.6s.37,9.01,1.8,10.6c1.06,1.22,2.75,2.01,4.77,2.01s3.66-.79,4.72-2.01c1.43-1.59,1.85-3.34,1.85-10.6s-.42-9.01-1.85-10.6Z"/><path class="cls-1" d="m516.81,681.48c-2.49,2.49-6.04,3.6-9.96,3.6h-13.62v-37.73h13.62c3.92,0,7.47,1.11,9.96,3.6,4.24,4.24,3.82,9.43,3.82,15.1s.42,11.18-3.82,15.42Zm-5.14-25.23c-1.27-1.54-2.97-2.33-5.51-2.33h-5.56v24.59h5.56c2.54,0,4.24-.79,5.51-2.33,1.38-1.7,1.59-4.4,1.59-10.12s-.21-8.11-1.59-9.8Z"/><path class="cls-1" d="m549.19,685.08v-30.31l-7.68,6.68v-7.42l7.68-6.68h6.89v37.73h-6.89Z"/><path class="cls-1" d="m567.95,685.08v-6.2l14.1-16.38c1.38-1.64,1.96-2.81,1.96-4.56,0-2.81-1.64-4.72-4.56-4.72-2.28,0-4.61,1.17-4.61,4.82h-6.89c0-6.89,5.03-11.02,11.5-11.02s11.45,4.19,11.45,10.97c0,3.66-1.43,5.62-4.03,8.64l-10.54,12.24h14.57v6.2h-22.95Z"/><path class="cls-1" d="m597.21,685.08v-7.84h7.9v7.84h-7.9Z"/><path class="cls-1" d="m621.85,685.08v-30.31l-7.68,6.68v-7.42l7.68-6.68h6.89v37.73h-6.89Z"/><path class="cls-1" d="m651.9,685.4c-6.15,0-11.5-4.03-11.5-11.23v-15.9c0-7.21,5.35-11.23,11.5-11.23s11.45,4.03,11.45,11.23v15.9c0,7.21-5.3,11.23-11.45,11.23Zm4.56-27.03c0-3.18-1.85-5.14-4.56-5.14s-4.61,1.96-4.61,5.14v15.74c0,3.18,1.91,5.09,4.61,5.09s4.56-1.91,4.56-5.09v-15.74Z"/><path class="cls-1" d="m706.55,681.48c-2.49,2.49-6.04,3.6-9.96,3.6h-13.62v-37.73h13.62c3.92,0,7.47,1.11,9.96,3.6,4.24,4.24,3.82,9.43,3.82,15.1s.42,11.18-3.82,15.42Zm-5.14-25.23c-1.27-1.54-2.97-2.33-5.51-2.33h-5.56v24.59h5.56c2.54,0,4.24-.79,5.51-2.33,1.38-1.7,1.59-4.4,1.59-10.12s-.21-8.11-1.59-9.8Z"/><path class="cls-1" d="m740.73,681.26c-2.65,2.65-5.88,4.13-10.17,4.13s-7.58-1.48-10.23-4.13c-3.82-3.82-3.71-8.53-3.71-15.05s-.11-11.23,3.71-15.05c2.65-2.65,5.94-4.13,10.23-4.13s7.52,1.48,10.17,4.13c3.82,3.82,3.76,8.53,3.76,15.05s.05,11.23-3.76,15.05Zm-5.46-25.65c-1.06-1.22-2.7-2.01-4.72-2.01s-3.71.79-4.77,2.01c-1.43,1.59-1.8,3.34-1.8,10.6s.37,9.01,1.8,10.6c1.06,1.22,2.75,2.01,4.77,2.01s3.66-.79,4.72-2.01c1.43-1.59,1.85-3.34,1.85-10.6s-.42-9.01-1.85-10.6Z"/><path class="cls-1" d="m763.05,685.08v-6.2l14.1-16.38c1.38-1.64,1.96-2.81,1.96-4.56,0-2.81-1.64-4.72-4.56-4.72-2.28,0-4.61,1.17-4.61,4.82h-6.89c0-6.89,5.03-11.02,11.5-11.02s11.45,4.19,11.45,10.97c0,3.66-1.43,5.62-4.03,8.64l-10.55,12.24h14.57v6.2h-22.95Z"/><path class="cls-1" d="m803.01,685.4c-6.68,0-11.76-4.19-11.76-11.66,0-3.44,1.48-6.62,3.18-10.07l7.95-16.32h7.52l-7.84,15.58c.9-.37,1.91-.48,2.81-.48,5.09,0,9.91,4.19,9.91,11.18,0,7.42-5.09,11.76-11.76,11.76Zm0-17.22c-2.81,0-4.88,2.01-4.88,5.51s2.07,5.51,4.88,5.51,4.88-2.01,4.88-5.51-1.96-5.51-4.88-5.51Z"/><path class="cls-1" d="m821.08,685.08v-7.84h7.9v7.84h-7.9Z"/><path class="cls-1" d="m845.72,685.08v-30.31l-7.68,6.68v-7.42l7.68-6.68h6.89v37.73h-6.89Z"/><path class="cls-1" d="m875.77,685.4c-6.15,0-11.5-4.03-11.5-11.23v-15.9c0-7.21,5.35-11.23,11.5-11.23s11.45,4.03,11.45,11.23v15.9c0,7.21-5.3,11.23-11.45,11.23Zm4.56-27.03c0-3.18-1.85-5.14-4.56-5.14s-4.61,1.96-4.61,5.14v15.74c0,3.18,1.91,5.09,4.61,5.09s4.56-1.91,4.56-5.09v-15.74Z"/><path class="cls-1" d="m893.74,685.08v-7.84h7.9v7.84h-7.9Z"/><path class="cls-1" d="m908.37,685.08v-6.2l14.1-16.38c1.38-1.64,1.96-2.81,1.96-4.56,0-2.81-1.64-4.72-4.56-4.72-2.28,0-4.61,1.17-4.61,4.82h-6.89c0-6.89,5.03-11.02,11.5-11.02s11.45,4.19,11.45,10.97c0,3.66-1.43,5.62-4.03,8.64l-10.54,12.24h14.57v6.2h-22.95Z"/><path class="cls-1" d="m948.44,685.4c-6.15,0-11.5-4.03-11.5-11.23v-15.9c0-7.21,5.35-11.23,11.5-11.23s11.45,4.03,11.45,11.23v15.9c0,7.21-5.3,11.23-11.45,11.23Zm4.56-27.03c0-3.18-1.85-5.14-4.56-5.14s-4.61,1.96-4.61,5.14v15.74c0,3.18,1.91,5.09,4.61,5.09s4.56-1.91,4.56-5.09v-15.74Z"/><path class="cls-1" d="m965.93,685.08v-6.2l14.1-16.38c1.38-1.64,1.96-2.81,1.96-4.56,0-2.81-1.64-4.72-4.56-4.72-2.28,0-4.61,1.17-4.61,4.82h-6.89c0-6.89,5.03-11.02,11.5-11.02s11.45,4.19,11.45,10.97c0,3.66-1.43,5.62-4.03,8.64l-10.55,12.24h14.57v6.2h-22.95Z"/><path class="cls-1" d="m1005.84,685.4c-6.15,0-11.92-3.23-12.03-11.13h6.89c.11,3.39,2.44,4.93,5.14,4.93,2.97,0,5.09-1.85,5.09-5.25,0-3.13-1.91-5.19-5.3-5.19h-1.01v-5.99h1.01c3.34,0,4.77-2.07,4.77-4.72,0-3.18-2.12-4.82-4.61-4.82s-4.5,1.7-4.66,4.56h-6.89c.16-6.73,5.19-10.76,11.55-10.76,6.68,0,11.5,4.45,11.5,10.81,0,4.08-1.85,6.41-4.35,7.74,2.7,1.43,4.88,4.03,4.88,8.58,0,7.53-5.51,11.23-11.98,11.23Z"/><path class="cls-1" d="m70.55,745.08c-2.54,2.54-5.88,3.92-9.65,3.92s-7.1-1.38-9.64-3.92c-3.55-3.55-3.55-7.26-3.55-15.26s0-11.71,3.55-15.26c2.54-2.54,5.88-3.92,9.64-3.92s7.1,1.38,9.65,3.92c3.55,3.55,3.55,7.26,3.55,15.26s0,11.71-3.55,15.26Zm-3.13-28.14c-1.64-1.7-4.03-2.7-6.52-2.7s-4.88,1.01-6.52,2.7c-2.38,2.44-2.65,4.98-2.65,12.88s.27,10.44,2.65,12.88c1.64,1.7,4.03,2.7,6.52,2.7s4.88-1.01,6.52-2.7c2.38-2.44,2.65-4.98,2.65-12.88s-.26-10.44-2.65-12.88Z"/><path class="cls-1" d="m105.27,748.68l-8.58-16.75h-9.06v16.75h-4.03v-37.73h14.47c6.57,0,11.18,3.97,11.18,10.49,0,5.51-3.34,9.11-8.21,10.12l8.96,17.12h-4.72Zm-7.58-34.13h-10.07v13.83h10.07c4.4,0,7.53-2.28,7.53-6.89s-3.13-6.94-7.53-6.94Z"/><path class="cls-1" d="m140.19,744.65c-2.65,2.86-6.2,4.35-10.07,4.35s-7.1-1.38-9.64-3.92c-3.55-3.55-3.55-7.26-3.55-15.26s0-11.71,3.55-15.26c2.54-2.54,5.88-3.92,9.64-3.92,7.21,0,12.08,4.66,13.2,11.29h-4.03c-1.06-4.77-4.45-7.68-9.17-7.68-2.49,0-4.88,1.01-6.52,2.7-2.38,2.44-2.65,4.98-2.65,12.88s.27,10.49,2.65,12.93c1.64,1.7,4.03,2.65,6.52,2.65,2.76,0,5.41-1.11,7.15-3.23,1.54-1.86,2.12-3.92,2.12-6.84v-2.86h-9.27v-3.55h13.3v5.99c0,4.35-.9,7.26-3.23,9.75Z"/><path class="cls-1" d="m174.27,748.68l-3.02-8.53h-16.48l-3.02,8.53h-4.29l13.88-37.73h3.39l13.83,37.73h-4.29Zm-11.18-31.96l-7.1,19.93h14.1l-7-19.93Z"/><path class="cls-1" d="m208.72,748.68l-20.03-30.26v30.26h-4.03v-37.73h3.82l20.03,30.15v-30.15h4.03v37.73h-3.82Z"/><path class="cls-1" d="m223.46,748.68v-37.73h4.03v37.73h-4.03Z"/><path class="cls-1" d="m235.97,748.68v-3.82l18.87-30.31h-18.12v-3.6h22.68v3.39l-19.03,30.74h19.03v3.6h-23.42Z"/><path class="cls-1" d="m289.86,748.68l-3.02-8.53h-16.48l-3.02,8.53h-4.29l13.88-37.73h3.39l13.83,37.73h-4.29Zm-11.18-31.96l-7.1,19.93h14.1l-7-19.93Z"/><path class="cls-1" d="m308.15,714.55v34.13h-4.03v-34.13h-10.92v-3.6h25.86v3.6h-10.92Z"/><path class="cls-1" d="m346.47,745.08c-2.54,2.54-5.88,3.92-9.65,3.92s-7.1-1.38-9.64-3.92c-3.55-3.55-3.55-7.26-3.55-15.26s0-11.71,3.55-15.26c2.54-2.54,5.88-3.92,9.64-3.92s7.1,1.38,9.65,3.92c3.55,3.55,3.55,7.26,3.55,15.26s0,11.71-3.55,15.26Zm-3.13-28.14c-1.64-1.7-4.03-2.7-6.52-2.7s-4.88,1.01-6.52,2.7c-2.38,2.44-2.65,4.98-2.65,12.88s.27,10.44,2.65,12.88c1.64,1.7,4.03,2.7,6.52,2.7s4.88-1.01,6.52-2.7c2.38-2.44,2.65-4.98,2.65-12.88s-.26-10.44-2.65-12.88Z"/><path class="cls-1" d="m381.18,748.68l-8.58-16.75h-9.06v16.75h-4.03v-37.73h14.47c6.57,0,11.18,3.97,11.18,10.49,0,5.51-3.34,9.11-8.21,10.12l8.96,17.12h-4.72Zm-7.58-34.13h-10.07v13.83h10.07c4.4,0,7.53-2.28,7.53-6.89s-3.13-6.94-7.53-6.94Z"/><path class="cls-1" d="m394.91,732.73v-4.98h4.98v4.98h-4.98Zm0,15.95v-4.98h4.98v4.98h-4.98Z"/><path class="cls-1" d="m445.05,744.65c-2.65,2.86-6.2,4.35-10.07,4.35s-7.1-1.38-9.64-3.92c-3.55-3.55-3.55-7.26-3.55-15.26s0-11.71,3.55-15.26c2.54-2.54,5.88-3.92,9.64-3.92,7.21,0,12.08,4.66,13.2,11.29h-4.03c-1.06-4.77-4.45-7.68-9.17-7.68-2.49,0-4.88,1.01-6.52,2.7-2.38,2.44-2.65,4.98-2.65,12.88s.27,10.49,2.65,12.93c1.64,1.7,4.03,2.65,6.52,2.65,2.76,0,5.41-1.11,7.15-3.23,1.54-1.86,2.12-3.92,2.12-6.84v-2.86h-9.27v-3.55h13.3v5.99c0,4.35-.9,7.26-3.23,9.75Z"/><path class="cls-1" d="m479.34,748.68l-8.58-16.75h-9.06v16.75h-4.03v-37.73h14.47c6.57,0,11.18,3.97,11.18,10.49,0,5.51-3.34,9.11-8.21,10.12l8.96,17.12h-4.72Zm-7.58-34.13h-10.07v13.83h10.07c4.4,0,7.53-2.28,7.53-6.89s-3.13-6.94-7.53-6.94Z"/><path class="cls-1" d="m513.84,745.08c-2.54,2.54-5.88,3.92-9.65,3.92s-7.1-1.38-9.64-3.92c-3.55-3.55-3.55-7.26-3.55-15.26s0-11.71,3.55-15.26c2.54-2.54,5.88-3.92,9.64-3.92s7.1,1.38,9.65,3.92c3.55,3.55,3.55,7.26,3.55,15.26s0,11.71-3.55,15.26Zm-3.13-28.14c-1.64-1.7-4.03-2.7-6.52-2.7s-4.88,1.01-6.52,2.7c-2.38,2.44-2.65,4.98-2.65,12.88s.27,10.44,2.65,12.88c1.64,1.7,4.03,2.7,6.52,2.7s4.88-1.01,6.52-2.7c2.38-2.44,2.65-4.98,2.65-12.88s-.26-10.44-2.65-12.88Z"/><path class="cls-1" d="m555.66,748.68h-3.76l-8.37-30.21-8.37,30.21h-3.76l-9.65-37.73h4.29l7.37,30.42,8.32-30.42h3.6l8.32,30.42,7.37-30.42h4.29l-9.65,37.73Z"/><path class="cls-1" d="m582.69,714.55v34.13h-4.03v-34.13h-10.92v-3.6h25.86v3.6h-10.92Z"/><path class="cls-1" d="m622.59,748.68v-17.22h-17.91v17.22h-4.03v-37.73h4.03v16.91h17.91v-16.91h4.03v37.73h-4.03Z"/><path class="cls-1" d="m673.21,745.18c-2.28,2.28-5.62,3.5-9.54,3.5h-12.93v-37.73h12.93c3.92,0,7.26,1.22,9.54,3.5,3.92,3.92,3.71,9.7,3.71,14.94s.21,11.87-3.71,15.79Zm-2.81-27.88c-1.96-2.01-4.5-2.76-7.42-2.76h-8.21v30.52h8.21c2.91,0,5.46-.74,7.42-2.76,2.6-2.7,2.49-8.32,2.49-12.93s.11-9.38-2.49-12.08Z"/><path class="cls-1" d="m686.41,748.68v-37.73h23.42v3.6h-19.4v13.3h16.53v3.6h-16.53v13.62h19.4v3.6h-23.42Z"/><path class="cls-1" d="m727.91,749c-5.67,0-9.38-1.43-12.93-4.98l2.76-2.76c3.13,3.13,6.04,4.13,10.28,4.13,5.51,0,8.9-2.6,8.9-7,0-1.96-.58-3.66-1.8-4.72s-2.17-1.38-4.93-1.8l-4.4-.69c-2.97-.48-5.3-1.43-6.94-2.86-1.91-1.7-2.86-4.03-2.86-7.05,0-6.41,4.61-10.65,12.08-10.65,4.82,0,8,1.22,11.23,4.13l-2.6,2.6c-2.33-2.12-4.82-3.23-8.8-3.23-5.03,0-7.95,2.81-7.95,7,0,1.85.53,3.34,1.7,4.35,1.17,1.01,3.13,1.75,5.09,2.07l4.13.64c3.55.53,5.3,1.27,6.89,2.65,2.07,1.75,3.18,4.35,3.18,7.47,0,6.62-5.19,10.71-13.04,10.71Z"/><path class="cls-1" d="m749.37,748.68v-37.73h4.03v37.73h-4.03Z"/><path class="cls-1" d="m786.15,744.65c-2.65,2.86-6.2,4.35-10.07,4.35s-7.1-1.38-9.64-3.92c-3.55-3.55-3.55-7.26-3.55-15.26s0-11.71,3.55-15.26c2.54-2.54,5.88-3.92,9.64-3.92,7.21,0,12.08,4.66,13.2,11.29h-4.03c-1.06-4.77-4.45-7.68-9.17-7.68-2.49,0-4.88,1.01-6.52,2.7-2.38,2.44-2.65,4.98-2.65,12.88s.27,10.49,2.65,12.93c1.64,1.7,4.03,2.65,6.52,2.65,2.76,0,5.41-1.11,7.15-3.23,1.54-1.86,2.12-3.92,2.12-6.84v-2.86h-9.27v-3.55h13.3v5.99c0,4.35-.9,7.26-3.23,9.75Z"/><path class="cls-1" d="m822.83,748.68l-20.03-30.26v30.26h-4.03v-37.73h3.82l20.03,30.15v-30.15h4.03v37.73h-3.82Z"/><path class="cls-1" d="m860.46,749c-5.67,0-9.38-1.43-12.93-4.98l2.76-2.76c3.13,3.13,6.04,4.13,10.28,4.13,5.51,0,8.9-2.6,8.9-7,0-1.96-.58-3.66-1.8-4.72s-2.17-1.38-4.93-1.8l-4.4-.69c-2.97-.48-5.3-1.43-6.94-2.86-1.91-1.7-2.86-4.03-2.86-7.05,0-6.41,4.61-10.65,12.08-10.65,4.82,0,8,1.22,11.23,4.13l-2.6,2.6c-2.33-2.12-4.82-3.23-8.8-3.23-5.03,0-7.95,2.81-7.95,7,0,1.85.53,3.34,1.7,4.35,1.17,1.01,3.13,1.75,5.09,2.07l4.13.64c3.55.53,5.3,1.27,6.89,2.65,2.07,1.75,3.18,4.35,3.18,7.47,0,6.62-5.19,10.71-13.04,10.71Z"/><path class="cls-1" d="m893,714.55v34.13h-4.03v-34.13h-10.92v-3.6h25.86v3.6h-10.92Z"/><path class="cls-1" d="m923.58,749c-7.63,0-13.14-5.25-13.14-12.77v-25.28h4.03v24.96c0,5.72,3.6,9.49,9.12,9.49s9.17-3.76,9.17-9.49v-24.96h4.03v25.28c0,7.53-5.56,12.77-13.2,12.77Z"/><path class="cls-1" d="m969.63,745.18c-2.28,2.28-5.62,3.5-9.54,3.5h-12.93v-37.73h12.93c3.92,0,7.26,1.22,9.54,3.5,3.92,3.92,3.71,9.7,3.71,14.94s.21,11.87-3.71,15.79Zm-2.81-27.88c-1.96-2.01-4.5-2.76-7.42-2.76h-8.21v30.52h8.21c2.91,0,5.46-.74,7.42-2.76,2.6-2.7,2.49-8.32,2.49-12.93s.11-9.38-2.49-12.08Z"/><path class="cls-1" d="m982.83,748.68v-37.73h4.03v37.73h-4.03Z"/><path class="cls-1" d="m1019.19,745.08c-2.54,2.54-5.88,3.92-9.65,3.92s-7.1-1.38-9.64-3.92c-3.55-3.55-3.55-7.26-3.55-15.26s0-11.71,3.55-15.26c2.54-2.54,5.88-3.92,9.64-3.92s7.1,1.38,9.65,3.92c3.55,3.55,3.55,7.26,3.55,15.26s0,11.71-3.55,15.26Zm-3.13-28.14c-1.64-1.7-4.03-2.7-6.52-2.7s-4.88,1.01-6.52,2.7c-2.38,2.44-2.65,4.98-2.65,12.88s.27,10.44,2.65,12.88c1.64,1.7,4.03,2.7,6.52,2.7s4.88-1.01,6.52-2.7c2.38-2.44,2.65-4.98,2.65-12.88s-.26-10.44-2.65-12.88Z"/></svg>