<?xml version="1.0" encoding="UTF-8"?><svg id="Warstwa_1" xmlns="http://www.w3.org/2000/svg" viewBox="0 0 1070.45 784.51"><defs><style>.cls-1{fill:#24408f;}.cls-1,.cls-2,.cls-3{stroke-width:0px;}.cls-2{fill:#e51d29;}.cls-3{fill:#fff;}</style></defs><path class="cls-1" d="m114.49,47.76v93.21h-15.81l-26.34-50.93v50.93h-18.91V47.76h15.67l26.48,51.74v-51.74h18.91Z"/><path class="cls-1" d="m141.77,140.97h-19.72l26.88-93.21h18.37l26.88,93.21h-19.72l-4.46-17.7h-23.77l-4.46,17.7Zm16.35-66.46l-8.1,32.83h16.21l-8.11-32.83Z"/><path class="cls-1" d="m238.22,76.67c-.95-8.78-3.78-14.18-10.54-14.18-8.38,0-11.89,7.43-11.89,25.26v13.24c0,17.29,3.51,25.26,11.89,25.26,6.75,0,10.13-5.13,10.67-17.83h-10.4v-15.94h28.5v8.38c0,26.88-8.38,41.34-28.77,41.34-18.24,0-30.8-12.7-30.8-41.2v-13.24c0-28.77,12.56-41.2,30.8-41.2,15.26,0,25.94,9.73,28.5,30.12h-17.97Z"/><path class="cls-1" d="m311.57,140.97l-13.64-36.61h-9.32v36.61h-18.91V47.76h29.18c17.97,0,29.72,9.59,29.72,28.5,0,12.56-5,20.8-12.97,24.86l15.81,39.85h-19.86Zm-14.86-52.55c7.97,0,12.97-2.43,12.97-12.16s-5-12.43-12.97-12.43h-8.1v24.59h8.1Z"/><path class="cls-1" d="m369.38,142.19c-18.64,0-30.8-12.43-30.8-41.2v-13.24c0-28.77,12.16-41.2,30.8-41.2s30.8,12.43,30.8,41.2v13.24c0,28.77-12.16,41.2-30.8,41.2Zm0-15.94c8.1,0,11.89-6.62,11.89-25.26v-13.24c0-18.64-3.78-25.26-11.89-25.26s-11.89,6.62-11.89,25.26v13.24c0,18.64,3.78,25.26,11.89,25.26Z"/><path class="cls-1" d="m413.42,140.97V47.76h28.91c18.1,0,30.66,10.81,30.66,40.53v12.16c0,29.58-12.56,40.53-30.66,40.53h-28.91Zm40.66-40.53v-12.16c0-15.67-2.03-24.45-11.75-24.45h-10v61.06h10c9.73,0,11.75-8.78,11.75-24.45Z"/><path class="cls-1" d="m495.41,140.97h-19.72l26.88-93.21h18.37l26.88,93.21h-19.72l-4.46-17.7h-23.77l-4.46,17.7Zm16.35-66.46l-8.1,32.83h16.21l-8.11-32.83Z"/><path class="cls-1" d="m622.93,76.67c-.95-8.78-3.78-14.18-10.54-14.18-8.38,0-11.89,7.43-11.89,25.26v13.24c0,17.29,3.51,25.26,11.89,25.26,6.75,0,10.13-5.13,10.67-17.83h-10.4v-15.94h28.5v8.38c0,26.88-8.38,41.34-28.77,41.34-18.24,0-30.8-12.7-30.8-41.2v-13.24c0-28.77,12.56-41.2,30.8-41.2,15.26,0,25.94,9.73,28.5,30.12h-17.97Z"/><path class="cls-1" d="m643.46,102.88l17.29-14.72v-40.39h18.91v24.18l8.92-7.7,10.27,12.02-19.18,16.48v32.29h30.12v15.94h-49.04v-32.02l-7.02,5.94-10.27-12.02Z"/><path class="cls-1" d="m743.83,142.19c-18.64,0-30.8-12.43-30.8-41.2v-13.24c0-28.77,12.16-41.2,30.8-41.2s30.8,12.43,30.8,41.2v13.24c0,28.77-12.16,41.2-30.8,41.2Zm0-15.94c8.1,0,11.89-6.62,11.89-25.26v-13.24c0-18.64-3.78-25.26-11.89-25.26s-11.89,6.62-11.89,25.26v13.24c0,18.64,3.78,25.26,11.89,25.26Zm-.41-102.94h18.91l-11.48,17.43h-16.48l9.05-17.43Z"/><path class="cls-1" d="m816.36,140.97h-17.97l-17.56-93.21h20.67l8.24,58.22,13.78-58.22h18.1l13.78,58.22,8.24-58.22h20.67l-17.56,93.21h-17.97l-16.21-61.46-16.21,61.46Z"/><path class="cls-1" d="m953.87,47.76v93.21h-15.81l-26.34-50.93v50.93h-18.91V47.76h15.67l26.48,51.74v-51.74h18.91Z"/><path class="cls-1" d="m981.16,140.97h-19.72l26.88-93.21h18.37l26.88,93.21h-19.72l-4.46-17.7h-23.78l-4.46,17.7Zm16.35-66.46l-8.1,32.83h16.21l-8.11-32.83Z"/><path class="cls-2" d="m108.26,330.59h-32.63v-124.69l-19.11,15.15v-33.56l22.84-17.71h28.9v160.81Z"/><path class="cls-2" d="m150.68,282.57v-64.79c0-36.59,22.61-50.11,48.24-50.11s48.24,13.52,48.24,50.11v64.79c0,36.59-22.61,50.11-48.24,50.11s-48.24-13.52-48.24-50.11Zm63.86-1.17v-62.46c0-15.38-3.26-23.77-15.62-23.77s-15.62,8.39-15.62,23.77v62.46c0,15.38,3.26,23.77,15.62,23.77s15.62-8.39,15.62-23.77Z"/><path class="cls-2" d="m311.72,282.57v-64.79c0-36.59,22.61-50.11,48.24-50.11s48.24,13.52,48.24,50.11v64.79c0,36.59-22.61,50.11-48.24,50.11s-48.24-13.52-48.24-50.11Zm63.86-1.17v-62.46c0-15.38-3.26-23.77-15.62-23.77s-15.62,8.39-15.62,23.77v62.46c0,15.38,3.26,23.77,15.62,23.77s15.62-8.39,15.62-23.77Z"/><path class="cls-2" d="m423.13,282.57v-64.79c0-36.59,22.61-50.11,48.24-50.11s48.24,13.52,48.24,50.11v64.79c0,36.59-22.61,50.11-48.24,50.11s-48.24-13.52-48.24-50.11Zm63.86-1.17v-62.46c0-15.38-3.26-23.77-15.62-23.77s-15.62,8.39-15.62,23.77v62.46c0,15.38,3.26,23.77,15.62,23.77s15.62-8.39,15.62-23.77Z"/><path class="cls-2" d="m534.53,282.57v-64.79c0-36.59,22.61-50.11,48.24-50.11s48.24,13.52,48.24,50.11v64.79c0,36.59-22.61,50.11-48.24,50.11s-48.24-13.52-48.24-50.11Zm63.86-1.17v-62.46c0-15.38-3.26-23.77-15.62-23.77s-15.62,8.39-15.62,23.77v62.46c0,15.38,3.26,23.77,15.62,23.77s15.62-8.39,15.62-23.77Z"/><path class="cls-2" d="m734.26,273.95v56.63h-32.63v-160.81h50.34c31,0,51.27,17.01,51.27,51.51s-20.04,52.67-51.27,52.67h-17.71Zm12.12-27.5c17.48,0,24.24-7.92,24.24-25.17,0-15.38-6.76-23.77-24.24-23.77h-12.12v48.94h12.12Z"/><path class="cls-2" d="m852.89,303.08h51.97v27.5h-84.6v-160.81h32.63v133.31Z"/><path class="cls-2" d="m1024.89,169.77v160.81h-27.27l-45.45-87.86v87.86h-32.63v-160.81h27.04l45.68,89.26v-89.26h32.63Z"/><path class="cls-1" d="m326.61,460.75c-1.16-10.78-4.64-17.41-12.94-17.41-10.28,0-14.59,9.12-14.59,31.01v16.25c0,21.23,4.31,31.01,14.59,31.01,8.29,0,11.44-5.8,12.94-17.41h22.06c-3.32,25.7-15.09,36.98-34.99,36.98-22.39,0-37.81-15.59-37.81-50.58v-16.25c0-35.32,15.42-50.58,37.81-50.58,18.74,0,31.84,11.94,34.99,36.98h-22.06Z"/><path class="cls-1" d="m396.42,541.18c-22.88,0-37.81-15.26-37.81-50.58v-16.25c0-35.32,14.92-50.58,37.81-50.58s37.81,15.26,37.81,50.58v16.25c0,35.32-14.92,50.58-37.81,50.58Zm0-19.57c9.95,0,14.59-8.13,14.59-31.01v-16.25c0-22.88-4.64-31.01-14.59-31.01s-14.59,8.13-14.59,31.01v16.25c0,22.88,4.64,31.01,14.59,31.01Z"/><path class="cls-1" d="m450.48,539.69v-114.42h35.49c22.22,0,37.64,13.27,37.64,49.75v14.92c0,36.32-15.42,49.75-37.64,49.75h-35.49Zm49.92-49.75v-14.92c0-19.24-2.49-30.02-14.43-30.02h-12.27v74.96h12.27c11.94,0,14.43-10.78,14.43-30.02Z"/><path class="cls-1" d="m597.91,425.26v15.26l-36.48,79.6h37.98v19.57h-64.84v-15.26l36.98-79.43h-36.98v-19.73h63.35Z"/><path class="cls-1" d="m636.88,539.69h-23.22v-114.42h23.22v114.42Z"/><path class="cls-1" d="m717.97,425.26v19.57h-37.15v25.87h33v19.57h-33v29.85h37.15v19.57h-60.36v-114.42h60.36Z"/><path class="cls-1" d="m806.53,425.26v114.42h-19.4l-32.34-62.52v62.52h-23.22v-114.42h19.24l32.5,63.51v-63.51h23.22Z"/><path class="cls-1" d="m900.89,425.26v114.42h-19.4l-32.34-62.52v62.52h-23.22v-114.42h19.24l32.5,63.51v-63.51h23.22Z"/><path class="cls-1" d="m944.83,539.69h-23.22v-114.42h23.22v114.42Z"/><path class="cls-1" d="m1025.92,425.26v19.57h-37.15v25.87h33v19.57h-33v29.85h37.15v19.57h-60.36v-114.42h60.36Z"/><path class="cls-1" d="m87.46,535.06c-4.01,4.01-9.39,6.23-15.19,6.23s-11.18-2.22-15.19-6.23c-5.55-5.55-5.63-11.01-5.63-24.66s.09-19.12,5.63-24.66c4.01-4.01,9.39-6.23,15.19-6.23s11.18,2.22,15.19,6.23c5.55,5.55,5.63,10.92,5.63,24.66s-.08,19.12-5.63,24.66Zm-3.67-46.77c-3.07-3.07-7.17-4.69-11.52-4.69s-8.45,1.62-11.52,4.69c-4.35,4.35-4.69,9.13-4.69,22.1s.34,17.75,4.69,22.1c3.07,3.07,7.17,4.69,11.52,4.69s8.45-1.62,11.52-4.69c4.35-4.35,4.69-9.13,4.69-22.1s-.34-17.75-4.69-22.1Z"/><path class="cls-1" d="m130.81,512.79h-16.73v27.99h-4.61v-60.76h23.13c9.9,0,17.41,5.72,17.41,16.3,0,9.13-5.46,14.94-14,16.39l14.68,28.08h-5.38l-14.51-27.99Zm1.19-28.68h-17.92v24.58h17.92c7.85,0,13.4-3.84,13.4-12.29s-5.55-12.29-13.4-12.29Z"/><path class="cls-1" d="m196.01,526.02h-28.33l-5.29,14.76h-4.95l22.36-60.76h4.1l22.36,60.76h-4.95l-5.29-14.76Zm-26.88-4.1h25.43l-12.72-35.76-12.72,35.76Z"/><path class="cls-1" d="m212.91,535.92l32-51.8h-30.72v-4.1h35.67v4.1l-32.26,52.57h32.26v4.1h-36.95v-4.86Z"/><rect class="cls-2" x="51.14" y="586.32" width="979.55" height="174.88" rx="19.85" ry="19.85"/><path class="cls-3" d="m116.87,636.09c14.13,0,22.77,6.33,22.77,19.08,0,7.49-3.06,12.55-7.38,15.5,5.48,2.85,9.28,8.22,9.28,17.29,0,11.28-6.64,20.88-22.77,20.88h-22.88v-72.75h20.98Zm-6.96,28.78h6.54c6.01,0,8.44-3.16,8.44-8.33s-2.21-8.01-9.81-8.01h-5.17v16.34Zm0,31.53h7.28c6.75,0,9.59-3.58,9.59-9.59,0-6.75-3.06-9.49-10.65-9.49h-6.22v19.08Z"/><path class="cls-3" d="m165.37,696.4h23.51v12.44h-38.27v-72.75h14.76v60.31Z"/><path class="cls-3" d="m233.91,636.09v12.44h-23.62v16.45h20.98v12.44h-20.98v18.98h23.62v12.44h-38.38v-72.75h38.38Z"/><path class="cls-3" d="m290.22,636.09v72.75h-12.34l-20.56-39.75v39.75h-14.76v-72.75h12.23l20.67,40.38v-40.38h14.76Z"/><path class="cls-3" d="m302.56,708.84v-72.75h22.56c14.13,0,23.93,8.43,23.93,31.63v9.49c0,23.09-9.81,31.63-23.93,31.63h-22.56Zm31.74-31.63v-9.49c0-12.23-1.58-19.08-9.17-19.08h-7.8v47.66h7.8c7.59,0,9.17-6.85,9.17-19.08Z"/><path class="cls-3" d="m397.77,636.09v12.44h-23.62v16.45h20.98v12.44h-20.98v18.98h23.62v12.44h-38.38v-72.75h38.38Z"/><path class="cls-3" d="m439.1,708.84l-10.65-28.57h-7.27v28.57h-14.76v-72.75h22.77c14.02,0,23.2,7.49,23.2,22.25,0,9.81-3.9,16.24-10.12,19.4l12.34,31.1h-15.5Zm-11.6-41.02c6.22,0,10.12-1.9,10.12-9.49s-3.9-9.7-10.12-9.7h-6.33v19.19h6.33Z"/><path class="cls-3" d="m519.13,708.84l-12.55-30.37-7.06,11.81v18.56h-14.76v-72.75h14.76v30.26l15.92-30.26h16.87l-16.34,26.99,19.19,45.76h-16.03Z"/><path class="cls-3" d="m557.94,708.84h-14.76v-72.75h14.76v72.75Z"/><path class="cls-3" d="m609.5,636.09v12.44h-23.62v16.45h20.98v12.44h-20.98v18.98h23.62v12.44h-38.38v-72.75h38.38Z"/><path class="cls-3" d="m632.91,696.4h23.51v12.44h-38.27v-72.75h14.76v60.31Z"/><path class="cls-3" d="m678.67,708.84h-14.76v-72.75h14.76v72.75Z"/><path class="cls-3" d="m722.22,658.66c-.74-6.85-2.95-11.07-8.22-11.07-6.54,0-9.28,5.8-9.28,19.72v10.33c0,13.5,2.74,19.72,9.28,19.72,5.27,0,7.28-3.69,8.22-11.07h14.02c-2.11,16.34-9.59,23.51-22.25,23.51-14.23,0-24.04-9.91-24.04-32.16v-10.33c0-22.46,9.81-32.16,24.04-32.16,11.91,0,20.24,7.59,22.25,23.51h-14.02Z"/><path class="cls-3" d="m759.86,664.98h18.14v-28.89h14.76v72.75h-14.76v-31.42h-18.14v31.42h-14.76v-72.75h14.76v28.89Z"/><path class="cls-3" d="m827.24,709.79c-14.55,0-24.04-9.7-24.04-32.16v-10.33c0-22.46,9.49-32.16,24.04-32.16s24.04,9.7,24.04,32.16v10.33c0,22.46-9.49,32.16-24.04,32.16Zm0-12.44c6.33,0,9.28-5.17,9.28-19.72v-10.33c0-14.55-2.95-19.72-9.28-19.72s-9.28,5.17-9.28,19.72v10.33c0,14.55,2.95,19.72,9.28,19.72Z"/><path class="cls-3" d="m883.86,708.84h-14.02l-13.71-72.75h16.13l6.43,45.44,10.75-45.44h14.13l10.75,45.44,6.43-45.44h16.13l-13.71,72.75h-14.02l-12.65-47.97-12.65,47.97Z"/><path class="cls-3" d="m974.54,636.09h16.87l-18.77,43.02v29.73h-14.76v-29.73l-18.77-43.02h16.87l9.28,26.68,9.28-26.68Z"/></svg>