<?xml version="1.0" encoding="UTF-8"?><svg id="Warstwa_1" xmlns="http://www.w3.org/2000/svg" viewBox="0 0 621.39 111.62"><defs><style>.cls-1{fill:#fff;stroke-width:0px;}</style></defs><g id="g110985"><path id="path37899" class="cls-1" d="m0,14.23h28.31l.15,31.72,21.05-.15-.29-31.43,28.31-.15.45,93.68-28.17.15-.3-33.95h-20.9l.29,33.95H.59L0,14.23"/><path id="path37901" class="cls-1" d="m235.24,53.22c-3.71-3.71-16.15-3.11-19.42-3.11-8.15,0-14.82,5.48-14.82,17.79.15,9.93,4.45,18.23,14.82,18.08,8.89,0,17.79-2.22,19.56-4l.15,24.01c-3.56,3.71-20.6,4.6-25.94,4.6-27.13.15-36.47-21.64-36.61-44.47-.15-25.79,9.34-44.03,38.39-44.03,8.15,0,19.27.74,23.72,5.19l.15,25.94"/><path id="path37903" class="cls-1" d="m336.04.15l28.17-.15.59,106.73-28.17.15-.59-106.73"/><path id="path37905" class="cls-1" d="m126.89,87.46c6.08,0,15.42-3.71,15.27-19.27,0-15.56-9.34-19.27-15.42-19.27-6.07.15-15.27,3.71-15.27,19.42.15,15.56,9.49,19.12,15.42,19.12Zm-39.72-20.75c-.3-36.61,23.72-45.21,39.43-45.21,15.56-.15,39.73,8.3,39.87,44.91.15,36.46-23.72,45.06-39.43,45.21-15.71,0-39.73-8.45-39.87-44.91"/><path id="path37907" class="cls-1" d="m411.2,89.24c8.45,0,12.6-6.23,11.71-17.94,0,1.63-4.74,2.08-10.08,3.85-2.52.89-8.3,2.52-8.3,8.3,0,4,4.15,5.78,6.67,5.78Zm9.48,11.27c-1.33,1.33-7.41,8.45-17.79,8.6-16.45,0-26.53-6.67-26.53-23.72-.3-30.39,43.58-24.16,43.28-35.58-.15-5.63-5.04-6.23-9.78-6.23-10.23,0-16.9,4.15-27.57,9.64l-.15-22.23c8.74-7.56,19.12-9.64,30.54-9.78,14.53,0,32.91,3.56,33.06,28.31l.29,57.07h-25.2l-.15-6.08"/><path id="path37909" class="cls-1" d="m579.89,84.49c5.48,0,13.64-3.71,13.49-19.27,0-15.71-8.3-19.27-13.64-19.27s-14.38,3.71-14.38,19.42c.15,15.56,9.19,19.12,14.53,19.12Zm13.93,14.97c-4.3,5.19-10.97,8.89-21.05,8.89-21.64.15-30.83-23.42-30.83-45.51-.15-17.34,8.15-43.58,31.28-43.73,8.74,0,16.01,4.15,19.86,10.67h.3l-.15-25.64h27.72l.44,101.69-27.57.15v-6.52"/><path id="path37911" class="cls-1" d="m457.15,25.64l28.02-.15v7.71h0c5.18-8.3,12.15-10.23,23.42-10.23,13.2-.15,25.35,8.15,25.5,26.83l.29,56.33-27.87.15-.29-44.62c0-10.08-2.67-13.64-10.38-13.64-6.52,0-10.52,3.71-10.52,13.64l.3,44.77h-28.02l-.45-80.79"/><path id="path37913" class="cls-1" d="m296.17,107.02l-.15-44.47c-.15-10.23-2.67-13.79-10.38-13.79-6.52,0-10.52,3.71-10.52,13.64l.3,44.77-28.17.15-.59-106.73,28.17-.15.29,33.5h-.15c5.19-8.3,12.15-10.23,23.42-10.23,13.19-.15,25.35,8.15,25.35,26.83l.29,56.33-27.87.15"/></g></svg>