<?xml version="1.0" encoding="UTF-8"?><svg id="Warstwa_1" xmlns="http://www.w3.org/2000/svg" viewBox="0 0 800.62 742.03"><defs><style>.cls-1{fill:#263671;}.cls-1,.cls-2,.cls-3{stroke-width:0px;}.cls-2{fill:#e0001a;}.cls-3{fill:#fff;}</style></defs><path class="cls-3" d="m34.37,155.86H13.16V38.45h28.28c14.14,0,21.71,2.63,26.97,9.54,4.93,6.25,7.24,15.13,7.24,27.79,0,13.65-2.8,23.19-8.39,29.44-5.43,5.76-12.66,8.06-25.82,8.06h-7.07v42.59Zm7.24-59.69c9.54,0,12.83-5.43,12.83-21.05,0-6.74-1.15-12.5-3.29-15.79-1.81-2.96-4.44-3.95-9.54-3.95h-7.89v40.78h7.89Z"/><path class="cls-3" d="m110.34,155.86h-21.21V38.45h29.76c13.98,0,21.05,2.14,26.48,7.89,5.43,5.59,7.73,13.48,7.73,26.15,0,20.23-3.78,28.12-15.62,33.38l19.24,49.99h-23.35l-16.44-48.35h-6.58v48.35Zm7.07-64.63c6.08,0,8.88-.99,11.02-3.95,2.3-2.8,3.45-7.73,3.45-13.48,0-13.65-3.62-18.42-13.98-18.42h-8.22v35.85h7.73Z"/><path class="cls-3" d="m166.07,144.52l36.67-88.64h-33.05v-17.43h56.08v11.35l-36.67,88.64h38.32v17.43h-61.34v-11.35Z"/><path class="cls-3" d="m260.95,115.41l-28.12-76.96h22.2l16.61,51.47,16.44-51.47h22.37l-28.29,76.96v40.45h-21.21v-40.45Z"/><path class="cls-3" d="m353.04,38.45v77.45c0,17.27-.66,23.52-3.29,28.78-4.11,8.55-12,12.83-24.01,12.83-11.18,0-18.75-3.12-26.64-11.18l12.17-13.48c5.1,5.43,8.72,7.56,12.66,7.56,6.25,0,7.89-4.93,7.89-24.34V38.45h21.21Z"/><path class="cls-3" d="m371.45,38.45h56.57v17.43h-35.36v32.07h29.76v17.43h-29.76v33.05h36.18v17.43c-8.55,8.88-10.36,12-10.36,17.43,0,3.62,1.81,5.43,5.1,5.43,2.3,0,4.44-.49,7.73-1.64l2.3,10.03c-4.93,2.3-8.71,3.12-14.63,3.12-11.68,0-18.09-4.77-18.09-13.48,0-7.56,4.11-13.81,13.65-20.88h-43.08V38.45Z"/><path class="cls-3" d="m442.65,38.45h21.21v99.98h36.01v17.43h-57.23V38.45Z"/><path class="cls-3" d="m510.73,38.45h21.21v117.41h-21.21V38.45Z"/><path class="cls-3" d="m564,120.51c.16,14.47,3.78,20.06,12.5,20.06s12.66-5.1,12.66-17.43c0-5.43-.99-9.21-3.29-11.68-2.47-2.63-3.12-2.96-14.31-6.58-17.92-5.92-25-15.46-25-33.71,0-22.36,10.2-34.2,29.6-34.2,12.99,0,21.87,5.1,26.8,15.13,2.47,4.93,3.62,10.52,3.78,20.06h-19.4c-.82-13.65-3.29-18.09-10.52-18.09-6.74,0-10.03,5.43-10.03,16.28,0,9.21,3.78,13.48,15.29,17.6,11.84,4.11,14.47,5.26,18.58,8.88,6.08,5.26,8.71,13.16,8.71,25.65,0,23.35-11.02,35.19-32.56,35.19-13.81,0-23.52-5.26-28.45-15.62-2.63-5.1-3.62-10.85-3.78-21.54h19.41Zm14.31-118.07h21.87l-17.76,25.16h-14.8l10.69-25.16Z"/><path class="cls-3" d="m623.36,38.45h19.73l21.38,63.8,21.54-63.8h19.73v117.41h-20.23v-70.71l-14.31,45.72h-13.32l-14.31-45.72v70.71h-20.23V38.45Z"/><path class="cls-3" d="m743.73,115.41l-28.12-76.96h22.2l16.61,51.47,16.44-51.47h22.37l-28.29,76.96v40.45h-21.21v-40.45Z"/><path class="cls-3" d="m47.03,224.79H6.43v-34.15h122.75v34.15h-40.6v195.89h-41.56v-195.89Z"/><path class="cls-3" d="m146.26,190.64h41.24l20.3,158.19,33.19-158.19h32.22l32.86,158.19,20.3-158.19h41.24l-40.6,230.04h-37.37l-32.54-151.43-32.86,151.43h-37.37l-40.6-230.04Z"/><path class="cls-3" d="m386.94,263.13c0-54.77,18.69-76.04,66.37-76.04s66.69,21.26,66.69,76.04v85.06c0,54.77-18.69,76.04-66.69,76.04s-66.37-21.26-66.37-76.04v-85.06Zm91.5,3.54c0-35.44-5.8-46.07-24.81-46.07s-25.13,10.63-25.13,46.07v77.97c0,35.44,5.8,46.07,25.13,46.07s24.81-10.63,24.81-46.07v-77.97Z"/><path class="cls-3" d="m637.6,190.64v151.75c0,33.83-1.29,46.07-6.44,56.38-8.05,16.75-23.52,25.13-47.04,25.13-21.91,0-36.73-6.12-52.2-21.91l23.84-26.42c9.99,10.63,17.08,14.82,24.81,14.82,12.24,0,15.47-9.67,15.47-47.68v-152.07h41.56Z"/><path class="cls-3" d="m673.68,190.64h110.83v34.15h-69.27v62.83h58.32v34.15h-58.32v64.76h70.88v34.15h-112.44v-230.04Z"/><path class="cls-2" d="m11.34,573.7l40-96.69H15.28v-19.01h61.17v12.38l-40,96.69h41.8v19.01H11.34v-12.38Z"/><path class="cls-2" d="m127.21,515.94h35.88v23.14c0,17.58-1.79,27.27-6.28,34.44-6.1,9.69-15.79,14.35-30.5,14.35s-24.4-4.48-30.5-13.1c-4.66-6.46-6.64-15.96-6.64-31.57v-41.98c0-17.4,2.33-27.09,8.07-33.9,6.28-7.18,15.61-10.94,28.34-10.94,14.71,0,24.93,5.56,30.67,16.5,2.69,5.38,3.77,11.48,4.13,21.88h-21.17c-1.08-15.25-3.95-19.73-13.09-19.73-10.58,0-13.81,6.46-13.81,27.62v39.1c0,20.81,3.41,27.45,14.17,27.45s13.81-6.64,13.81-25.11v-10.4h-13.1v-17.76Z"/><path class="cls-2" d="m179.77,552.53l-8.79,6.82v-20.27l8.79-7v-74.08h23.14v57.4l22.42-17.76v20.27l-22.42,17.76v31.39h39.1v19.01h-62.25v-33.54Z"/><path class="cls-2" d="m253.49,498.36c0-30.5,10.4-42.33,36.95-42.33s37.13,11.84,37.13,42.33v47.36c0,30.49-10.4,42.33-37.13,42.33s-36.95-11.84-36.95-42.33v-47.36Zm50.94,1.97c0-19.73-3.23-25.65-13.81-25.65s-13.99,5.92-13.99,25.65v43.41c0,19.73,3.23,25.65,13.99,25.65s13.81-5.92,13.81-25.65v-43.41Z"/><path class="cls-2" d="m362.37,547.51c.18,15.79,4.13,21.88,13.63,21.88s13.81-5.56,13.81-19.01c0-5.92-1.08-10.05-3.59-12.74-2.69-2.87-3.41-3.23-15.61-7.18-19.55-6.46-27.27-16.86-27.27-36.77,0-24.4,11.12-37.31,32.29-37.31,14.17,0,23.86,5.56,29.24,16.5,2.69,5.38,3.95,11.48,4.13,21.88h-21.17c-.9-14.89-3.59-19.73-11.48-19.73-7.35,0-10.94,5.92-10.94,17.76,0,10.05,4.13,14.71,16.68,19.19,12.92,4.48,15.79,5.74,20.27,9.69,6.64,5.74,9.51,14.35,9.51,27.98,0,25.47-12.02,38.39-35.52,38.39-15.07,0-25.65-5.74-31.03-17.04-2.87-5.56-3.95-11.84-4.13-23.5h21.17Z"/><path class="cls-2" d="m421.02,573.7l40-96.69h-36.06v-19.01h61.17v12.38l-40,96.69h41.8v19.01h-66.91v-12.38Z"/><path class="cls-2" d="m502.46,458h61.71v19.01h-38.57v34.98h32.47v19.01h-32.47v36.06h39.46v19.01h-62.6v-128.08Z"/><path class="cls-2" d="m580.13,458h22.96l30.85,81.62v-81.62h21.53v128.08h-21.71l-32.11-82.7v82.7h-21.53v-128.08Z"/><path class="cls-2" d="m676.09,458h23.14v128.08h-23.14v-128.08Z"/><path class="cls-2" d="m720.04,458h61.71v19.01h-38.57v34.98h32.47v19.01h-32.47v36.06h39.46v19.01h-62.6v-128.08Z"/><path class="cls-3" d="m17.13,638.7h12.42c11.44-.21,15.93,4.14,15.72,15.3v19.51c.21,11.16-4.28,15.51-15.72,15.3h-12.42v-50.1Zm12.77,42.88c5.19-.07,6.25-1.68,6.32-9.61v-16.42c-.07-7.93-1.12-9.54-6.32-9.61h-3.72v35.65h3.72Z"/><path class="cls-3" d="m49.48,683.96l15.65-37.82h-14.11v-7.44h23.93v4.84l-15.65,37.82h16.35v7.44h-26.18v-4.84Z"/><path class="cls-3" d="m81.27,638.7h9.05v50.1h-9.05v-50.1Z"/><path class="cls-3" d="m98.46,638.7h24.14v7.44h-15.09v13.68h12.7v7.44h-12.7v14.11h15.44v7.44c-3.65,3.79-4.42,5.12-4.42,7.44,0,1.54.77,2.32,2.17,2.32.98,0,1.89-.21,3.3-.7l.98,4.28c-2.11.98-3.72,1.33-6.25,1.33-4.98,0-7.72-2.04-7.72-5.75,0-3.23,1.75-5.89,5.82-8.91h-18.39v-50.1Z"/><path class="cls-3" d="m128.98,638.7h9.05v18.88l10.6-18.88h9.75l-12.63,20.63,12.98,29.47h-9.89l-8.42-22.1-2.39,4.28v17.82h-9.05v-50.1Z"/><path class="cls-3" d="m172,638.7v34.46c0,7.02,1.12,9.05,4.91,9.05,4.21,0,5.26-1.82,5.26-9.05v-34.46h9.05v34.46c0,6.32-.56,8.98-2.39,11.51-2.46,3.44-5.89,4.84-11.72,4.84-6.25,0-9.96-1.75-12.35-5.61-1.4-2.39-1.83-4.98-1.83-10.74v-34.46h9.05Z"/><path class="cls-3" d="m216.21,638.7v33.05c0,7.37-.28,10.04-1.4,12.28-1.75,3.65-5.12,5.47-10.25,5.47-4.77,0-8-1.33-11.37-4.77l5.19-5.75c2.17,2.32,3.72,3.23,5.4,3.23,2.67,0,3.37-2.1,3.37-10.39v-33.12h9.05Z"/><path class="cls-3" d="m224.07,638.7h24.14v7.44h-15.09v13.68h12.7v7.44h-12.7v14.11h15.44v7.44h-24.49v-50.1Z"/><path class="cls-3" d="m254.45,638.7h8.42l9.12,27.23,9.19-27.23h8.42v50.1h-8.63v-30.18l-6.11,19.51h-5.68l-6.1-19.51v30.18h-8.63v-50.1Z"/><path class="cls-3" d="m305.82,671.54l-12-32.84h9.47l7.09,21.96,7.02-21.96h9.54l-12.07,32.84v17.26h-9.05v-17.26Z"/><g id="Layer_2"><g id="Layer_1-2"><path class="cls-1" d="m365.02,692.86c0-.46,20.03-62.58,20.03-62.6,2.13-6.69,3.7-13.55,4.69-20.51-6.7,8.35-12.57,17.32-17.53,26.8-3.31,6.1-6.4,11.85-9.62,17.88-3.69,6.61-7.29,12.91-10.96,19.47-6.48,11.57-12.91,22.39-12.91,22.39,8.5-2.66,17.4-3.84,26.31-3.47l-.02.03Zm366.58,18.06c15.19-7.34,25.27-19.83,25.09-32.55-.21-4.16-2.84-6.79-7.34-6.96-9.92.13-20.24,16-20.01,30.82-.09,3.05.7,6.07,2.26,8.69Zm-62.8-38.29c-2.41,0-5.12.15-7.73.41l-6.44,18.59c-2.94,8.46-4.69,15.85-4.74,18.86.33,6.51,5.55,9.77,16.53,9.92,1.75.01,3.5-.06,5.24-.23v-.94c0-3.82,1.32-10.49,3.72-17.78,3.31-9.58,6.43-18.84,9.65-28.67-5.37.17-10.77-.33-16.16-.17h0l-.05.02Zm-88.43,36.36c15.25-7.39,25.18-20.08,25-32.77.11-3.65-2.75-6.7-6.4-6.81-.31,0-.63,0-.94.04-9.92.31-20.18,16.41-19.96,31.03-.09,3.01.71,5.97,2.3,8.53v-.02Zm-142.73,13.34c-12.2,4.96-18.18,8.58-25.09,8.79-11.42.36-16.84-4.3-17.35-14.61-.01-5.71.89-11.38,2.68-16.81-6.17,1.22-12.46,1.71-18.74,1.45-1.09,3.12-2.21,5.95-3.19,8.91-2.53,8.26-2.94,10.63-2.91,13.68v.86c0,.34.06.67.17.99l.23.69-.64.17c-8.99,2.21-11.57,2.91-20.76,5.7l-1.19.36.36-1.19c.25-.83.56-1.57.83-2.4,1.78-4.4,4.23-11.57,6.21-17.68l2.54-7.85.74-2.4c-6.61-.9-13.29-1.15-19.95-.76-1.41.1-2.81.29-4.2.58l-.96.18c-15.96,27.61-25.88,32.82-52.53,34.6-3.19.2-6.38.04-9.54-.46l-.55-.1-.18-5.37.89.28c6.01,1.65,12.34,1.74,18.39.26,7.71-1.76,14.62-6.04,19.63-12.16,2.45-3,4.66-6.19,6.61-9.54,2.12-3.49,4.21-7.35,6.48-11.25,8.53-14.56,17.4-29.65,17.4-29.65,19.48-33.65,31.07-50.9,46.19-63.95,8.26-2.71,10.33-3.31,18.01-6.41l.89-.36v.97c.17,10.77-4.36,27.68-11.88,50.63-2.21,6.74-14.74,43.36-15.15,44.62,1.26-.13,4.02-.4,7.35-.55,4.15-.11,8.27-.71,12.28-1.78,1.16-3.31,2.5-6.87,4.05-10.89,8.26-21.02,17.57-41.6,27.89-61.69l2.02-3.6c13.62-26.57,19.48-5.22,19.83,6.99-.1,43.81-10.21,48.39-39.3,72.71-9.39,32.59,8.1,30.01,23.17,25.81,5.78-16.53,11.57-32.82,17.62-50.12,8.86-2.18,11.32-2.84,20.51-5.8-4.11,8.76-5.4,11.25-9.34,20.94,14.15-13.58,29.37-22.13,38.85-22.59,3.58-.23,6.67,2.49,6.9,6.06,0,.07,0,.14.01.21,0,1.92-.68,4.64-2.79,8.94-1.19,2.54-2.25,4.96-3.45,7.42,16.21-15.04,29.56-22.06,39.88-22.56,4.96,0,8.05,2.21,7.97,6.1-.31,2.47-.9,4.89-1.77,7.22-3.21,8.26-6.1,16.06-9.25,24.23-2.68,6.61-2.99,7.95-2.94,10.39.17,5.09,3.95,7.3,11.57,7.34,2.35-.04,4.67-.45,6.89-1.22-.71-2.07-1.12-4.24-1.21-6.43.45-22.71,29.02-46.87,56.93-47.74,7.32.15,12.28,4.15,12.49,10.46,0,13.77-18.18,29.3-45.68,37.59,6.79,6.61,15.67,9.72,29.63,9.75,6.55-.36,13.04-1.39,19.38-3.06.54-5.51,1.77-10.94,3.65-16.15,3.31-9.67,6.43-18.84,9.65-28.67-5.42.26-5.88.33-11.32.59,2.46-3.93,3.07-5.09,5.35-8.71,4.28.17,5.87.18,8.73.15,3.22-9.27,6.05-18.18,9.3-27.55,8.35-1.29,10.66-1.65,19-3.49-3.75,10.82-7.37,21.05-11.06,31.68,5.65-.18,7.92.3,13.37.15.97-.12,7.35-.28,10.28-.13,3.31-9.37,6.18-18.36,9.44-27.75,8.35-1.29,10.64-1.65,19.02-3.31-3.88,10.58-7.37,20.89-11.07,31.53,5.82-.18,7.3-.35,13.14-.45l-2.05,4.23c-.89,1.65-1.77,3.31-2.66,5.07-4.96-.73-6.23-.64-11.25-1.02l-6.44,18.57c-2.81,8.58-4.81,15.9-4.76,18.9.33,6.61,5.55,9.92,16.53,10.15,1.12,0,2.51,0,4.08-.17-1.45-2.86-2.21-6-2.25-9.2.45-23.14,29.02-46.9,57.05-46.8,7.32.15,12.29,4.51,12.49,10.72-.15,13.8-18.57,28.67-45.91,36.93,6.61,6.94,15.7,10.34,29.75,10.63,5.56.18,11.11-.38,16.53-1.65.2.58.46,1.14.66,1.65-18.89,5.35-35.33,8.11-46.27,7.88-9.73-.2-16.53-2.88-20.47-7.82-1.65.45-3.17.86-4.74,1.34-16.77,4.45-20.79,5.19-26.19,5.17s-8.89-2.63-10.1-7.22c-1.65.45-3.16.89-4.74,1.36-16.69,4.41-20.76,5.32-26.16,5.3-6.48-.13-10.18-3.57-10.54-10.01-18.66,5.6-37.41,9.5-48.3,9.47-11.65,0-19.09-3.5-22.39-10.26l-1.65.64c-17.07,6.84-25.96,9.72-30.69,9.92-4.37.19-8.06-3.19-8.26-7.56,0-.04,0-.07,0-.11-.13-2.53.74-5.39,2.5-10.72,2.73-7.44,5.22-14.87,7.98-22.36,0-.21.4-1.21.79-2.74.32-.83.58-1.67.79-2.53.23-.75.36-1.53.38-2.31-.18-2.64-2.59-3.98-7.09-3.92-8.41.41-15.57,9.73-26.44,35.05-1.87,4.38-3.77,8.51-5.62,12.81-6.3,1.11-12.5,2.73-18.54,4.84,4.66-12.72,8.91-24.97,13.7-38.01.2-1.09.61-1.97,1.22-4.11.18-1.06.48-1.92.74-3.06.2-.9.34-1.81.4-2.73-.17-2.33-2.4-3.5-7.3-3.44-8.41.41-15.68,10.23-24.51,33.05-1.93,4.96-3.82,9.68-5.77,14.71-5.95.84-11.82,2.23-17.52,4.15l2.68-7.7-.07.05Zm-20.51-35.98c6.49-2.88,15.81-6.96,19.4-17.29,4.76-14.53,6.79-24.39,6.86-48.72-9.35,19.93-10.72,21.48-18.18,43.15-4.74,12.92-2,4.96-4.56,12.82-.66,2.15-1.34,3.98-3.44,10.05l-.08-.02Z"/></g></g></svg>