<?xml version="1.0" encoding="UTF-8"?><svg id="Warstwa_1" xmlns="http://www.w3.org/2000/svg" viewBox="0 0 1070.45 506.67"><defs><style>.cls-1{fill:#24408f;stroke-width:0px;}</style></defs><path class="cls-1" d="m59.4,78.83l-14.51,17.58v16.47h-4.61v-60.76h4.61v37.98l30.81-37.98h5.55l-18.78,23.21,21.93,37.55h-5.46l-19.54-34.05Z"/><path class="cls-1" d="m115.3,113.4c-12.21,0-20.82-8.36-20.82-20.23v-41.05h4.61v40.45c0,10.07,6.4,16.73,16.22,16.73s16.21-6.66,16.21-16.73v-40.45h4.61v41.05c0,11.86-8.62,20.23-20.82,20.23Z"/><path class="cls-1" d="m176.32,87.11h-17.67v25.77h-4.61v-60.76h22.27c10.5,0,18.35,6.32,18.35,17.5s-7.85,17.5-18.35,17.5Zm-.51-30.89h-17.15v26.8h17.15c8.45,0,14.25-4.27,14.25-13.4s-5.8-13.4-14.25-13.4Z"/><path class="cls-1" d="m225.31,112.88v-9.98l22.7-26.37c2.22-2.65,3.16-4.52,3.16-7.34,0-4.52-2.65-7.6-7.34-7.6-3.67,0-7.43,1.88-7.43,7.77h-11.09c0-11.09,8.11-17.75,18.52-17.75s18.43,6.74,18.43,17.67c0,5.89-2.3,9.05-6.49,13.91l-16.98,19.71h23.47v9.98h-36.95Z"/><path class="cls-1" d="m301.77,107.51l-12.03-12.03-11.95,12.03-7-7,12.03-12.03-12.03-12.03,7-7,11.95,12.03,12.03-12.03,7,7-12.03,12.03,12.03,12.03-7,7Z"/><path class="cls-1" d="m374.4,112.88l-3.58-10.75h-21.59l-3.67,10.75h-12.37l22.1-60.76h9.3l22.19,60.76h-12.38Zm-14.17-42.84l-7.68,22.1h15.11l-7.43-22.1Z"/><path class="cls-1" d="m394.29,112.88v-60.76h11.86v50.18h27.57v10.58h-39.43Z"/><path class="cls-1" d="m486.54,112.88v-35.42l-11.61,23.04h-8.02l-11.69-23.04v35.42h-11.86v-60.76h11.69l15.87,32.86,15.79-32.86h11.69v60.76h-11.86Z"/><path class="cls-1" d="m512.57,112.88v-60.76h40.03v10.58h-28.16v14.25h23.98v10.58h-23.98v14.76h28.16v10.58h-40.03Z"/><path class="cls-1" d="m587.42,62.7v50.18h-11.86v-50.18h-15.87v-10.58h43.61v10.58h-15.87Z"/><path class="cls-1" d="m636.15,62.7v50.18h-11.86v-50.18h-15.88v-10.58h43.61v10.58h-15.88Z"/><path class="cls-1" d="m661.67,112.88v-60.76h40.03v10.58h-28.16v14.25h23.98v10.58h-23.98v14.76h28.16v10.58h-40.03Z"/><path class="cls-1" d="m37.98,215.3v-60.76h11.86v60.76h-11.86Z"/><path class="cls-1" d="m120.59,209.15c-4.27,4.27-9.47,6.66-16.39,6.66s-12.2-2.39-16.47-6.66c-6.14-6.15-5.97-13.74-5.97-24.24s-.17-18.09,5.97-24.24c4.27-4.27,9.56-6.66,16.47-6.66s12.12,2.39,16.39,6.66c6.14,6.14,6.06,13.74,6.06,24.24s.09,18.09-6.06,24.24Zm-8.79-41.31c-1.71-1.96-4.35-3.24-7.6-3.24s-5.97,1.28-7.68,3.24c-2.3,2.56-2.9,5.38-2.9,17.07s.6,14.51,2.9,17.07c1.71,1.96,4.44,3.24,7.68,3.24s5.89-1.28,7.6-3.24c2.3-2.56,2.99-5.38,2.99-17.07s-.68-14.51-2.99-17.07Z"/><path class="cls-1" d="m162.32,192.43h-11.69v22.87h-11.86v-60.76h23.55c12.54,0,20.06,8.62,20.06,18.95s-7.51,18.95-20.06,18.95Zm-.6-27.31h-11.09v16.64h11.09c5.38,0,8.79-3.33,8.79-8.28s-3.41-8.36-8.79-8.36Z"/><path class="cls-1" d="m192.36,215.3v-60.76h11.86v60.76h-11.86Z"/><path class="cls-1" d="m235.12,215.81c-9.22,0-16.21-1.96-22.19-8.02l7.68-7.68c3.84,3.84,9.05,5.12,14.68,5.12,7,0,10.75-2.65,10.75-7.51,0-2.13-.6-3.93-1.88-5.12-1.19-1.11-2.56-1.71-5.38-2.13l-7.34-1.02c-5.21-.77-9.05-2.39-11.78-5.04-2.9-2.9-4.35-6.83-4.35-11.95,0-10.84,8.02-18.43,21.17-18.43,8.36,0,14.42,2.05,19.63,7.08l-7.51,7.42c-3.84-3.67-8.45-4.18-12.46-4.18-6.31,0-9.39,3.5-9.39,7.68,0,1.54.51,3.16,1.79,4.35,1.2,1.11,3.16,2.05,5.63,2.39l7.17,1.02c5.55.77,9.05,2.3,11.61,4.69,3.24,3.07,4.69,7.51,4.69,12.89,0,11.78-9.81,18.43-22.53,18.43Z"/><path class="cls-1" d="m265.16,215.3v-9.56l25.94-40.62h-24.83v-10.58h38.83v9.39l-26.03,40.79h26.03v10.58h-39.94Z"/><path class="cls-1" d="m370.73,215.3l-15.62-27.65-7.85,9.39v18.26h-11.86v-60.76h11.86v26.46l21.42-26.46h14.42l-20.14,24.15,21.59,36.61h-13.83Z"/><path class="cls-1" d="m413.57,215.81c-12.46,0-22.36-8.45-22.36-21.34v-39.94h11.86v39.51c0,7,4.1,11.18,10.5,11.18s10.58-4.18,10.58-11.18v-39.51h11.78v39.94c0,12.89-9.9,21.34-22.36,21.34Z"/><path class="cls-1" d="m469.47,215.81c-6.49,0-11.95-2.22-16.39-6.66-2.65-2.65-4.27-5.72-4.95-9.13s-1.02-8.45-1.02-15.11.34-11.69,1.02-15.11c.68-3.5,2.3-6.49,4.95-9.13,4.44-4.44,9.9-6.66,16.39-6.66,11.69,0,20.31,6.83,22.36,19.2h-12.03c-1.28-5.21-4.52-8.62-10.24-8.62-3.24,0-5.8,1.02-7.6,3.16-2.47,2.65-2.99,5.38-2.99,17.15s.51,14.51,2.99,17.15c1.79,2.13,4.35,3.16,7.6,3.16,5.72,0,8.96-3.41,10.24-8.62h12.03c-2.05,12.37-10.75,19.2-22.36,19.2Z"/><path class="cls-1" d="m534.51,215.3v-25.43h-20.57v25.43h-11.86v-60.76h11.86v24.83h20.57v-24.83h11.86v60.76h-11.86Z"/><path class="cls-1" d="m596.47,215.3l-24.07-37.29v37.29h-11.86v-60.76h10.58l24.07,37.21v-37.21h11.86v60.76h-10.58Z"/><path class="cls-1" d="m621.22,215.3v-60.76h11.86v60.76h-11.86Z"/><path class="cls-1" d="m647.25,215.3v-60.76h40.03v10.58h-28.16v14.25h23.98v10.58h-23.98v14.76h28.16v10.58h-7.25c-2.73,1.28-4.1,3.07-4.1,5.21,0,1.37.85,2.05,2.56,2.05,1.11,0,2.22-.43,3.33-1.28l3.84,7.51c-2.99,1.88-5.89,2.82-8.62,2.82-3.16-.09-5.89-1.11-8.02-3.07-2.13-1.96-3.16-4.27-3.07-6.91,0-2.05.68-4.18,2.05-6.32h-20.74Z"/><path class="cls-1" d="m735.41,215.81c-9.22,0-16.21-1.96-22.19-8.02l7.68-7.68c3.84,3.84,9.05,5.12,14.68,5.12,7,0,10.75-2.65,10.75-7.51,0-2.13-.6-3.93-1.88-5.12-1.19-1.11-2.56-1.71-5.38-2.13l-7.34-1.02c-5.21-.77-9.05-2.39-11.78-5.04-2.9-2.9-4.35-6.83-4.35-11.95,0-10.84,8.02-18.43,21.17-18.43,8.36,0,14.42,2.05,19.63,7.08l-7.51,7.42c-3.84-3.67-8.45-4.18-12.46-4.18-6.31,0-9.39,3.5-9.39,7.68,0,1.54.51,3.16,1.79,4.35,1.2,1.11,3.16,2.05,5.63,2.39l7.17,1.02c5.55.77,9.05,2.3,11.61,4.69,3.24,3.07,4.69,7.51,4.69,12.89,0,11.78-9.81,18.43-22.53,18.43Z"/><path class="cls-1" d="m820.92,215.3h-9.9l-11.18-36.87-11.18,36.87h-9.9l-16.21-60.76h12.38l9.39,38.32,11.09-38.32h8.88l11.09,38.32,9.47-38.32h12.37l-16.3,60.76Z"/><path class="cls-1" d="m880.75,209.15c-4.27,4.27-9.47,6.66-16.39,6.66s-12.2-2.39-16.47-6.66c-6.14-6.15-5.97-13.74-5.97-24.24s-.17-18.09,5.97-24.24c4.27-4.27,9.56-6.66,16.47-6.66s12.12,2.39,16.39,6.66c6.14,6.14,6.06,13.74,6.06,24.24s.09,18.09-6.06,24.24Zm-8.79-41.31c-1.71-1.96-4.35-3.24-7.59-3.24s-5.97,1.28-7.68,3.24c-2.3,2.56-2.9,5.38-2.9,17.07s.6,14.51,2.9,17.07c1.71,1.96,4.44,3.24,7.68,3.24s5.89-1.28,7.59-3.24c2.3-2.56,2.99-5.38,2.99-17.07s-.68-14.51-2.99-17.07Z"/><path class="cls-1" d="m898.93,215.3v-60.76h11.86v60.76h-11.86Z"/><path class="cls-1" d="m945.27,215.81c-6.49,0-11.95-2.22-16.38-6.66-2.65-2.65-4.27-5.72-4.95-9.13-.68-3.41-1.02-8.45-1.02-15.11s.34-11.69,1.02-15.11c.68-3.5,2.3-6.49,4.95-9.13,4.44-4.44,9.9-6.66,16.38-6.66,11.69,0,20.31,6.83,22.36,19.2h-12.03c-1.28-5.21-4.52-8.62-10.24-8.62-3.24,0-5.8,1.02-7.6,3.16-2.47,2.65-2.99,5.38-2.99,17.15s.51,14.51,2.99,17.15c1.79,2.13,4.35,3.16,7.6,3.16,5.72,0,8.96-3.41,10.24-8.62h12.03c-2.05,12.37-10.75,19.2-22.36,19.2Z"/><path class="cls-1" d="m1010.3,215.3v-25.43h-20.57v25.43h-11.86v-60.76h11.86v24.83h20.57v-24.83h11.86v60.76h-11.86Z"/><path class="cls-1" d="m81.16,317.71v-35.42l-11.61,23.04h-8.02l-11.69-23.04v35.42h-11.86v-60.76h11.69l15.87,32.86,15.79-32.86h11.69v60.76h-11.86Z"/><path class="cls-1" d="m141.75,317.71l-3.58-10.75h-21.59l-3.67,10.75h-12.37l22.1-60.76h9.3l22.19,60.76h-12.38Zm-14.17-42.84l-7.68,22.1h15.11l-7.43-22.1Z"/><path class="cls-1" d="m193.9,317.71l-11.86-24.24h-8.54v24.24h-11.86v-60.76h23.81c12.37,0,19.71,8.45,19.71,18.6,0,8.53-5.21,13.83-11.09,15.96l13.57,26.2h-13.74Zm-9.22-50.18h-11.18v16.04h11.18c5.21,0,8.62-3.33,8.62-8.02s-3.41-8.02-8.62-8.02Z"/><path class="cls-1" d="m213.78,317.71v-9.56l25.94-40.62h-24.83v-10.58h38.83v9.39l-26.03,40.79h26.03v10.58h-39.94Z"/><path class="cls-1" d="m264.22,317.71v-60.76h40.03v10.58h-28.16v14.25h23.98v10.58h-23.98v14.76h28.16v10.58h-40.03Z"/><path class="cls-1" d="m362.37,317.71h-10.58l-24.07-37.29v37.29h-11.86v-60.76h10.58l24.07,37.21v-37.21h11.86v60.76Zm-12.8-81.16l-9.73,14.51h-7.42l5.46-14.51h11.69Z"/><path class="cls-1" d="m389.93,298.68h-8.19l-2.73-41.73h13.74l-2.82,41.73Zm-10.41,19.03v-12.63h12.72v12.63h-12.72Z"/><path class="cls-1" d="m68.21,402.33l-11.66-20.37-8.06,9.67v10.69h-4.08v-38.26h4.08v21.98l17.84-21.98h5l-12.04,14.78,13.76,23.48h-4.84Z"/><path class="cls-1" d="m100.5,398.67c-2.58,2.58-5.97,3.98-9.78,3.98s-7.2-1.4-9.78-3.98c-3.6-3.6-3.6-7.36-3.6-15.48s0-11.88,3.6-15.48c2.58-2.58,5.97-3.98,9.78-3.98s7.2,1.4,9.78,3.98c3.6,3.6,3.6,7.36,3.6,15.48s0,11.88-3.6,15.48Zm-3.17-28.54c-1.67-1.72-4.08-2.74-6.61-2.74s-4.94,1.02-6.61,2.74c-2.42,2.47-2.69,5.05-2.69,13.06s.27,10.59,2.69,13.06c1.67,1.72,4.08,2.74,6.61,2.74s4.94-1.02,6.61-2.74c2.42-2.47,2.69-5.05,2.69-13.06s-.27-10.59-2.69-13.06Z"/><path class="cls-1" d="m138.12,402.33l-20.31-30.69v30.69h-4.08v-38.26h3.87l20.31,30.58v-30.58h4.08v38.26h-3.87Z"/><path class="cls-1" d="m176.87,402.33l-11.66-20.37-8.06,9.67v10.69h-4.08v-38.26h4.08v21.98l17.84-21.98h5l-12.04,14.78,13.76,23.48h-4.84Z"/><path class="cls-1" d="m200.78,402.65c-7.74,0-13.33-5.32-13.33-12.95v-25.63h4.08v25.31c0,5.8,3.65,9.62,9.24,9.62s9.3-3.82,9.3-9.62v-25.31h4.08v25.63c0,7.63-5.64,12.95-13.38,12.95Z"/><path class="cls-1" d="m246.67,402.33l-8.71-16.98h-9.19v16.98h-4.08v-38.26h14.67c6.66,0,11.34,4.03,11.34,10.64,0,5.59-3.39,9.24-8.33,10.26l9.08,17.36h-4.78Zm-7.68-34.61h-10.21v14.03h10.21c4.46,0,7.63-2.31,7.63-6.99s-3.17-7.04-7.63-7.04Z"/><path class="cls-1" d="m269.78,402.65c-5.75,0-9.51-1.45-13.11-5.05l2.79-2.79c3.17,3.17,6.13,4.19,10.43,4.19,5.59,0,9.03-2.63,9.03-7.09,0-1.99-.59-3.71-1.83-4.78-1.24-1.07-2.2-1.4-5-1.83l-4.46-.7c-3.01-.48-5.37-1.45-7.04-2.9-1.94-1.72-2.9-4.08-2.9-7.15,0-6.5,4.68-10.8,12.25-10.8,4.89,0,8.12,1.24,11.39,4.19l-2.63,2.63c-2.36-2.15-4.89-3.28-8.92-3.28-5.11,0-8.06,2.85-8.06,7.09,0,1.88.54,3.39,1.72,4.41,1.18,1.02,3.17,1.77,5.16,2.1l4.19.65c3.6.54,5.37,1.29,6.99,2.69,2.1,1.77,3.22,4.41,3.22,7.58,0,6.72-5.27,10.86-13.22,10.86Z"/><path class="cls-1" d="m316.16,367.72v34.61h-4.08v-34.61h-11.07v-3.65h26.23v3.65h-11.07Z"/><path class="cls-1" d="m356.35,402.33l-8.71-16.98h-9.19v16.98h-4.08v-38.26h14.67c6.66,0,11.34,4.03,11.34,10.64,0,5.59-3.39,9.24-8.33,10.26l9.08,17.36h-4.78Zm-7.68-34.61h-10.21v14.03h10.21c4.46,0,7.63-2.31,7.63-6.99s-3.17-7.04-7.63-7.04Z"/><path class="cls-1" d="m399.35,402.33h-3.82l-8.49-30.63-8.49,30.63h-3.82l-9.78-38.26h4.35l7.47,30.85,8.44-30.85h3.65l8.44,30.85,7.47-30.85h4.35l-9.78,38.26Z"/><path class="cls-1" d="m437.23,402.33l-3.06-8.65h-16.71l-3.06,8.65h-4.35l14.08-38.26h3.44l14.03,38.26h-4.35Zm-11.34-32.41l-7.2,20.21h14.3l-7.09-20.21Z"/><path class="cls-1" d="m483.23,398.46c-2.69,2.69-5.96,4.19-10.32,4.19s-7.68-1.5-10.37-4.19c-3.87-3.87-3.76-8.65-3.76-15.26s-.11-11.39,3.76-15.26c2.69-2.69,6.02-4.19,10.37-4.19s7.63,1.5,10.32,4.19c3.87,3.87,3.82,8.65,3.82,15.26s.05,11.39-3.82,15.26Zm-5.54-26.01c-1.08-1.24-2.74-2.04-4.78-2.04s-3.76.81-4.84,2.04c-1.45,1.61-1.83,3.39-1.83,10.75s.38,9.14,1.83,10.75c1.08,1.24,2.79,2.04,4.84,2.04s3.71-.81,4.78-2.04c1.45-1.61,1.88-3.39,1.88-10.75s-.43-9.14-1.88-10.75Z"/><path class="cls-1" d="m518.59,398.67c-2.53,2.53-6.13,3.65-10.1,3.65h-13.81v-38.26h13.81c3.98,0,7.58,1.13,10.1,3.65,4.3,4.3,3.87,9.57,3.87,15.32s.43,11.34-3.87,15.64Zm-5.21-25.58c-1.29-1.56-3.01-2.36-5.59-2.36h-5.64v24.94h5.64c2.58,0,4.3-.81,5.59-2.36,1.4-1.72,1.61-4.46,1.61-10.26s-.21-8.22-1.61-9.94Z"/><path class="cls-1" d="m551.43,402.33v-30.74l-7.79,6.77v-7.52l7.79-6.77h6.99v38.26h-6.99Z"/><path class="cls-1" d="m570.45,402.33v-6.29l14.29-16.61c1.4-1.67,1.99-2.85,1.99-4.62,0-2.85-1.67-4.78-4.62-4.78-2.31,0-4.68,1.18-4.68,4.89h-6.99c0-6.99,5.11-11.18,11.66-11.18s11.61,4.25,11.61,11.12c0,3.71-1.45,5.7-4.08,8.76l-10.69,12.41h14.78v6.29h-23.27Z"/><path class="cls-1" d="m600.11,402.33v-7.95h8.01v7.95h-8.01Z"/><path class="cls-1" d="m625.1,402.33v-30.74l-7.79,6.77v-7.52l7.79-6.77h6.99v38.26h-6.99Z"/><path class="cls-1" d="m655.57,402.65c-6.23,0-11.66-4.08-11.66-11.39v-16.12c0-7.31,5.43-11.39,11.66-11.39s11.61,4.08,11.61,11.39v16.12c0,7.31-5.37,11.39-11.61,11.39Zm4.62-27.41c0-3.22-1.88-5.21-4.62-5.21s-4.67,1.99-4.67,5.21v15.96c0,3.22,1.93,5.16,4.67,5.16s4.62-1.93,4.62-5.16v-15.96Z"/><path class="cls-1" d="m710.98,398.67c-2.53,2.53-6.13,3.65-10.1,3.65h-13.81v-38.26h13.81c3.98,0,7.58,1.13,10.1,3.65,4.3,4.3,3.87,9.57,3.87,15.32s.43,11.34-3.87,15.64Zm-5.21-25.58c-1.29-1.56-3.01-2.36-5.59-2.36h-5.64v24.94h5.64c2.58,0,4.3-.81,5.59-2.36,1.4-1.72,1.61-4.46,1.61-10.26s-.21-8.22-1.61-9.94Z"/><path class="cls-1" d="m745.64,398.46c-2.69,2.69-5.96,4.19-10.32,4.19s-7.68-1.5-10.37-4.19c-3.87-3.87-3.76-8.65-3.76-15.26s-.11-11.39,3.76-15.26c2.69-2.69,6.02-4.19,10.37-4.19s7.63,1.5,10.32,4.19c3.87,3.87,3.82,8.65,3.82,15.26s.05,11.39-3.82,15.26Zm-5.54-26.01c-1.08-1.24-2.74-2.04-4.78-2.04s-3.76.81-4.84,2.04c-1.45,1.61-1.83,3.39-1.83,10.75s.38,9.14,1.83,10.75c1.08,1.24,2.79,2.04,4.84,2.04s3.71-.81,4.78-2.04c1.45-1.61,1.88-3.39,1.88-10.75s-.43-9.14-1.88-10.75Z"/><path class="cls-1" d="m768.26,402.33v-6.29l14.29-16.61c1.4-1.67,1.99-2.85,1.99-4.62,0-2.85-1.67-4.78-4.62-4.78-2.31,0-4.68,1.18-4.68,4.89h-6.99c0-6.99,5.11-11.18,11.66-11.18s11.61,4.25,11.61,11.12c0,3.71-1.45,5.7-4.08,8.76l-10.69,12.41h14.78v6.29h-23.27Z"/><path class="cls-1" d="m808.78,402.65c-6.77,0-11.93-4.25-11.93-11.82,0-3.49,1.5-6.72,3.22-10.21l8.06-16.55h7.63l-7.95,15.8c.91-.38,1.93-.48,2.85-.48,5.16,0,10.05,4.25,10.05,11.34,0,7.52-5.16,11.93-11.93,11.93Zm0-17.47c-2.85,0-4.94,2.04-4.94,5.59s2.1,5.59,4.94,5.59,4.94-2.04,4.94-5.59-1.99-5.59-4.94-5.59Z"/><path class="cls-1" d="m827.11,402.33v-7.95h8.01v7.95h-8.01Z"/><path class="cls-1" d="m852.09,402.33v-30.74l-7.79,6.77v-7.52l7.79-6.77h6.99v38.26h-6.99Z"/><path class="cls-1" d="m882.56,402.65c-6.23,0-11.66-4.08-11.66-11.39v-16.12c0-7.31,5.43-11.39,11.66-11.39s11.61,4.08,11.61,11.39v16.12c0,7.31-5.37,11.39-11.61,11.39Zm4.62-27.41c0-3.22-1.88-5.21-4.62-5.21s-4.68,1.99-4.68,5.21v15.96c0,3.22,1.93,5.16,4.68,5.16s4.62-1.93,4.62-5.16v-15.96Z"/><path class="cls-1" d="m900.78,402.33v-7.95h8.01v7.95h-8.01Z"/><path class="cls-1" d="m915.61,402.33v-6.29l14.29-16.61c1.4-1.67,1.99-2.85,1.99-4.62,0-2.85-1.67-4.78-4.62-4.78-2.31,0-4.68,1.18-4.68,4.89h-6.99c0-6.99,5.11-11.18,11.66-11.18s11.61,4.25,11.61,11.12c0,3.71-1.45,5.7-4.08,8.76l-10.69,12.41h14.78v6.29h-23.27Z"/><path class="cls-1" d="m956.24,402.65c-6.23,0-11.66-4.08-11.66-11.39v-16.12c0-7.31,5.43-11.39,11.66-11.39s11.61,4.08,11.61,11.39v16.12c0,7.31-5.37,11.39-11.61,11.39Zm4.62-27.41c0-3.22-1.88-5.21-4.62-5.21s-4.68,1.99-4.68,5.21v15.96c0,3.22,1.93,5.16,4.68,5.16s4.62-1.93,4.62-5.16v-15.96Z"/><path class="cls-1" d="m973.97,402.33v-6.29l14.29-16.61c1.4-1.67,1.99-2.85,1.99-4.62,0-2.85-1.67-4.78-4.62-4.78-2.31,0-4.68,1.18-4.68,4.89h-6.99c0-6.99,5.11-11.18,11.66-11.18s11.61,4.25,11.61,11.12c0,3.71-1.45,5.7-4.08,8.76l-10.69,12.41h14.78v6.29h-23.27Z"/><path class="cls-1" d="m1014.44,402.65c-6.23,0-12.09-3.28-12.2-11.29h6.99c.11,3.44,2.47,5,5.21,5,3.01,0,5.16-1.88,5.16-5.32,0-3.17-1.93-5.27-5.37-5.27h-1.02v-6.07h1.02c3.39,0,4.84-2.1,4.84-4.78,0-3.22-2.15-4.89-4.68-4.89s-4.57,1.72-4.73,4.62h-6.99c.16-6.83,5.27-10.91,11.71-10.91,6.77,0,11.66,4.51,11.66,10.96,0,4.14-1.88,6.5-4.41,7.85,2.74,1.45,4.94,4.08,4.94,8.71,0,7.63-5.59,11.39-12.15,11.39Z"/><path class="cls-1" d="m66.11,463.16c-2.58,2.58-5.97,3.98-9.78,3.98s-7.2-1.4-9.78-3.98c-3.6-3.6-3.6-7.36-3.6-15.48s0-11.88,3.6-15.48c2.58-2.58,5.97-3.98,9.78-3.98s7.2,1.4,9.78,3.98c3.6,3.6,3.6,7.36,3.6,15.48s0,11.88-3.6,15.48Zm-3.17-28.54c-1.67-1.72-4.08-2.74-6.61-2.74s-4.94,1.02-6.61,2.74c-2.42,2.47-2.69,5.05-2.69,13.06s.27,10.59,2.69,13.06c1.67,1.72,4.08,2.74,6.61,2.74s4.94-1.02,6.61-2.74c2.42-2.47,2.69-5.05,2.69-13.06s-.27-10.59-2.69-13.06Z"/><path class="cls-1" d="m101.31,466.81l-8.71-16.98h-9.19v16.98h-4.08v-38.26h14.67c6.66,0,11.34,4.03,11.34,10.64,0,5.59-3.39,9.24-8.33,10.26l9.08,17.36h-4.78Zm-7.68-34.61h-10.21v14.03h10.21c4.46,0,7.63-2.31,7.63-6.99s-3.17-7.04-7.63-7.04Z"/><path class="cls-1" d="m136.72,462.73c-2.69,2.9-6.29,4.41-10.21,4.41s-7.2-1.4-9.78-3.98c-3.6-3.6-3.6-7.36-3.6-15.48s0-11.88,3.6-15.48c2.58-2.58,5.97-3.98,9.78-3.98,7.31,0,12.25,4.73,13.38,11.45h-4.08c-1.08-4.84-4.51-7.79-9.3-7.79-2.53,0-4.94,1.02-6.61,2.74-2.42,2.47-2.69,5.05-2.69,13.06s.27,10.64,2.69,13.11c1.67,1.72,4.08,2.69,6.61,2.69,2.79,0,5.48-1.13,7.25-3.28,1.56-1.88,2.15-3.98,2.15-6.93v-2.9h-9.41v-3.6h13.49v6.07c0,4.41-.91,7.36-3.28,9.89Z"/><path class="cls-1" d="m171.28,466.81l-3.06-8.65h-16.71l-3.06,8.65h-4.35l14.08-38.26h3.44l14.03,38.26h-4.35Zm-11.34-32.41l-7.2,20.21h14.3l-7.09-20.21Z"/><path class="cls-1" d="m206.21,466.81l-20.31-30.69v30.69h-4.08v-38.26h3.87l20.31,30.58v-30.58h4.08v38.26h-3.87Z"/><path class="cls-1" d="m221.15,466.81v-38.26h4.08v38.26h-4.08Z"/><path class="cls-1" d="m233.83,466.81v-3.87l19.13-30.74h-18.38v-3.65h23v3.44l-19.29,31.17h19.29v3.65h-23.75Z"/><path class="cls-1" d="m288.48,466.81l-3.06-8.65h-16.71l-3.06,8.65h-4.35l14.08-38.26h3.44l14.03,38.26h-4.35Zm-11.34-32.41l-7.2,20.21h14.3l-7.09-20.21Z"/><path class="cls-1" d="m307.02,432.2v34.61h-4.08v-34.61h-11.07v-3.65h26.23v3.65h-11.07Z"/><path class="cls-1" d="m345.88,463.16c-2.58,2.58-5.97,3.98-9.78,3.98s-7.2-1.4-9.78-3.98c-3.6-3.6-3.6-7.36-3.6-15.48s0-11.88,3.6-15.48c2.58-2.58,5.97-3.98,9.78-3.98s7.2,1.4,9.78,3.98c3.6,3.6,3.6,7.36,3.6,15.48s0,11.88-3.6,15.48Zm-3.17-28.54c-1.67-1.72-4.08-2.74-6.61-2.74s-4.94,1.02-6.61,2.74c-2.42,2.47-2.69,5.05-2.69,13.06s.27,10.59,2.69,13.06c1.67,1.72,4.08,2.74,6.61,2.74s4.94-1.02,6.61-2.74c2.42-2.47,2.69-5.05,2.69-13.06s-.27-10.59-2.69-13.06Z"/><path class="cls-1" d="m381.07,466.81l-8.71-16.98h-9.19v16.98h-4.08v-38.26h14.67c6.66,0,11.34,4.03,11.34,10.64,0,5.59-3.39,9.24-8.33,10.26l9.08,17.36h-4.78Zm-7.68-34.61h-10.21v14.03h10.21c4.46,0,7.63-2.31,7.63-6.99s-3.17-7.04-7.63-7.04Z"/><path class="cls-1" d="m394.99,450.64v-5.05h5.05v5.05h-5.05Zm0,16.18v-5.05h5.05v5.05h-5.05Z"/><path class="cls-1" d="m445.83,462.73c-2.69,2.9-6.29,4.41-10.21,4.41s-7.2-1.4-9.78-3.98c-3.6-3.6-3.6-7.36-3.6-15.48s0-11.88,3.6-15.48c2.58-2.58,5.97-3.98,9.78-3.98,7.31,0,12.25,4.73,13.38,11.45h-4.08c-1.08-4.84-4.51-7.79-9.3-7.79-2.53,0-4.94,1.02-6.61,2.74-2.42,2.47-2.69,5.05-2.69,13.06s.27,10.64,2.69,13.11c1.67,1.72,4.08,2.69,6.61,2.69,2.79,0,5.48-1.13,7.25-3.28,1.56-1.88,2.15-3.98,2.15-6.93v-2.9h-9.41v-3.6h13.49v6.07c0,4.41-.91,7.36-3.28,9.89Z"/><path class="cls-1" d="m480.6,466.81l-8.71-16.98h-9.19v16.98h-4.08v-38.26h14.67c6.66,0,11.34,4.03,11.34,10.64,0,5.59-3.39,9.24-8.33,10.26l9.08,17.36h-4.78Zm-7.68-34.61h-10.21v14.03h10.21c4.46,0,7.63-2.31,7.63-6.99s-3.17-7.04-7.63-7.04Z"/><path class="cls-1" d="m515.58,463.16c-2.58,2.58-5.97,3.98-9.78,3.98s-7.2-1.4-9.78-3.98c-3.6-3.6-3.6-7.36-3.6-15.48s0-11.88,3.6-15.48c2.58-2.58,5.97-3.98,9.78-3.98s7.2,1.4,9.78,3.98c3.6,3.6,3.6,7.36,3.6,15.48s0,11.88-3.6,15.48Zm-3.17-28.54c-1.67-1.72-4.08-2.74-6.61-2.74s-4.94,1.02-6.61,2.74c-2.42,2.47-2.69,5.05-2.69,13.06s.27,10.59,2.69,13.06c1.67,1.72,4.08,2.74,6.61,2.74s4.94-1.02,6.61-2.74c2.42-2.47,2.69-5.05,2.69-13.06s-.27-10.59-2.69-13.06Z"/><path class="cls-1" d="m557.98,466.81h-3.82l-8.49-30.63-8.49,30.63h-3.82l-9.78-38.26h4.35l7.47,30.85,8.44-30.85h3.65l8.44,30.85,7.47-30.85h4.35l-9.78,38.26Z"/><path class="cls-1" d="m585.39,432.2v34.61h-4.08v-34.61h-11.07v-3.65h26.23v3.65h-11.07Z"/><path class="cls-1" d="m625.85,466.81v-17.47h-18.16v17.47h-4.08v-38.26h4.08v17.14h18.16v-17.14h4.08v38.26h-4.08Z"/><path class="cls-1" d="m677.17,463.27c-2.31,2.31-5.7,3.55-9.67,3.55h-13.11v-38.26h13.11c3.98,0,7.36,1.24,9.67,3.55,3.98,3.98,3.76,9.83,3.76,15.15s.21,12.04-3.76,16.02Zm-2.85-28.27c-1.99-2.04-4.57-2.79-7.52-2.79h-8.33v30.96h8.33c2.96,0,5.54-.75,7.52-2.79,2.63-2.74,2.53-8.44,2.53-13.11s.11-9.51-2.53-12.25Z"/><path class="cls-1" d="m690.55,466.81v-38.26h23.75v3.65h-19.67v13.49h16.77v3.65h-16.77v13.81h19.67v3.65h-23.75Z"/><path class="cls-1" d="m732.63,467.14c-5.75,0-9.51-1.45-13.11-5.05l2.79-2.79c3.17,3.17,6.13,4.19,10.43,4.19,5.59,0,9.03-2.63,9.03-7.09,0-1.99-.59-3.71-1.83-4.78-1.24-1.07-2.2-1.4-5-1.83l-4.46-.7c-3.01-.48-5.37-1.45-7.04-2.9-1.94-1.72-2.9-4.08-2.9-7.15,0-6.5,4.68-10.8,12.25-10.8,4.89,0,8.12,1.24,11.39,4.19l-2.63,2.63c-2.36-2.15-4.89-3.28-8.92-3.28-5.11,0-8.06,2.85-8.06,7.09,0,1.88.54,3.39,1.72,4.41,1.18,1.02,3.17,1.77,5.16,2.1l4.19.65c3.6.54,5.37,1.29,6.99,2.69,2.1,1.77,3.22,4.41,3.22,7.58,0,6.72-5.27,10.86-13.22,10.86Z"/><path class="cls-1" d="m754.4,466.81v-38.26h4.08v38.26h-4.08Z"/><path class="cls-1" d="m791.69,462.73c-2.69,2.9-6.29,4.41-10.21,4.41s-7.2-1.4-9.78-3.98c-3.6-3.6-3.6-7.36-3.6-15.48s0-11.88,3.6-15.48c2.58-2.58,5.97-3.98,9.78-3.98,7.31,0,12.25,4.73,13.38,11.45h-4.08c-1.08-4.84-4.51-7.79-9.3-7.79-2.53,0-4.94,1.02-6.61,2.74-2.42,2.47-2.69,5.05-2.69,13.06s.27,10.64,2.69,13.11c1.67,1.72,4.08,2.69,6.61,2.69,2.79,0,5.48-1.13,7.25-3.28,1.56-1.88,2.15-3.98,2.15-6.93v-2.9h-9.41v-3.6h13.49v6.07c0,4.41-.91,7.36-3.28,9.89Z"/><path class="cls-1" d="m828.88,466.81l-20.31-30.69v30.69h-4.08v-38.26h3.87l20.31,30.58v-30.58h4.08v38.26h-3.87Z"/><path class="cls-1" d="m867.03,467.14c-5.75,0-9.51-1.45-13.11-5.05l2.79-2.79c3.17,3.17,6.13,4.19,10.43,4.19,5.59,0,9.03-2.63,9.03-7.09,0-1.99-.59-3.71-1.83-4.78-1.24-1.07-2.2-1.4-5-1.83l-4.46-.7c-3.01-.48-5.37-1.45-7.04-2.9-1.94-1.72-2.9-4.08-2.9-7.15,0-6.5,4.68-10.8,12.25-10.8,4.89,0,8.12,1.24,11.39,4.19l-2.63,2.63c-2.36-2.15-4.89-3.28-8.92-3.28-5.11,0-8.06,2.85-8.06,7.09,0,1.88.54,3.39,1.72,4.41,1.18,1.02,3.17,1.77,5.16,2.1l4.19.65c3.6.54,5.37,1.29,6.99,2.69,2.1,1.77,3.22,4.41,3.22,7.58,0,6.72-5.27,10.86-13.22,10.86Z"/><path class="cls-1" d="m900.03,432.2v34.61h-4.08v-34.61h-11.07v-3.65h26.23v3.65h-11.07Z"/><path class="cls-1" d="m931.03,467.14c-7.74,0-13.33-5.32-13.33-12.95v-25.63h4.08v25.31c0,5.8,3.65,9.62,9.24,9.62s9.3-3.82,9.3-9.62v-25.31h4.08v25.63c0,7.63-5.64,12.95-13.38,12.95Z"/><path class="cls-1" d="m977.73,463.27c-2.31,2.31-5.7,3.55-9.67,3.55h-13.11v-38.26h13.11c3.98,0,7.36,1.24,9.67,3.55,3.98,3.98,3.76,9.83,3.76,15.15s.21,12.04-3.76,16.02Zm-2.85-28.27c-1.99-2.04-4.57-2.79-7.52-2.79h-8.33v30.96h8.33c2.96,0,5.54-.75,7.52-2.79,2.63-2.74,2.53-8.44,2.53-13.11s.11-9.51-2.53-12.25Z"/><path class="cls-1" d="m991.11,466.81v-38.26h4.08v38.26h-4.08Z"/><path class="cls-1" d="m1027.98,463.16c-2.58,2.58-5.97,3.98-9.78,3.98s-7.2-1.4-9.78-3.98c-3.6-3.6-3.6-7.36-3.6-15.48s0-11.88,3.6-15.48c2.58-2.58,5.97-3.98,9.78-3.98s7.2,1.4,9.78,3.98c3.6,3.6,3.6,7.36,3.6,15.48s0,11.88-3.6,15.48Zm-3.17-28.54c-1.67-1.72-4.08-2.74-6.61-2.74s-4.94,1.02-6.61,2.74c-2.42,2.47-2.69,5.05-2.69,13.06s.27,10.59,2.69,13.06c1.67,1.72,4.08,2.74,6.61,2.74s4.94-1.02,6.61-2.74c2.42-2.47,2.69-5.05,2.69-13.06s-.27-10.59-2.69-13.06Z"/></svg>